<svg id="Ñëîé_1" data-name="Ñëîé 1" xmlns="http://www.w3.org/2000/svg" viewBox="0 0 305.3 237.6"><defs><style>.cls-1{fill:#553772;}.cls-2{fill:#d4ecff;}.cls-3{fill:#c7517b;}.cls-4{fill:#fff;}.cls-5{fill:#8f3b76;}.cls-6{fill:#1f306e;}.cls-7{fill:#f5487f;}.cls-8{fill:#5793ce;}.cls-9{fill:#efefef;}</style></defs><polygon class="cls-1" points="283.72 154.91 186.56 98.78 296.09 103.94 302.89 110.45 304.37 120.21 303.28 126.85 300.03 134.91 296.78 141.22 293.13 145.95 283.72 154.91"/><path class="cls-2" d="M207.73,54.18l-.5-.29,0,0h0c-3.88-2.08-9.15-1.7-15,1.65L59.51,132.15A9.35,9.35,0,0,1,61,133.64l5-2.91L92.92,189.1l13.91,19,9.07,3.15,9.09-3.55,44.15-25.09,87.51-50,32.1-19.28,8.38-2.66,7.54-.45Z" transform="translate(-5.68 -6.57)"/><path class="cls-3" d="M102.84,196.81c0-13.74,9.68-30.5,21.58-37.37v2.36c-10.77,6.22-19.53,21.39-19.53,33.83s8.76,17.49,19.53,11.27l165-95.25c5.94-3.43,11.34-3.76,15.24-1.5l-96.91-56-.5-.29,0,0h0c-3.88-2.08-9.15-1.7-15,1.65L59.51,132.15A9.35,9.35,0,0,1,61,133.64l5-2.91L92.92,189.1,104,204.26A22,22,0,0,1,102.84,196.81Z" transform="translate(-5.68 -6.57)"/><path class="cls-2" d="M304.67,110.16Z" transform="translate(-5.68 -6.57)"/><path class="cls-4" d="M102.84,195.5c0,.24,0,.46,0,.69.14-6.85,2.63-14.4,6.57-21.08-.19-.11-.37-.23-.55-.35C105.15,181.4,102.84,188.8,102.84,195.5Z" transform="translate(-5.68 -6.57)"/><path class="cls-4" d="M289.4,110.34l-165,95.25c-10.51,6.07-19.11,1.38-19.51-10.41,0,.15,0,.3,0,.45,0,12.43,8.76,17.49,19.53,11.27l165-95.25c5.94-3.43,11.34-3.76,15.24-1.5L300,107.44A18.61,18.61,0,0,0,289.4,110.34Z" transform="translate(-5.68 -6.57)"/><path class="cls-4" d="M92.92,187.79,66.07,129.42l-5,2.9c-.21-.24-.42-.46-.64-.69l-.89.52A9.35,9.35,0,0,1,61,133.64l5-2.91L92.92,189.1,104,204.26a18.5,18.5,0,0,1-.61-2.14Z" transform="translate(-5.68 -6.57)"/><path class="cls-2" d="M304.67,108.85Z" transform="translate(-5.68 -6.57)"/><path class="cls-5" d="M27.26,103.31h0c-11.89,6.87-21.57,23.63-21.57,37.37,0,6.64,2.26,11.36,5.93,13.71h0l.06,0c.21.14.44.27.66.39l96.82,55.94L103.23,200l.69-10.7,1.87-6,2.86-6.41s2.37-4.39,2.52-4.49,3.5-4.43,3.5-4.43l3.26-3.4,3.54-2.27,3-2.89Z" transform="translate(-5.68 -6.57)"/><path class="cls-1" d="M289.4,161.48v-2.37c10.77-6.22,19.53-21.39,19.53-33.82S300.17,107.8,289.4,114l-165,95.25c-11.9,6.86-21.58,1.28-21.58-12.46s9.68-30.5,21.58-37.37v2.36c-10.77,6.22-19.53,21.39-19.53,33.83s8.76,17.49,19.53,11.27l165-95.25c11.9-6.87,21.58-1.28,21.58,12.46S301.3,154.61,289.4,161.48Z" transform="translate(-5.68 -6.57)"/><path class="cls-6" d="M212.13,128l-46.2-26.08a8,8,0,0,0-7.15.37l-26.4,15.62c-2.1,1.24-2.31,3.09-.47,4.13l46.21,26.08a7.94,7.94,0,0,0,7.14-.37l26.4-15.61C213.77,130.85,214,129,212.13,128Z" transform="translate(-5.68 -6.57)"/><path class="cls-7" d="M177,142.43l-47.5-26.77a2.4,2.4,0,0,1-1.41-2l0,0-.06-5.29,2.65,2.17,29.6-17.5c2.41-1.42,6.07-1.62,8.18-.43l45.4,25.59,3.47-2.06.06,5.34,0,0a3.37,3.37,0,0,1-1.95,2.65L185.15,142C182.74,143.42,179.08,143.61,177,142.43Z" transform="translate(-5.68 -6.57)"/><path class="cls-7" d="M215.85,114l-47.5-26.77c-2.11-1.19-5.77-1-8.18.43L130,105.55c-2.41,1.42-2.65,3.54-.54,4.73L176.91,137c2.11,1.19,5.77,1,8.18-.42l30.22-17.87C217.72,117.32,218,115.2,215.85,114Z" transform="translate(-5.68 -6.57)"/><path class="cls-4" d="M176.91,137l-47.5-26.76a2.25,2.25,0,0,1-1.33-2.63,2.91,2.91,0,0,0,1.22,1.22l47.5,26.77c2.11,1.19,5.78,1,8.18-.43l30.22-17.87a3.85,3.85,0,0,0,1.87-2.1c.55,1.13,0,2.49-1.76,3.51l-30.22,17.87C182.68,138,179,138.23,176.91,137Z" transform="translate(-5.68 -6.57)"/><path class="cls-4" d="M166,107.08c1.75-1,1.73-2.68,0-3.68a7,7,0,0,0-6.37.06c-1.75,1-1.73,2.69,0,3.68A7,7,0,0,0,166,107.08Z" transform="translate(-5.68 -6.57)"/><ellipse class="cls-4" cx="172.52" cy="110.74" rx="4.51" ry="2.6" transform="translate(-6.83 -4.76) rotate(-0.6)"/><ellipse class="cls-4" cx="182.23" cy="116.21" rx="4.51" ry="2.6" transform="translate(-6.88 -4.66) rotate(-0.6)"/><polygon class="cls-6" points="144.02 154.6 105.3 132.02 102.88 133.41 141.59 155.99 144.02 154.6"/><polygon class="cls-6" points="142.94 141.72 115.92 125.95 113.49 127.34 140.52 143.1 142.94 141.72"/><polygon class="cls-6" points="133.99 142.62 110.61 128.99 108.18 130.38 131.56 144.01 133.99 142.62"/><polygon class="cls-6" points="149.33 151.57 137.64 144.75 135.21 146.14 146.9 152.96 149.33 151.57"/><polygon class="cls-6" points="234.4 101.42 195.68 78.84 193.25 80.23 231.97 102.81 234.4 101.42"/><polygon class="cls-6" points="233.32 88.54 206.29 72.78 203.86 74.17 230.89 89.93 233.32 88.54"/><polygon class="cls-6" points="224.37 89.44 200.99 75.81 198.56 77.2 221.94 90.83 224.37 89.44"/><polygon class="cls-6" points="239.71 98.39 228.01 91.57 225.59 92.96 237.28 99.78 239.71 98.39"/><path class="cls-3" d="M207.73,54.18l-.5-.29,0,0h0c-3.88-2.08-9.15-1.7-15,1.65L181.09,62l15.66,9a1.74,1.74,0,0,0,1.95.08h0L217.8,60Z" transform="translate(-5.68 -6.57)"/><path class="cls-7" d="M232,37.41l-5-2.9,18.53-10.7a1,1,0,0,0,0-1.83L226.56,11.05a3.48,3.48,0,0,0-3.17,0l-18.53,10.7-5-2.91L218.36,8.15a14.62,14.62,0,0,1,13.23,0l18.93,10.93c3.64,2.1,3.64,5.53,0,7.63Z" transform="translate(-5.68 -6.57)"/><path class="cls-3" d="M240.1,38.69c0-2.69-1.64-5.81-3.65-7L202.87,12.33a2.33,2.33,0,0,0-2.36-.2h0L160.42,35.42l38.77,29.21,39.49-22.92a1.75,1.75,0,0,0,.35-.2h0A3.43,3.43,0,0,0,240.1,38.69Z" transform="translate(-5.68 -6.57)"/><path class="cls-1" d="M199.19,64.63l39.49-22.92a1.75,1.75,0,0,0,.35-.2h0a3.43,3.43,0,0,0,1.07-2.82,9,9,0,0,0-1-3.89l-45,26Z" transform="translate(-5.68 -6.57)"/><path class="cls-5" d="M196.66,64.53,163.09,45.15c-2-1.17-3.65-4.29-3.65-7h0c0-2.68,1.63-3.92,3.65-2.75L196.66,54.8c2,1.16,3.65,4.28,3.65,7h0C200.31,64.46,198.68,65.69,196.66,64.53Z" transform="translate(-5.68 -6.57)"/><path class="cls-4" d="M197.07,54.62,163.49,35.23a2.34,2.34,0,0,0-2.41-.17,2.56,2.56,0,0,1,2,.36L196.66,54.8c2,1.16,3.65,4.28,3.65,7h0a3.26,3.26,0,0,1-1.23,2.93c1-.3,1.64-1.42,1.64-3.11h0C200.72,58.9,199.08,55.78,197.07,54.62Z" transform="translate(-5.68 -6.57)"/><path class="cls-4" d="M191.63,58l-4-2.33a1.74,1.74,0,0,1-.73-1.39h0c0-.53.33-.78.73-.55l4,2.33a1.74,1.74,0,0,1,.73,1.39h0C192.36,58,192,58.22,191.63,58Z" transform="translate(-5.68 -6.57)"/><path class="cls-8" d="M196.19,30.43a1.35,1.35,0,0,0,0-2.56,4.93,4.93,0,0,0-4.44.05,1.35,1.35,0,0,0,0,2.56A4.93,4.93,0,0,0,196.19,30.43Z" transform="translate(-5.68 -6.57)"/><path class="cls-4" d="M203,34.24a1.35,1.35,0,0,0,0-2.56,4.93,4.93,0,0,0-4.44.05,1.35,1.35,0,0,0,0,2.56A4.93,4.93,0,0,0,203,34.24Z" transform="translate(-5.68 -6.57)"/><path class="cls-4" d="M209.71,38.05a1.35,1.35,0,0,0,0-2.56,4.93,4.93,0,0,0-4.44,0,1.35,1.35,0,0,0,0,2.56A4.93,4.93,0,0,0,209.71,38.05Z" transform="translate(-5.68 -6.57)"/><path class="cls-9" d="M153,238.79,258.26,178c2.55-1.47,2.23-4-.72-5.75h0c-2.94-1.7-7.4-1.88-10-.41l-105.3,60.83c-2.55,1.48-2.23,4,.72,5.75h0C146,240.07,150.41,240.26,153,238.79Z" transform="translate(-5.68 -6.57)"/><path class="cls-2" d="M266.86,157.16h0a.4.4,0,0,0-.43-.2l-5.61,1.16,2.17,3.77,3.82-4.26A.39.39,0,0,0,266.86,157.16Z" transform="translate(-5.68 -6.57)"/><path class="cls-5" d="M264.63,159.9a2.81,2.81,0,0,0-1.26-2.2.94.94,0,0,0-.84-.11,35.69,35.69,0,0,0-18.44,4.75l-.41.23,6.83,11.89,2.07-1.34a35.78,35.78,0,0,0,10.83-11l.89-1.43A.91.91,0,0,0,264.63,159.9Z" transform="translate(-5.68 -6.57)"/><path class="cls-3" d="M251.94,171.32a10.7,10.7,0,0,0-4.83-8.4c-2.68-1.56-4.85-.31-4.85,2.78a10.68,10.68,0,0,0,4.83,8.41C249.76,175.66,251.93,174.41,251.94,171.32Z" transform="translate(-5.68 -6.57)"/><polygon class="cls-3" points="203.34 193.17 244.83 167.89 238 156 195.27 179.12 203.34 193.17"/><path class="cls-2" d="M210.71,196A12.65,12.65,0,0,0,205,186.1c-3.16-1.83-5.73-.36-5.73,3.3a12.64,12.64,0,0,0,5.7,9.93C208.13,201.16,210.7,199.69,210.71,196Z" transform="translate(-5.68 -6.57)"/><path class="cls-2" d="M208.34,197.39a12.65,12.65,0,0,0-5.71-9.93c-3.15-1.83-5.72-.36-5.73,3.3a12.65,12.65,0,0,0,5.71,9.93C205.77,202.52,208.33,201.05,208.34,197.39Z" transform="translate(-5.68 -6.57)"/><rect class="cls-3" x="143.54" y="201.74" width="63.28" height="16.2" transform="translate(-86.93 108.6) rotate(-29.88)"/><path class="cls-2" d="M153.47,228.92a12.65,12.65,0,0,0-5.71-9.93c-3.16-1.84-5.72-.36-5.73,3.29a12.67,12.67,0,0,0,5.71,9.94C150.9,234.05,153.46,232.57,153.47,228.92Z" transform="translate(-5.68 -6.57)"/><path class="cls-5" d="M151.42,227.73a8.33,8.33,0,0,0-3.86-6c-2-1.18-3.59-.39-3.48,1.77a8.35,8.35,0,0,0,3.86,6C150,230.69,151.53,229.89,151.42,227.73Z" transform="translate(-5.68 -6.57)"/><path class="cls-4" d="M211.13,195.79a12.68,12.68,0,0,0-5.71-9.93,4.48,4.48,0,0,0-3.4-.67c1-1.07,2.74-1.18,4.65-.07a12.67,12.67,0,0,1,5.71,9.94c0,2.18-.93,3.58-2.34,4A4.54,4.54,0,0,0,211.13,195.79Z" transform="translate(-5.68 -6.57)"/><path class="cls-5" d="M211.13,195.79a12.68,12.68,0,0,0-5.71-9.93,4,4,0,0,0-4-.41l-3.11,1.79,1.45,2.52a12.94,12.94,0,0,0,5.17,9l1.45,2.52,3.11-1.79h0C210.48,198.9,211.12,197.62,211.13,195.79Z" transform="translate(-5.68 -6.57)"/><path class="cls-3" d="M208,197.58a12.68,12.68,0,0,0-5.71-9.93c-3.16-1.84-5.73-.36-5.74,3.29a12.7,12.7,0,0,0,5.71,9.94C205.44,202.71,208,201.23,208,197.58Z" transform="translate(-5.68 -6.57)"/><path class="cls-7" d="M148.84,229.33l-3.48-6.06L133.73,230a3.49,3.49,0,0,0-1.29,4.77h0a3.49,3.49,0,0,0,4.77,1.29Z" transform="translate(-5.68 -6.57)"/><path class="cls-7" d="M149.57,227.73a5.44,5.44,0,0,0-2.47-4.28c-1.36-.8-2.47-.16-2.47,1.42a5.48,5.48,0,0,0,2.46,4.28C148.46,229.94,149.56,229.31,149.57,227.73Z" transform="translate(-5.68 -6.57)"/><path class="cls-5" d="M162.63,206.59l-1.72-1a3.68,3.68,0,0,0-3.72.36l-6,3.43a4.55,4.55,0,0,0-2.06,3.54v3a2.44,2.44,0,0,1-.61,1.49l.2,1.38-1.47-.87h0a.76.76,0,0,1-.34-.72v-3a9.45,9.45,0,0,1,4.28-7.37l6-3.43c2-1.15,3.87-1.33,5.28-.52l1.72,1a3.68,3.68,0,0,0,3.72-.36L192,189.67a.77.77,0,0,1,.79-.07h0l1.47.86-1.27.48a2.42,2.42,0,0,1-1,1.29l-24.09,13.84C165.91,207.22,164,207.4,162.63,206.59Z" transform="translate(-5.68 -6.57)"/><path class="cls-5" d="M162.4,206.46a3.71,3.71,0,0,0-3.72.36l-6,3.43a4.52,4.52,0,0,0-2.05,3.54v3a2.45,2.45,0,0,1-1.11,1.92c-.62.35-1.11.07-1.11-.64v-3a9.43,9.43,0,0,1,4.27-7.37l6-3.43c2-1.15,3.87-1.33,5.28-.51l1.72,1a3.73,3.73,0,0,0,3.72-.36l24.09-13.84c.61-.36,1.11-.07,1.11.64a2.47,2.47,0,0,1-1.12,1.92L169.4,207c-2,1.15-3.87,1.33-5.28.51Z" transform="translate(-5.68 -6.57)"/><path class="cls-4" d="M150.58,214.28v3s0,0,0,.06a1.76,1.76,0,0,0,.09-.55v-3a2.28,2.28,0,0,1,0-.26A3.29,3.29,0,0,0,150.58,214.28Z" transform="translate(-5.68 -6.57)"/><path class="cls-9" d="M139.3,243.65l11-6.36c1.33-.77,1.17-2.11-.37-3h0a5.76,5.76,0,0,0-5.18-.22l-11,6.36c-1.32.77-1.16,2.11.38,3h0A5.76,5.76,0,0,0,139.3,243.65Z" transform="translate(-5.68 -6.57)"/></svg>