<svg xmlns="http://www.w3.org/2000/svg" xmlns:xlink="http://www.w3.org/1999/xlink" viewBox="0 0 590.27 401.75"><defs><style>.cls-1{isolation:isolate;}.cls-2{fill:url(#linear-gradient);}.cls-3{fill:url(#linear-gradient-2);}.cls-4{fill:url(#linear-gradient-3);}.cls-5{fill:url(#linear-gradient-4);}.cls-6{fill:url(#linear-gradient-5);}.cls-7{fill:url(#linear-gradient-6);}.cls-8{fill:url(#linear-gradient-7);}.cls-9{fill:url(#linear-gradient-8);}.cls-10{fill:url(#linear-gradient-9);}.cls-11{fill:url(#linear-gradient-10);}.cls-12{fill:url(#linear-gradient-11);}.cls-13{fill:url(#linear-gradient-12);}.cls-14{fill:url(#linear-gradient-13);}.cls-15{fill:url(#linear-gradient-14);}.cls-16{fill:url(#linear-gradient-15);}.cls-17{fill:url(#linear-gradient-16);}.cls-18{fill:url(#linear-gradient-17);}.cls-19{fill:url(#linear-gradient-18);}.cls-20{fill:url(#linear-gradient-19);}.cls-21{fill:url(#linear-gradient-20);}.cls-22{fill:url(#linear-gradient-21);}.cls-23{fill:url(#linear-gradient-22);}.cls-24{fill:url(#linear-gradient-23);}.cls-25{fill:url(#linear-gradient-24);}.cls-26{opacity:0.9;}.cls-112,.cls-113,.cls-150,.cls-27,.cls-35,.cls-36,.cls-75{opacity:0.4;}.cls-27,.cls-76{mix-blend-mode:multiply;}.cls-28{fill:url(#linear-gradient-25);}.cls-29{fill:url(#linear-gradient-26);}.cls-30{fill:url(#linear-gradient-27);}.cls-31{fill:url(#linear-gradient-28);}.cls-32{fill:url(#linear-gradient-29);}.cls-33{fill:url(#linear-gradient-30);}.cls-34{fill:#eab6ff;opacity:0.5;}.cls-112,.cls-113,.cls-150,.cls-34,.cls-35,.cls-36{mix-blend-mode:overlay;}.cls-35{fill:url(#linear-gradient-31);}.cls-36{fill:url(#linear-gradient-32);}.cls-37{fill:url(#linear-gradient-33);}.cls-38{fill:url(#linear-gradient-34);}.cls-39{fill:url(#linear-gradient-35);}.cls-40{fill:url(#linear-gradient-36);}.cls-41{fill:url(#linear-gradient-37);}.cls-42{fill:url(#linear-gradient-38);}.cls-43{fill:url(#linear-gradient-39);}.cls-44{fill:url(#linear-gradient-40);}.cls-45{fill:url(#linear-gradient-41);}.cls-46{fill:url(#linear-gradient-42);}.cls-47{fill:url(#linear-gradient-43);}.cls-48{fill:url(#linear-gradient-44);}.cls-49{fill:url(#linear-gradient-45);}.cls-50{fill:url(#linear-gradient-46);}.cls-51{fill:url(#linear-gradient-47);}.cls-52{fill:url(#linear-gradient-48);}.cls-53{fill:url(#linear-gradient-49);}.cls-54{fill:url(#linear-gradient-50);}.cls-55{fill:url(#linear-gradient-51);}.cls-56{fill:url(#linear-gradient-52);}.cls-57{fill:url(#linear-gradient-53);}.cls-58{fill:url(#linear-gradient-54);}.cls-59{fill:url(#linear-gradient-55);}.cls-60{fill:url(#linear-gradient-56);}.cls-61{fill:url(#linear-gradient-57);}.cls-62{fill:url(#linear-gradient-58);}.cls-63{fill:url(#linear-gradient-59);}.cls-64{fill:url(#linear-gradient-60);}.cls-65{fill:url(#linear-gradient-61);}.cls-66{fill:url(#linear-gradient-62);}.cls-67{fill:url(#linear-gradient-63);}.cls-68{fill:url(#linear-gradient-64);}.cls-69{fill:url(#linear-gradient-65);}.cls-70{fill:url(#linear-gradient-66);}.cls-71{fill:url(#linear-gradient-67);}.cls-72{fill:url(#linear-gradient-68);}.cls-73{fill:url(#linear-gradient-69);}.cls-74{fill:url(#linear-gradient-70);}.cls-77{fill:url(#linear-gradient-71);}.cls-78{fill:url(#linear-gradient-72);}.cls-79{fill:url(#linear-gradient-73);}.cls-80{fill:url(#linear-gradient-74);}.cls-81{fill:url(#linear-gradient-75);}.cls-82{fill:url(#linear-gradient-76);}.cls-83{fill:url(#linear-gradient-77);}.cls-84{fill:url(#linear-gradient-78);}.cls-85{fill:url(#linear-gradient-79);}.cls-86{fill:url(#linear-gradient-80);}.cls-87{fill:url(#linear-gradient-81);}.cls-88{fill:url(#linear-gradient-82);}.cls-89{fill:url(#linear-gradient-83);}.cls-90{fill:url(#linear-gradient-84);}.cls-91{fill:url(#linear-gradient-85);}.cls-92{fill:url(#linear-gradient-86);}.cls-93{fill:url(#linear-gradient-87);}.cls-94{fill:url(#linear-gradient-88);}.cls-95{fill:url(#linear-gradient-89);}.cls-96{fill:url(#linear-gradient-90);}.cls-97{fill:url(#linear-gradient-91);}.cls-98{fill:url(#linear-gradient-92);}.cls-99{fill:url(#linear-gradient-93);}.cls-100{fill:url(#linear-gradient-94);}.cls-101{fill:url(#linear-gradient-95);}.cls-102{fill:url(#linear-gradient-96);}.cls-103{fill:url(#linear-gradient-97);}.cls-104{fill:url(#linear-gradient-98);}.cls-105{fill:url(#linear-gradient-99);}.cls-106{fill:url(#linear-gradient-100);}.cls-107{fill:url(#linear-gradient-101);}.cls-108{fill:url(#linear-gradient-102);}.cls-109{fill:url(#linear-gradient-103);}.cls-110{fill:url(#linear-gradient-104);}.cls-111{fill:url(#linear-gradient-105);}.cls-112{fill:url(#linear-gradient-106);}.cls-113{fill:url(#linear-gradient-107);}.cls-114{fill:url(#linear-gradient-108);}.cls-115{fill:url(#linear-gradient-109);}.cls-116{fill:url(#linear-gradient-110);}.cls-117{fill:url(#linear-gradient-111);}.cls-118{fill:url(#linear-gradient-112);}.cls-119{fill:url(#linear-gradient-113);}.cls-120{fill:url(#linear-gradient-114);}.cls-121{fill:url(#linear-gradient-115);}.cls-122{fill:url(#linear-gradient-116);}.cls-123{fill:url(#linear-gradient-117);}.cls-124{fill:url(#linear-gradient-118);}.cls-125{fill:url(#linear-gradient-119);}.cls-126{fill:url(#linear-gradient-120);}.cls-127{fill:url(#linear-gradient-121);}.cls-128{fill:url(#linear-gradient-122);}.cls-129{fill:url(#linear-gradient-123);}.cls-130{fill:url(#linear-gradient-124);}.cls-131{fill:url(#linear-gradient-125);}.cls-132{fill:url(#linear-gradient-126);}.cls-133{fill:url(#linear-gradient-127);}.cls-134{fill:url(#linear-gradient-128);}.cls-135{fill:url(#linear-gradient-129);}.cls-136{fill:url(#linear-gradient-130);}.cls-137{fill:url(#linear-gradient-131);}.cls-138{fill:url(#linear-gradient-132);}.cls-139{fill:url(#linear-gradient-133);}.cls-140{fill:url(#linear-gradient-134);}.cls-141{fill:url(#linear-gradient-135);}.cls-142{fill:url(#linear-gradient-136);}.cls-143{fill:url(#linear-gradient-137);}.cls-144{fill:url(#linear-gradient-138);}.cls-145{fill:url(#linear-gradient-139);}.cls-146{fill:url(#linear-gradient-140);}.cls-147{fill:url(#linear-gradient-141);}.cls-148{fill:url(#linear-gradient-142);}.cls-149{fill:url(#linear-gradient-143);}.cls-150{fill:url(#linear-gradient-144);}</style><linearGradient id="linear-gradient" x1="747.74" y1="30.73" x2="795.33" y2="38.21" gradientTransform="matrix(0.87, -0.5, 1, 0.58, -586.45, 488.38)" gradientUnits="userSpaceOnUse"><stop offset="0" stop-color="#e8e8e3"/><stop offset="1" stop-color="#13cee2"/></linearGradient><linearGradient id="linear-gradient-2" x1="763.94" y1="13.31" x2="831.82" y2="23.98" xlink:href="#linear-gradient"/><linearGradient id="linear-gradient-3" x1="735.45" y1="25.93" x2="787.45" y2="34.11" xlink:href="#linear-gradient"/><linearGradient id="linear-gradient-4" x1="112.59" y1="127" x2="212.12" y2="87.59" gradientTransform="matrix(1, 0, 0, 1, 0, 0)" xlink:href="#linear-gradient"/><linearGradient id="linear-gradient-5" x1="817.92" y1="36.2" x2="853.25" y2="41.76" xlink:href="#linear-gradient"/><linearGradient id="linear-gradient-6" x1="641.19" y1="30.89" x2="655.83" y2="33.19" gradientTransform="matrix(0.87, -0.5, 1, 0.58, -399.31, 472.01)" xlink:href="#linear-gradient"/><linearGradient id="linear-gradient-7" x1="661.38" y1="8.8" x2="676.02" y2="11.11" gradientTransform="matrix(0.87, -0.5, 1, 0.58, -399.31, 472.01)" xlink:href="#linear-gradient"/><linearGradient id="linear-gradient-8" x1="650.46" y1="44.49" x2="665.1" y2="46.8" gradientTransform="matrix(0.87, -0.5, 1, 0.58, -399.31, 472.01)" xlink:href="#linear-gradient"/><linearGradient id="linear-gradient-9" x1="685.4" y1="45.79" x2="700.04" y2="48.1" gradientTransform="matrix(0.87, -0.5, 1, 0.58, -399.31, 472.01)" xlink:href="#linear-gradient"/><linearGradient id="linear-gradient-10" x1="706.11" y1="47.77" x2="720.75" y2="50.08" gradientTransform="matrix(0.87, -0.5, 1, 0.58, -399.31, 472.01)" xlink:href="#linear-gradient"/><linearGradient id="linear-gradient-11" x1="730.42" y1="356.44" x2="770.13" y2="362.69" xlink:href="#linear-gradient"/><linearGradient id="linear-gradient-12" x1="743.52" y1="358.73" x2="811.4" y2="369.4" xlink:href="#linear-gradient"/><linearGradient id="linear-gradient-13" x1="717.24" y1="357.31" x2="762.4" y2="364.41" xlink:href="#linear-gradient"/><linearGradient id="linear-gradient-14" x1="779.02" y1="387.14" x2="819.25" y2="393.47" xlink:href="#linear-gradient"/><linearGradient id="linear-gradient-15" x1="453.13" y1="310.9" x2="495.43" y2="307.27" gradientTransform="matrix(1, 0, 0, 1, 0, 0)" xlink:href="#linear-gradient"/><linearGradient id="linear-gradient-16" x1="612.87" y1="522.87" x2="627.51" y2="525.18" gradientTransform="matrix(0.87, -0.5, 1, 0.58, -399.31, 472.01)" xlink:href="#linear-gradient"/><linearGradient id="linear-gradient-17" x1="640.49" y1="531.41" x2="655.13" y2="533.72" gradientTransform="matrix(0.87, -0.5, 1, 0.58, -399.31, 472.01)" xlink:href="#linear-gradient"/><linearGradient id="linear-gradient-18" x1="653.03" y1="571" x2="667.67" y2="573.31" gradientTransform="matrix(0.87, -0.5, 1, 0.58, -399.31, 472.01)" xlink:href="#linear-gradient"/><linearGradient id="linear-gradient-19" x1="669.29" y1="545.32" x2="683.93" y2="547.62" gradientTransform="matrix(0.87, -0.5, 1, 0.58, -399.31, 472.01)" xlink:href="#linear-gradient"/><linearGradient id="linear-gradient-20" x1="624.55" y1="504.31" x2="639.19" y2="506.61" gradientTransform="matrix(0.87, -0.5, 1, 0.58, -399.31, 472.01)" xlink:href="#linear-gradient"/><linearGradient id="linear-gradient-21" x1="82.36" y1="277.37" x2="165.88" y2="277.37" gradientTransform="matrix(1, 0, 0, 1, 0, 0)" xlink:href="#linear-gradient"/><linearGradient id="linear-gradient-22" x1="133.62" y1="284.8" x2="171.8" y2="290.81" gradientTransform="matrix(1, 0, 0, 1, 0, 0)" xlink:href="#linear-gradient"/><linearGradient id="linear-gradient-23" x1="367.21" y1="112.9" x2="410.69" y2="112.9" gradientTransform="matrix(1, 0, 0, 1, 0, 0)" xlink:href="#linear-gradient"/><linearGradient id="linear-gradient-24" x1="374.95" y1="133.76" x2="500.13" y2="133.76" gradientTransform="matrix(1, 0, 0, 1, 0, 0)" xlink:href="#linear-gradient"/><linearGradient id="linear-gradient-25" x1="332.96" y1="459.2" x2="323.64" y2="459.2" gradientUnits="userSpaceOnUse"><stop offset="0" stop-color="#7229e7"/><stop offset="1" stop-color="#835eff"/></linearGradient><linearGradient id="linear-gradient-26" x1="391.12" y1="479.91" x2="278.78" y2="404.33" gradientUnits="userSpaceOnUse"><stop offset="0" stop-color="#6318ff"/><stop offset="1" stop-color="#fff6e2"/></linearGradient><linearGradient id="linear-gradient-27" x1="332.96" y1="430.21" x2="323.64" y2="430.21" xlink:href="#linear-gradient-25"/><linearGradient id="linear-gradient-28" x1="398.99" y1="470.2" x2="282.15" y2="385.32" xlink:href="#linear-gradient-26"/><linearGradient id="linear-gradient-29" x1="309.98" y1="418.05" x2="345.48" y2="418.05" gradientUnits="userSpaceOnUse"><stop offset="0" stop-color="#4500ff"/><stop offset="1" stop-color="#6a31ff"/></linearGradient><linearGradient id="linear-gradient-30" x1="328.99" y1="414.38" x2="323.63" y2="414.38" gradientUnits="userSpaceOnUse"><stop offset="0" stop-color="#3600f4"/><stop offset="1" stop-color="#330ee0"/></linearGradient><linearGradient id="linear-gradient-31" x1="332.1" y1="418.24" x2="323.7" y2="418.24" gradientUnits="userSpaceOnUse"><stop offset="0" stop-color="#8161e2"/><stop offset="1" stop-color="#caccff"/></linearGradient><linearGradient id="linear-gradient-32" x1="332.1" y1="418.24" x2="323.7" y2="418.24" gradientUnits="userSpaceOnUse"><stop offset="0" stop-color="#8161e2"/><stop offset="1" stop-color="#9554ff"/></linearGradient><linearGradient id="linear-gradient-33" x1="687.37" y1="201.02" x2="676.31" y2="201.02" xlink:href="#linear-gradient-25"/><linearGradient id="linear-gradient-34" x1="819.53" y1="236.01" x2="587.67" y2="67.59" xlink:href="#linear-gradient-26"/><linearGradient id="linear-gradient-35" x1="777.42" y1="204.89" x2="601.33" y2="76.97" gradientUnits="userSpaceOnUse"><stop offset="0" stop-color="#7229e7"/><stop offset="1" stop-color="#6a31ff"/></linearGradient><linearGradient id="linear-gradient-36" x1="670.36" y1="237.94" x2="623.02" y2="204.01" gradientUnits="userSpaceOnUse"><stop offset="0" stop-color="#a43dff"/><stop offset="1" stop-color="#ead6e2"/></linearGradient><linearGradient id="linear-gradient-37" x1="848.75" y1="50.81" x2="746.41" y2="-23.53" gradientTransform="matrix(0.85, 0.52, 0.47, 1.45, -9.37, -164.27)" gradientUnits="userSpaceOnUse"><stop offset="0" stop-color="#bf9fff"/><stop offset="1" stop-color="#fff6e2"/></linearGradient><linearGradient id="linear-gradient-38" x1="670.27" y1="225.78" x2="622.92" y2="191.85" xlink:href="#linear-gradient-36"/><linearGradient id="linear-gradient-39" x1="855.18" y1="41.1" x2="752.84" y2="-33.24" xlink:href="#linear-gradient-37"/><linearGradient id="linear-gradient-40" x1="670.35" y1="213.62" x2="623" y2="179.7" xlink:href="#linear-gradient-36"/><linearGradient id="linear-gradient-41" x1="860.12" y1="30.03" x2="757.78" y2="-44.31" xlink:href="#linear-gradient-37"/><linearGradient id="linear-gradient-42" x1="670.31" y1="201.43" x2="622.96" y2="167.5" xlink:href="#linear-gradient-36"/><linearGradient id="linear-gradient-43" x1="866.65" y1="20.26" x2="764.31" y2="-54.08" xlink:href="#linear-gradient-37"/><linearGradient id="linear-gradient-44" x1="670.38" y1="189.27" x2="623.04" y2="155.34" xlink:href="#linear-gradient-36"/><linearGradient id="linear-gradient-45" x1="871.59" y1="9.18" x2="769.25" y2="-65.15" xlink:href="#linear-gradient-37"/><linearGradient id="linear-gradient-46" x1="670.38" y1="177.11" x2="623.04" y2="143.19" xlink:href="#linear-gradient-36"/><linearGradient id="linear-gradient-47" x1="879.2" y1="0.18" x2="776.87" y2="-74.16" xlink:href="#linear-gradient-37"/><linearGradient id="linear-gradient-48" x1="682.39" y1="129.26" x2="676.05" y2="129.26" xlink:href="#linear-gradient-30"/><linearGradient id="linear-gradient-49" x1="839.31" y1="468.9" x2="750.11" y2="404.1" gradientTransform="matrix(0.87, -0.5, 0, 1.15, -140.77, -32.39)" gradientUnits="userSpaceOnUse"><stop offset="0" stop-color="#6318ff"/><stop offset="1" stop-color="#13ffe2"/></linearGradient><linearGradient id="linear-gradient-50" x1="815.44" y1="450.73" x2="783.25" y2="427.35" xlink:href="#linear-gradient-49"/><linearGradient id="linear-gradient-51" x1="812.07" y1="460.42" x2="757.68" y2="420.91" xlink:href="#linear-gradient-49"/><linearGradient id="linear-gradient-52" x1="829.35" y1="471.7" x2="763.91" y2="424.16" xlink:href="#linear-gradient-49"/><linearGradient id="linear-gradient-53" x1="786.04" y1="452.37" x2="764.9" y2="437.01" xlink:href="#linear-gradient-49"/><linearGradient id="linear-gradient-54" x1="839.31" y1="488.79" x2="750.11" y2="423.99" xlink:href="#linear-gradient-49"/><linearGradient id="linear-gradient-55" x1="815.44" y1="470.65" x2="783.25" y2="447.26" xlink:href="#linear-gradient-49"/><linearGradient id="linear-gradient-56" x1="812.07" y1="480.33" x2="757.68" y2="440.82" xlink:href="#linear-gradient-49"/><linearGradient id="linear-gradient-57" x1="829.35" y1="491.61" x2="763.91" y2="444.08" xlink:href="#linear-gradient-49"/><linearGradient id="linear-gradient-58" x1="786.04" y1="472.28" x2="764.9" y2="456.93" xlink:href="#linear-gradient-49"/><linearGradient id="linear-gradient-59" x1="839.31" y1="508.35" x2="750.11" y2="443.56" xlink:href="#linear-gradient-49"/><linearGradient id="linear-gradient-60" x1="815.44" y1="490.18" x2="783.25" y2="466.8" xlink:href="#linear-gradient-49"/><linearGradient id="linear-gradient-61" x1="812.07" y1="499.87" x2="757.68" y2="460.36" xlink:href="#linear-gradient-49"/><linearGradient id="linear-gradient-62" x1="829.35" y1="511.15" x2="763.91" y2="463.61" xlink:href="#linear-gradient-49"/><linearGradient id="linear-gradient-63" x1="786.04" y1="491.82" x2="764.9" y2="476.47" xlink:href="#linear-gradient-49"/><linearGradient id="linear-gradient-64" x1="839.31" y1="528.24" x2="750.11" y2="463.45" xlink:href="#linear-gradient-49"/><linearGradient id="linear-gradient-65" x1="199.89" y1="376.44" x2="251.49" y2="355.7" gradientTransform="matrix(1, 0, 0, 1, 0, 0)" xlink:href="#linear-gradient"/><linearGradient id="linear-gradient-66" x1="437.63" y1="400.03" x2="452.27" y2="402.34" gradientTransform="matrix(0.87, -0.5, 1, 0.58, -399.31, 472.01)" xlink:href="#linear-gradient"/><linearGradient id="linear-gradient-67" x1="30.08" y1="184.46" x2="71.71" y2="184.46" gradientTransform="matrix(1, 0, 0, 1, 0, 0)" xlink:href="#linear-gradient"/><linearGradient id="linear-gradient-68" x1="558.85" y1="145.64" x2="573.49" y2="147.95" gradientTransform="matrix(0.87, -0.5, 1, 0.58, -399.31, 472.01)" xlink:href="#linear-gradient"/><linearGradient id="linear-gradient-69" x1="17.85" y1="219.67" x2="68.32" y2="227.61" gradientTransform="matrix(1, 0, 0, 1, 0, 0)" xlink:href="#linear-gradient"/><linearGradient id="linear-gradient-70" x1="533.35" y1="168.41" x2="547.99" y2="170.71" gradientTransform="matrix(0.87, -0.5, 1, 0.58, -399.31, 472.01)" xlink:href="#linear-gradient"/><linearGradient id="linear-gradient-71" x1="222.05" y1="391.88" x2="210.14" y2="391.88" gradientUnits="userSpaceOnUse"><stop offset="0" stop-color="#8320e7"/><stop offset="1" stop-color="#835eff"/></linearGradient><linearGradient id="linear-gradient-72" x1="364.43" y1="443.95" x2="114.65" y2="262.51" xlink:href="#linear-gradient-26"/><linearGradient id="linear-gradient-73" x1="319.07" y1="410.41" x2="129.36" y2="272.61" xlink:href="#linear-gradient-35"/><linearGradient id="linear-gradient-74" x1="203.71" y1="419.82" x2="152.7" y2="383.28" xlink:href="#linear-gradient-36"/><linearGradient id="linear-gradient-75" x1="88.81" y1="452.95" x2="-21.43" y2="372.87" gradientTransform="matrix(0.85, 0.52, 0.47, 1.45, -9.37, -164.27)" xlink:href="#linear-gradient-26"/><linearGradient id="linear-gradient-76" x1="203.67" y1="406.69" x2="152.66" y2="370.14" xlink:href="#linear-gradient-36"/><linearGradient id="linear-gradient-77" x1="95.85" y1="442.43" x2="-14.4" y2="362.34" gradientTransform="matrix(0.85, 0.52, 0.47, 1.45, -9.37, -164.27)" xlink:href="#linear-gradient-26"/><linearGradient id="linear-gradient-78" x1="203.75" y1="393.59" x2="152.75" y2="357.04" xlink:href="#linear-gradient-36"/><linearGradient id="linear-gradient-79" x1="101.17" y1="430.5" x2="-9.08" y2="350.41" gradientTransform="matrix(0.85, 0.52, 0.47, 1.45, -9.37, -164.27)" xlink:href="#linear-gradient-26"/><linearGradient id="linear-gradient-80" x1="203.75" y1="380.49" x2="152.75" y2="343.94" xlink:href="#linear-gradient-36"/><linearGradient id="linear-gradient-81" x1="109.37" y1="420.79" x2="-0.87" y2="340.71" gradientTransform="matrix(0.85, 0.52, 0.47, 1.45, -9.37, -164.27)" xlink:href="#linear-gradient-26"/><linearGradient id="linear-gradient-82" x1="216.69" y1="328.94" x2="209.86" y2="328.94" xlink:href="#linear-gradient-30"/><linearGradient id="linear-gradient-83" x1="307.48" y1="415.08" x2="211.38" y2="345.27" xlink:href="#linear-gradient-49"/><linearGradient id="linear-gradient-84" x1="281.76" y1="395.5" x2="247.09" y2="370.31" xlink:href="#linear-gradient-49"/><linearGradient id="linear-gradient-85" x1="278.13" y1="405.93" x2="219.54" y2="363.37" xlink:href="#linear-gradient-49"/><linearGradient id="linear-gradient-86" x1="296.75" y1="418.09" x2="226.25" y2="366.88" xlink:href="#linear-gradient-49"/><linearGradient id="linear-gradient-87" x1="250.09" y1="397.26" x2="227.32" y2="380.72" xlink:href="#linear-gradient-49"/><linearGradient id="linear-gradient-88" x1="307.48" y1="436.5" x2="211.38" y2="366.7" xlink:href="#linear-gradient-49"/><linearGradient id="linear-gradient-89" x1="281.76" y1="416.96" x2="247.09" y2="391.76" xlink:href="#linear-gradient-49"/><linearGradient id="linear-gradient-90" x1="278.13" y1="427.39" x2="219.54" y2="384.83" xlink:href="#linear-gradient-49"/><linearGradient id="linear-gradient-91" x1="296.75" y1="439.54" x2="226.25" y2="388.33" xlink:href="#linear-gradient-49"/><linearGradient id="linear-gradient-92" x1="250.09" y1="418.72" x2="227.32" y2="402.18" xlink:href="#linear-gradient-49"/><linearGradient id="linear-gradient-93" x1="307.48" y1="457.58" x2="211.38" y2="387.77" xlink:href="#linear-gradient-49"/><linearGradient id="linear-gradient-94" x1="535.95" y1="183.19" x2="574.4" y2="189.24" gradientTransform="matrix(1, 0, 0, 1, 0, 0)" xlink:href="#linear-gradient"/><linearGradient id="linear-gradient-95" x1="809.11" y1="421.29" x2="823.75" y2="423.59" gradientTransform="matrix(0.87, -0.5, 1, 0.58, -399.31, 472.01)" xlink:href="#linear-gradient"/><linearGradient id="linear-gradient-96" x1="536.56" y1="211.51" x2="572.59" y2="211.51" gradientTransform="matrix(1, 0, 0, 1, 0, 0)" xlink:href="#linear-gradient"/><linearGradient id="linear-gradient-97" x1="767.02" y1="427.83" x2="781.66" y2="430.13" gradientTransform="matrix(0.87, -0.5, 1, 0.58, -399.31, 472.01)" xlink:href="#linear-gradient"/><linearGradient id="linear-gradient-98" x1="336.34" y1="58.99" x2="398.28" y2="58.99" gradientTransform="matrix(1, 0, 0, 1, 0, 0)" xlink:href="#linear-gradient"/><linearGradient id="linear-gradient-99" x1="823.87" y1="174.17" x2="838.51" y2="176.48" gradientTransform="matrix(0.87, -0.5, 1, 0.58, -399.31, 472.01)" xlink:href="#linear-gradient"/><linearGradient id="linear-gradient-100" x1="579" y1="166.73" x2="569.68" y2="166.73" xlink:href="#linear-gradient-25"/><linearGradient id="linear-gradient-101" x1="637.16" y1="187.45" x2="524.82" y2="111.87" xlink:href="#linear-gradient-26"/><linearGradient id="linear-gradient-102" x1="579" y1="137.75" x2="569.68" y2="137.75" xlink:href="#linear-gradient-25"/><linearGradient id="linear-gradient-103" x1="645.03" y1="177.73" x2="528.19" y2="92.85" xlink:href="#linear-gradient-26"/><linearGradient id="linear-gradient-104" x1="556.03" y1="125.59" x2="591.52" y2="125.59" xlink:href="#linear-gradient-29"/><linearGradient id="linear-gradient-105" x1="575.03" y1="121.91" x2="569.67" y2="121.91" xlink:href="#linear-gradient-30"/><linearGradient id="linear-gradient-106" x1="578.14" y1="125.78" x2="569.74" y2="125.78" xlink:href="#linear-gradient-31"/><linearGradient id="linear-gradient-107" x1="578.14" y1="125.78" x2="569.74" y2="125.78" xlink:href="#linear-gradient-32"/><linearGradient id="linear-gradient-108" x1="523.61" y1="312.96" x2="422.76" y2="312.96" gradientUnits="userSpaceOnUse"><stop offset="0" stop-color="#ba83ff"/><stop offset="1" stop-color="#b0a4e2"/></linearGradient><linearGradient id="linear-gradient-109" x1="1054.1" y1="633.01" x2="200.93" y2="135.51" gradientUnits="userSpaceOnUse"><stop offset="0" stop-color="#9c74ff"/><stop offset="1" stop-color="#fff6e2"/></linearGradient><linearGradient id="linear-gradient-110" x1="437.53" y1="283.19" x2="499.76" y2="292.98" gradientUnits="userSpaceOnUse"><stop offset="0" stop-color="#2918dd"/><stop offset="1" stop-color="#13cee2"/></linearGradient><linearGradient id="linear-gradient-111" x1="437.43" y1="283.25" x2="499.67" y2="293.04" gradientTransform="matrix(1, 0, 0, 1, 0, 0)" xlink:href="#linear-gradient"/><linearGradient id="linear-gradient-112" x1="454.49" y1="286" x2="482.43" y2="290.39" gradientTransform="matrix(1, 0, 0, 1, 0, 0)" xlink:href="#linear-gradient"/><linearGradient id="linear-gradient-113" x1="421.09" y1="280.4" x2="516.75" y2="295.45" gradientTransform="matrix(1, 0, 0, 1, 0, 0)" xlink:href="#linear-gradient"/><linearGradient id="linear-gradient-114" x1="365.88" y1="309.25" x2="468.22" y2="325.35" gradientTransform="matrix(1, 0, 0, 1, 0, 0)" xlink:href="#linear-gradient"/><linearGradient id="linear-gradient-115" x1="362.01" y1="316.6" x2="450.66" y2="330.55" gradientTransform="matrix(1, 0, 0, 1, 0, 0)" xlink:href="#linear-gradient"/><linearGradient id="linear-gradient-116" x1="359.22" y1="323.9" x2="433.38" y2="335.56" gradientTransform="matrix(1, 0, 0, 1, 0, 0)" xlink:href="#linear-gradient"/><linearGradient id="linear-gradient-117" x1="361.31" y1="331.4" x2="415.16" y2="339.87" gradientTransform="matrix(1, 0, 0, 1, 0, 0)" xlink:href="#linear-gradient"/><linearGradient id="linear-gradient-118" x1="402.5" y1="271.79" x2="542.64" y2="293.83" gradientTransform="matrix(1, 0, 0, 1, 0, 0)" xlink:href="#linear-gradient"/><linearGradient id="linear-gradient-119" x1="453.08" y1="330.53" x2="485.11" y2="335.56" gradientTransform="matrix(1, 0, 0, 1, 0, 0)" xlink:href="#linear-gradient"/><linearGradient id="linear-gradient-120" x1="477.18" y1="334.21" x2="488.89" y2="336.05" gradientTransform="matrix(1, 0, 0, 1, 0, 0)" xlink:href="#linear-gradient"/><linearGradient id="linear-gradient-121" x1="377.54" y1="284.92" x2="401.43" y2="288.68" gradientTransform="matrix(1, 0, 0, 1, 0, 0)" xlink:href="#linear-gradient"/><linearGradient id="linear-gradient-122" x1="380.38" y1="279.42" x2="395.17" y2="281.75" gradientTransform="matrix(1, 0, 0, 1, 0, 0)" xlink:href="#linear-gradient"/><linearGradient id="linear-gradient-123" x1="470.39" y1="251.97" x2="564.51" y2="266.78" gradientTransform="matrix(1, 0, 0, 1, 0, 0)" xlink:href="#linear-gradient"/><linearGradient id="linear-gradient-124" x1="531.38" y1="240.28" x2="562.88" y2="245.23" gradientTransform="matrix(1, 0, 0, 1, 0, 0)" xlink:href="#linear-gradient"/><linearGradient id="linear-gradient-125" x1="429.2" y1="281.82" x2="508.26" y2="294.25" gradientTransform="matrix(1, 0, 0, 1, 0, 0)" xlink:href="#linear-gradient"/><linearGradient id="linear-gradient-126" x1="413.7" y1="274.94" x2="524.28" y2="292.33" gradientTransform="matrix(1, 0, 0, 1, 0, 0)" xlink:href="#linear-gradient"/><linearGradient id="linear-gradient-127" x1="423.12" y1="290.74" x2="523.37" y2="306.5" gradientTransform="matrix(1, 0, 0, 1, 0, 0)" xlink:href="#linear-gradient"/><linearGradient id="linear-gradient-128" x1="428.97" y1="254.95" x2="492.22" y2="264.9" gradientTransform="matrix(1, 0, 0, 1, 0, 0)" xlink:href="#linear-gradient"/><linearGradient id="linear-gradient-129" x1="457.58" y1="286.13" x2="533.23" y2="298.03" gradientTransform="matrix(1, 0, 0, 1, 0, 0)" xlink:href="#linear-gradient"/><linearGradient id="linear-gradient-130" x1="402.02" y1="292.89" x2="450.28" y2="300.48" gradientTransform="matrix(1, 0, 0, 1, 0, 0)" xlink:href="#linear-gradient"/><linearGradient id="linear-gradient-131" x1="360.64" y1="314.67" x2="399.74" y2="320.82" gradientTransform="matrix(1, 0, 0, 1, 0, 0)" xlink:href="#linear-gradient"/><linearGradient id="linear-gradient-132" x1="398.9" y1="337" x2="439.78" y2="343.43" gradientTransform="matrix(1, 0, 0, 1, 0, 0)" xlink:href="#linear-gradient"/><linearGradient id="linear-gradient-133" x1="366.46" y1="298.22" x2="388.73" y2="301.73" gradientTransform="matrix(1, 0, 0, 1, 0, 0)" xlink:href="#linear-gradient"/><linearGradient id="linear-gradient-134" x1="385.34" y1="320.92" x2="458.66" y2="332.45" gradientTransform="matrix(1, 0, 0, 1, 0, 0)" xlink:href="#linear-gradient"/><linearGradient id="linear-gradient-135" x1="506.1" y1="236.11" x2="540.76" y2="241.56" gradientTransform="matrix(1, 0, 0, 1, 0, 0)" xlink:href="#linear-gradient"/><linearGradient id="linear-gradient-136" x1="540.39" y1="253.67" x2="566.86" y2="257.83" gradientTransform="matrix(1, 0, 0, 1, 0, 0)" xlink:href="#linear-gradient"/><linearGradient id="linear-gradient-137" x1="395.15" y1="259.46" x2="433.92" y2="265.55" gradientTransform="matrix(1, 0, 0, 1, 0, 0)" xlink:href="#linear-gradient"/><linearGradient id="linear-gradient-138" x1="516.57" y1="305.35" x2="545.12" y2="309.84" gradientTransform="matrix(1, 0, 0, 1, 0, 0)" xlink:href="#linear-gradient"/><linearGradient id="linear-gradient-139" x1="438.04" y1="240.45" x2="541.29" y2="256.69" gradientTransform="matrix(1, 0, 0, 1, 0, 0)" xlink:href="#linear-gradient"/><linearGradient id="linear-gradient-140" x1="537.94" y1="277.12" x2="553.61" y2="279.59" gradientTransform="matrix(1, 0, 0, 1, 0, 0)" xlink:href="#linear-gradient"/><linearGradient id="linear-gradient-141" x1="492.48" y1="323.56" x2="513.24" y2="326.83" gradientTransform="matrix(1, 0, 0, 1, 0, 0)" xlink:href="#linear-gradient"/><linearGradient id="linear-gradient-142" x1="445.94" y1="284.58" x2="491.16" y2="291.7" gradientTransform="matrix(1, 0, 0, 1, 0, 0)" xlink:href="#linear-gradient"/><linearGradient id="linear-gradient-143" x1="479.73" y1="175.52" x2="479.73" y2="175.52" xlink:href="#linear-gradient-108"/><linearGradient id="linear-gradient-144" x1="523.61" y1="329.63" x2="422.76" y2="329.63" gradientUnits="userSpaceOnUse"><stop offset="0" stop-color="#6d39e2"/><stop offset="1" stop-color="#7c31ff"/></linearGradient></defs><g class="cls-1"><g id="Layer_1" data-name="Layer 1"><g id="_13" data-name="13"><polygon class="cls-2" points="200.03 164.27 131.7 123.65 92.18 128.18 61.07 110.08 69.29 87.34 55.88 79.54 57.7 76.41 73.72 85.73 65.5 108.47 92.96 124.44 132.5 119.92 201.88 161.16 200.03 164.27"/><polygon class="cls-3" points="217.02 155.05 164.69 125.02 172 103.55 149 90.18 131.37 100.28 128.31 116.06 98.96 119.35 76.63 106.36 83.69 85.87 28.72 53.8 30.55 50.67 88.08 84.24 81.02 104.73 99.74 115.62 125.26 112.75 128.12 97.96 149.02 85.99 176.38 101.91 169.08 123.36 218.82 151.9 217.02 155.05"/><polygon class="cls-4" points="196.88 171.76 129.36 132.58 86.79 137.46 46.23 113.87 55.08 89.37 33.25 76.67 35.08 73.54 59.52 87.76 50.66 112.26 87.58 133.72 130.14 128.84 198.7 168.62 196.88 171.76"/><polygon class="cls-5" points="235.78 155.05 179.64 122.72 187.4 101.84 149.49 79.78 132.78 89.36 87.12 62.67 88.94 59.54 132.8 85.17 149.5 75.6 191.86 100.24 184.11 121.11 237.59 151.91 235.78 155.05"/><polygon class="cls-6" points="242.55 142.42 196.82 115.77 201.78 98.18 148.85 67.39 130.95 78.02 114.32 68.35 113.96 58.37 106.09 53.81 107.91 50.67 117.51 56.23 117.87 66.22 130.93 73.82 148.84 63.19 206.03 96.46 201.07 114.05 244.37 139.29 242.55 142.42"/><path class="cls-7" d="M193.42,170.82a10.73,10.73,0,0,1-5.29-1.27,4.83,4.83,0,0,1-2.7-4.1,5.21,5.21,0,0,1,2.94-4.38,12.09,12.09,0,0,1,11.07-.17h0a4.87,4.87,0,0,1,2.71,4.11,5.24,5.24,0,0,1-3,4.38A11.74,11.74,0,0,1,193.42,170.82Zm.75-7.56a8.24,8.24,0,0,0-4,.94c-.79.46-1.14,1-1.14,1.24s.35.66.89,1a8.49,8.49,0,0,0,7.45-.16c.78-.45,1.13-.95,1.13-1.24s-.35-.65-.89-1h0A7.08,7.08,0,0,0,194.17,163.26Z" transform="translate(-162.78 -92.66)"/><path class="cls-8" d="M188.78,148a10.82,10.82,0,0,1-5.28-1.26,4.87,4.87,0,0,1-2.71-4.11,5.24,5.24,0,0,1,3-4.38,12.06,12.06,0,0,1,11.07-.16h0a4.81,4.81,0,0,1,2.7,4.1,5.21,5.21,0,0,1-2.94,4.38A11.78,11.78,0,0,1,188.78,148Zm.76-7.55a8.17,8.17,0,0,0-4,.94c-.78.45-1.13.95-1.13,1.24s.35.66.89,1a8.53,8.53,0,0,0,7.44-.16c.79-.46,1.14-1,1.14-1.24s-.35-.66-.89-1A7.08,7.08,0,0,0,189.54,140.43Z" transform="translate(-162.78 -92.66)"/><path class="cls-9" d="M215.06,174a10.79,10.79,0,0,1-5.28-1.26,4.85,4.85,0,0,1-2.71-4.11,5.23,5.23,0,0,1,2.94-4.38,12.08,12.08,0,0,1,11.08-.16,4.83,4.83,0,0,1,2.7,4.1,5.23,5.23,0,0,1-2.94,4.38A11.78,11.78,0,0,1,215.06,174Zm.75-7.55a8.16,8.16,0,0,0-4,.94c-.79.45-1.14,1-1.14,1.24s.35.65.89,1a8.49,8.49,0,0,0,7.45-.16c.79-.45,1.14-1,1.14-1.23s-.35-.66-.89-1h0A7.09,7.09,0,0,0,215.81,166.45Z" transform="translate(-162.78 -92.66)"/><path class="cls-10" d="M246.59,157.22A10.75,10.75,0,0,1,241.3,156a4.84,4.84,0,0,1-2.7-4.1,5.22,5.22,0,0,1,2.94-4.38,12.09,12.09,0,0,1,11.07-.17h0a4.84,4.84,0,0,1,2.71,4.1,5.25,5.25,0,0,1-2.94,4.39A11.77,11.77,0,0,1,246.59,157.22Zm.75-7.55a8.27,8.27,0,0,0-4,.94c-.79.46-1.14.95-1.14,1.24s.35.66.89,1a8.52,8.52,0,0,0,7.45-.16c.78-.46,1.14-.95,1.14-1.24s-.35-.66-.89-1h0A7.23,7.23,0,0,0,247.34,149.67Z" transform="translate(-162.78 -92.66)"/><path class="cls-11" d="M266.48,148a10.82,10.82,0,0,1-5.28-1.26,4.85,4.85,0,0,1-2.71-4.11,5.24,5.24,0,0,1,2.95-4.38,12.06,12.06,0,0,1,11.07-.16h0a4.83,4.83,0,0,1,2.7,4.1,5.21,5.21,0,0,1-2.94,4.38A11.78,11.78,0,0,1,266.48,148Zm.76-7.55a8.17,8.17,0,0,0-4,.94c-.78.45-1.13.95-1.13,1.24s.35.66.89,1a8.53,8.53,0,0,0,7.44-.16c.79-.46,1.14-1,1.14-1.24s-.35-.66-.89-1h0A7.08,7.08,0,0,0,267.24,140.43Z" transform="translate(-162.78 -92.66)"/></g><g id="_12" data-name="12"><polygon class="cls-12" points="485.82 352.83 473.44 345.63 433.91 350.15 402.8 332.05 411.02 309.31 379.25 290.83 381.07 287.69 415.46 307.7 407.24 330.44 434.7 346.42 474.22 341.89 487.64 349.7 485.82 352.83"/><polygon class="cls-13" points="527.69 359.36 506.42 346.98 513.73 325.52 490.74 312.15 473.1 322.25 470.05 338.03 440.69 341.32 418.36 328.33 425.42 307.84 366.13 273.35 367.95 270.22 429.81 306.21 422.76 326.7 441.48 337.59 467 334.72 469.86 319.94 490.75 307.96 518.12 323.88 510.81 345.34 529.51 356.23 527.69 359.36"/><polygon class="cls-14" points="494.78 368.33 471.09 354.55 428.53 359.43 387.96 335.84 396.82 311.34 355.1 287.07 356.92 283.94 401.25 309.73 392.4 334.23 429.31 355.69 471.88 350.82 496.6 365.2 494.78 368.33"/><polygon class="cls-15" points="577.51 377.02 521.38 344.69 529.14 323.81 491.23 301.75 474.51 311.33 399.31 267.38 401.14 264.25 474.53 307.14 491.24 297.57 533.6 322.21 525.84 343.08 579.32 373.88 577.51 377.02"/><polygon class="cls-16" points="565.77 353.57 538.56 337.74 543.51 320.16 490.59 289.37 472.69 299.99 456.05 290.32 455.69 280.34 427.1 263.78 428.92 260.64 459.24 278.2 459.6 288.2 472.67 295.79 490.57 285.16 547.76 318.44 542.8 336.02 567.59 350.44 565.77 353.57"/><path class="cls-17" d="M661.4,468.21a10.75,10.75,0,0,1-5.29-1.27,4.83,4.83,0,0,1-2.7-4.1,5.2,5.2,0,0,1,2.94-4.38,12.09,12.09,0,0,1,11.07-.17h0a4.85,4.85,0,0,1,2.71,4.11,5.24,5.24,0,0,1-2.94,4.38A11.78,11.78,0,0,1,661.4,468.21Zm.75-7.56a8.27,8.27,0,0,0-4,.94c-.79.46-1.14,1-1.14,1.24s.35.66.89,1a8.52,8.52,0,0,0,7.45-.16c.78-.45,1.14-.95,1.14-1.24s-.35-.66-.89-1h0A7.23,7.23,0,0,0,662.15,460.65Z" transform="translate(-162.78 -92.66)"/><path class="cls-18" d="M693.84,459.27a10.86,10.86,0,0,1-5.29-1.26,4.84,4.84,0,0,1-2.7-4.1,5.23,5.23,0,0,1,2.94-4.39,12.09,12.09,0,0,1,11.07-.16,4.84,4.84,0,0,1,2.71,4.1,5.22,5.22,0,0,1-2.94,4.38A11.78,11.78,0,0,1,693.84,459.27Zm.75-7.55a8.27,8.27,0,0,0-4,.94c-.79.46-1.14.95-1.14,1.24s.35.66.89,1a8.52,8.52,0,0,0,7.45-.16c.78-.46,1.14-.95,1.14-1.24s-.35-.66-.89-1A7.2,7.2,0,0,0,694.59,451.72Z" transform="translate(-162.78 -92.66)"/><path class="cls-19" d="M744.32,475.77a10.79,10.79,0,0,1-5.28-1.26,4.85,4.85,0,0,1-2.71-4.11,5.24,5.24,0,0,1,2.94-4.38,12.06,12.06,0,0,1,11.07-.16h0a4.82,4.82,0,0,1,2.71,4.1,5.23,5.23,0,0,1-2.94,4.38A11.78,11.78,0,0,1,744.32,475.77Zm.75-7.55a8.16,8.16,0,0,0-4,.94c-.79.45-1.14.95-1.14,1.24s.35.65.89,1a8.52,8.52,0,0,0,7.45-.15c.79-.46,1.14-1,1.14-1.24s-.35-.66-.89-1h0A7.12,7.12,0,0,0,745.07,468.22Z" transform="translate(-162.78 -92.66)"/><path class="cls-20" d="M732.67,452.83a10.82,10.82,0,0,1-5.28-1.26,4.85,4.85,0,0,1-2.71-4.11,5.24,5.24,0,0,1,3-4.38,12.06,12.06,0,0,1,11.07-.16h0a4.83,4.83,0,0,1,2.7,4.1,5.21,5.21,0,0,1-2.94,4.38A11.78,11.78,0,0,1,732.67,452.83Zm.75-7.55a8.16,8.16,0,0,0-4,.94c-.78.45-1.14.95-1.14,1.24s.35.65.89,1a8.52,8.52,0,0,0,7.45-.15c.79-.46,1.14-1,1.14-1.24s-.35-.66-.89-1h0A7.09,7.09,0,0,0,733.42,445.28Z" transform="translate(-162.78 -92.66)"/><path class="cls-21" d="M652.92,451.67a10.75,10.75,0,0,1-5.29-1.27,4.84,4.84,0,0,1-2.7-4.1,5.2,5.2,0,0,1,2.94-4.38,12.09,12.09,0,0,1,11.07-.17h0a4.84,4.84,0,0,1,2.71,4.11,5.24,5.24,0,0,1-2.95,4.38A11.71,11.71,0,0,1,652.92,451.67Zm.75-7.56a8.24,8.24,0,0,0-4,.94c-.79.46-1.14.95-1.14,1.24s.35.66.89,1a8.52,8.52,0,0,0,7.45-.16c.78-.45,1.13-1,1.13-1.24s-.35-.66-.89-1h0A7.19,7.19,0,0,0,653.67,444.11Z" transform="translate(-162.78 -92.66)"/></g><g id="_11" data-name="11"><polygon class="cls-22" points="84.22 313.98 82.36 310.88 122.02 287.06 123.3 264.93 164.03 240.75 165.88 243.87 126.81 267.06 125.53 289.18 84.22 313.98"/><polygon class="cls-23" points="164.25 329.88 133.99 311.43 135.67 271.73 171.16 250.45 173.02 253.56 139.21 273.83 137.7 309.45 166.14 326.78 164.25 329.88"/></g><g id="_10" data-name="10"><polygon class="cls-24" points="369.01 140.37 367.21 137.22 392.68 122.62 390.28 96.26 408.86 85.44 410.69 88.57 394.1 98.23 396.5 124.6 369.01 140.37"/><polygon class="cls-25" points="376.76 149.45 374.95 146.31 423.37 118.24 461.04 118.07 500.13 141.92 498.25 145.01 460.03 121.7 424.36 121.86 376.76 149.45"/></g><g class="cls-26"><path class="cls-27" d="M324.58,493.36l-19.44-11.27c-2.66-1.54-2.32-4.23.75-6l16.45-9.45c3.08-1.77,7.73-2,10.39-.42l19.45,11.28c2.66,1.54,2.32,4.23-.76,6L335,493C331.9,494.72,327.25,494.91,324.58,493.36Z" transform="translate(-162.78 -92.66)"/></g><path class="cls-28" d="M356.55,465.39l-.13-27.45-57.86-1.14.13,27a1.47,1.47,0,0,0,.84,1.75L325.78,481a5.91,5.91,0,0,0,5.33-.16l24.12-13.59C356.18,466.74,356.62,466,356.55,465.39Z" transform="translate(-162.78 -92.66)"/><path class="cls-29" d="M325.65,453.26,299.4,437.74c-1.36-.8-1.17-2.18.42-3.08l24.12-13.59a5.91,5.91,0,0,1,5.33-.16l26.25,15.52c1.36.81,1.17,2.18-.41,3.08L331,453.1A5.91,5.91,0,0,1,325.65,453.26Z" transform="translate(-162.78 -92.66)"/><path class="cls-30" d="M356.56,430.82V419l-19.46-.44L329.41,414a5.93,5.93,0,0,0-5.34.16l-7,3.93-18.47-.42v11.84a1.6,1.6,0,0,0,.91,1.32l26.25,15.52a5.91,5.91,0,0,0,5.33-.16l24.12-13.59C356.15,432.12,356.6,431.45,356.56,430.82Z" transform="translate(-162.78 -92.66)"/><path class="cls-31" d="M325.78,434.51,299.54,419c-1.36-.81-1.18-2.18.41-3.08l24.12-13.59a5.93,5.93,0,0,1,5.34-.16l26.25,15.52c1.36.8,1.17,2.18-.42,3.07l-24.12,13.6A6,6,0,0,1,325.78,434.51Z" transform="translate(-162.78 -92.66)"/><path class="cls-32" d="M326.62,428l-16.08-9.51c-.83-.49-.72-1.34.26-1.88l14.77-8.33a3.64,3.64,0,0,1,3.27-.1l16.08,9.51c.84.49.72,1.33-.25,1.88l-14.78,8.33A3.64,3.64,0,0,1,326.62,428Z" transform="translate(-162.78 -92.66)"/><path class="cls-33" d="M310.54,418.48l2.68,1.59,12.35-7a3.6,3.6,0,0,1,3.27-.1l13.4,7.92,2.43-1.37c1-.55,1.09-1.39.25-1.88l-16.08-9.51a3.64,3.64,0,0,0-3.27.1L310.8,416.6C309.82,417.14,309.71,418,310.54,418.48Z" transform="translate(-162.78 -92.66)"/><path class="cls-34" d="M325.78,418l-26.25-15.53c-1.36-.8-1.17-2.18.42-3.07l24.12-13.6a5.94,5.94,0,0,1,5.33-.16l26.25,15.52c1.36.81,1.18,2.18-.41,3.08l-24.12,13.59A5.93,5.93,0,0,1,325.78,418Z" transform="translate(-162.78 -92.66)"/><path class="cls-35" d="M355.24,404.28l-24.12,13.59a5.93,5.93,0,0,1-5.34.17l-26.25-15.53a1.6,1.6,0,0,1-.9-1.27v16.6a1.62,1.62,0,0,0,.91,1.32l26.25,15.52a5.93,5.93,0,0,0,5.34-.16l24.12-13.59a2.15,2.15,0,0,0,1.32-1.82V402.55A2.2,2.2,0,0,1,355.24,404.28Z" transform="translate(-162.78 -92.66)"/><path class="cls-36" d="M355.24,404.28l-24.12,13.59a5.93,5.93,0,0,1-5.34.17l-26.25-15.53a1.6,1.6,0,0,1-.9-1.27v16.6a1.62,1.62,0,0,0,.91,1.32l26.25,15.52a5.93,5.93,0,0,0,5.34-.16l24.12-13.59a2.15,2.15,0,0,0,1.32-1.82V402.55A2.2,2.2,0,0,1,355.24,404.28Z" transform="translate(-162.78 -92.66)"/><g class="cls-26"><path class="cls-27" d="M676,280.06l-25.16-14.58c-3.44-2-3-5.47,1-7.76l21.28-12.24c4-2.29,10-2.53,13.44-.53l25.17,14.58c3.44,2,3,5.47-1,7.76l-21.28,12.24C685.5,281.82,679.48,282.06,676,280.06Z" transform="translate(-162.78 -92.66)"/></g><g id="_7" data-name="7"><path class="cls-37" d="M721.27,244.66V136.07l-81.92-1.62V242.36a2.08,2.08,0,0,0,1.19,2.47l37.16,22a8.42,8.42,0,0,0,7.56-.24l34.15-19.24C720.75,246.58,721.38,245.58,721.27,244.66Z" transform="translate(-162.78 -92.66)"/><path class="cls-38" d="M677.7,157.76l-37.16-22c-1.92-1.14-1.66-3.09.59-4.35l34.15-19.25c2.25-1.26,5.63-1.37,7.56-.23l37.16,22c1.92,1.14,1.66,3.09-.59,4.35l-34.15,19.25C683,158.79,679.63,158.9,677.7,157.76Z" transform="translate(-162.78 -92.66)"/><path class="cls-39" d="M678.89,148.49,656.12,135c-1.18-.7-1-1.89.36-2.67l20.92-11.79a5.16,5.16,0,0,1,4.63-.14l22.77,13.46c1.18.7,1,1.9-.36,2.67l-20.92,11.79A5.16,5.16,0,0,1,678.89,148.49Z" transform="translate(-162.78 -92.66)"/><path class="cls-40" d="M671.3,234.09a4.92,4.92,0,0,0-2-4l-27.65-16.33a1.38,1.38,0,0,0-1.38-.13h0l-.16.1-6.88,4.09L663.36,240l6.95-4.15a1.24,1.24,0,0,0,.43-.25h0A2,2,0,0,0,671.3,234.09Z" transform="translate(-162.78 -92.66)"/><path class="cls-41" d="M662.11,239.8l-27.66-16.33a5,5,0,0,1-2-4h0c0-1.53,1-2.21,2.17-1.52l27.65,16.33a4.93,4.93,0,0,1,2,4h0C664.24,239.8,663.27,240.49,662.11,239.8Z" transform="translate(-162.78 -92.66)"/><path class="cls-42" d="M671.21,221.93a5,5,0,0,0-2.05-4l-27.65-16.33a1.38,1.38,0,0,0-1.38-.13h0l-.16.1-6.88,4.09,30.17,22.18,7-4.15a1,1,0,0,0,.42-.25h0A2,2,0,0,0,671.21,221.93Z" transform="translate(-162.78 -92.66)"/><path class="cls-43" d="M662,227.64l-27.66-16.33a5,5,0,0,1-2-4h0c0-1.53,1-2.21,2.17-1.52l27.65,16.33a5,5,0,0,1,2,4h0C664.14,227.65,663.17,228.33,662,227.64Z" transform="translate(-162.78 -92.66)"/><path class="cls-44" d="M671.29,209.77a4.94,4.94,0,0,0-2-4l-27.65-16.34a1.4,1.4,0,0,0-1.38-.12h0a.51.51,0,0,0-.16.09l-6.88,4.09,30.17,22.18,6.95-4.15a1,1,0,0,0,.43-.25h0A2,2,0,0,0,671.29,209.77Z" transform="translate(-162.78 -92.66)"/><path class="cls-45" d="M662.09,215.48l-27.66-16.33a4.93,4.93,0,0,1-2-4h0c0-1.52,1-2.21,2.17-1.52L662.21,210a5,5,0,0,1,2,4h0C664.22,215.49,663.25,216.17,662.09,215.48Z" transform="translate(-162.78 -92.66)"/><path class="cls-46" d="M671.25,197.58a5,5,0,0,0-2-4l-27.65-16.33a1.38,1.38,0,0,0-1.38-.13h0l-.16.1-6.88,4.09,30.17,22.18,7-4.15a1.3,1.3,0,0,0,.42-.25h0A2,2,0,0,0,671.25,197.58Z" transform="translate(-162.78 -92.66)"/><path class="cls-47" d="M662.05,203.29,634.39,187a5,5,0,0,1-2-4h0c0-1.53,1-2.21,2.17-1.52l27.65,16.33a4.93,4.93,0,0,1,2,4h0C664.18,203.29,663.21,204,662.05,203.29Z" transform="translate(-162.78 -92.66)"/><path class="cls-48" d="M671.32,185.42a4.93,4.93,0,0,0-2-4l-27.65-16.33a1.4,1.4,0,0,0-1.38-.13h0l-.16.1-6.88,4.09,30.17,22.18,7-4.15a1,1,0,0,0,.43-.25h0A2,2,0,0,0,671.32,185.42Z" transform="translate(-162.78 -92.66)"/><path class="cls-49" d="M662.13,191.13,634.47,174.8a5,5,0,0,1-2-4h0c0-1.53,1-2.21,2.17-1.52l27.65,16.33a5,5,0,0,1,2,4h0C664.26,191.14,663.29,191.82,662.13,191.13Z" transform="translate(-162.78 -92.66)"/><path class="cls-50" d="M671.32,173.27a4.9,4.9,0,0,0-2-4l-27.65-16.33a1.38,1.38,0,0,0-1.38-.13h0a.83.83,0,0,0-.16.09L633.21,157l30.17,22.19,7-4.16a1,1,0,0,0,.43-.25h0A2,2,0,0,0,671.32,173.27Z" transform="translate(-162.78 -92.66)"/><path class="cls-51" d="M662.13,179l-27.66-16.33a4.93,4.93,0,0,1-2-4h0c0-1.52,1-2.21,2.17-1.52l27.65,16.33a5,5,0,0,1,2,4h0C664.26,179,663.29,179.66,662.13,179Z" transform="translate(-162.78 -92.66)"/><path class="cls-52" d="M656.12,135.06l3.8,2.25,17.48-9.85a5.16,5.16,0,0,1,4.63-.15l19,11.22,3.43-1.93c1.38-.78,1.54-2,.36-2.67L682,120.46a5.16,5.16,0,0,0-4.63.15L656.48,132.4C655.1,133.17,654.94,134.37,656.12,135.06Z" transform="translate(-162.78 -92.66)"/><polygon class="cls-53" points="552.63 65.78 526.71 80.74 526.71 76.71 552.63 61.75 552.63 65.78"/><polygon class="cls-54" points="552.63 73.52 544.68 78.11 544.68 74.08 552.63 69.49 552.63 73.52"/><polygon class="cls-55" points="541.66 79.85 526.71 88.48 526.71 84.45 541.66 75.83 541.66 79.85"/><polygon class="cls-56" points="552.63 80.97 534.18 91.64 534.18 87.61 552.63 76.94 552.63 80.97"/><polygon class="cls-57" points="531.16 93.38 526.71 95.93 526.71 91.9 531.16 89.36 531.16 93.38"/><polygon class="cls-58" points="552.63 88.75 526.71 103.71 526.71 99.68 552.63 84.72 552.63 88.75"/><polygon class="cls-59" points="552.63 96.52 544.68 101.11 544.68 97.08 552.63 92.49 552.63 96.52"/><polygon class="cls-60" points="541.66 102.85 526.71 111.48 526.71 107.45 541.66 98.82 541.66 102.85"/><polygon class="cls-61" points="552.63 103.96 534.18 114.64 534.18 110.61 552.63 99.93 552.63 103.96"/><polygon class="cls-62" points="531.16 116.38 526.71 118.92 526.71 114.9 531.16 112.35 531.16 116.38"/><polygon class="cls-63" points="552.63 111.33 526.71 126.3 526.71 122.27 552.63 107.31 552.63 111.33"/><polygon class="cls-64" points="552.63 119.08 544.68 123.66 544.68 119.64 552.63 115.05 552.63 119.08"/><polygon class="cls-65" points="541.66 125.41 526.71 134.04 526.71 130.01 541.66 121.38 541.66 125.41"/><polygon class="cls-66" points="552.63 126.52 534.18 137.19 534.18 133.17 552.63 122.49 552.63 126.52"/><polygon class="cls-67" points="531.16 138.94 526.71 141.48 526.71 137.45 531.16 134.91 531.16 138.94"/><polygon class="cls-68" points="552.63 134.3 526.71 149.26 526.71 145.24 552.63 130.27 552.63 134.3"/></g><g id="_7-2" data-name="7"><polygon class="cls-69" points="230.54 387.15 228.7 384.03 250.56 371.13 225.11 356.11 202.08 356.54 193.71 361.05 193.65 356.85 201.08 352.93 226.07 352.47 257.69 371.13 230.54 387.15"/><path class="cls-70" d="M386.84,485.38a10.83,10.83,0,0,1-5.29-1.26,4.86,4.86,0,0,1-2.71-4.1,5.21,5.21,0,0,1,3-4.38,12.06,12.06,0,0,1,11.07-.17h0a4.86,4.86,0,0,1,2.71,4.1,5.21,5.21,0,0,1-2.95,4.38A11.76,11.76,0,0,1,386.84,485.38Zm.75-7.55a8.21,8.21,0,0,0-4,.94c-.79.46-1.14,1-1.14,1.24s.35.66.89,1a8.5,8.5,0,0,0,7.44-.16c.79-.46,1.14-.95,1.14-1.24s-.35-.66-.89-1h0A7.19,7.19,0,0,0,387.59,477.83Z" transform="translate(-162.78 -92.66)"/></g><g id="_6" data-name="6"><polygon class="cls-71" points="34.7 202.71 30.08 180.16 55.37 166.21 71.71 175.82 69.87 178.95 55.31 170.38 34.17 182.05 38.25 201.98 34.7 202.71"/><path class="cls-72" d="M237.06,278.16a10.64,10.64,0,0,1-5.29-1.26,4.84,4.84,0,0,1-2.7-4.1,5.2,5.2,0,0,1,2.94-4.38,12.09,12.09,0,0,1,11.07-.17,4.85,4.85,0,0,1,2.71,4.11,5.24,5.24,0,0,1-2.94,4.38A11.77,11.77,0,0,1,237.06,278.16Zm.75-7.55a8.27,8.27,0,0,0-4,.94c-.79.46-1.14.95-1.14,1.24s.35.66.89,1a8.52,8.52,0,0,0,7.45-.16c.78-.45,1.14-1,1.14-1.24s-.35-.66-.89-1h0A7.23,7.23,0,0,0,237.81,270.61Z" transform="translate(-162.78 -92.66)"/><polygon class="cls-73" points="27.37 255.98 19.32 210.33 53.19 190.42 72.36 201.92 70.49 205.03 53.17 194.64 23.33 212.18 30.94 255.35 27.37 255.98"/><path class="cls-74" d="M237.79,304.06a10.73,10.73,0,0,1-5.29-1.27,4.86,4.86,0,0,1-2.71-4.1,5.22,5.22,0,0,1,3-4.38,12.09,12.09,0,0,1,11.07-.17h0a4.87,4.87,0,0,1,2.71,4.11,5.26,5.26,0,0,1-3,4.38A11.76,11.76,0,0,1,237.79,304.06Zm.75-7.56a8.21,8.21,0,0,0-4,.94c-.79.46-1.14,1-1.14,1.24s.35.66.89,1a8.5,8.5,0,0,0,7.44-.16c.79-.45,1.14-.95,1.14-1.24s-.35-.65-.89-1A7.19,7.19,0,0,0,238.54,296.5Z" transform="translate(-162.78 -92.66)"/></g><g id="_5" data-name="5"><g class="cls-75"><path class="cls-76" d="M208.06,460.36l-26.82-15.54c-3.67-2.13-3.2-5.83,1-8.27l22.67-13c4.25-2.44,10.66-2.7,14.33-.57l26.82,15.55c3.67,2.12,3.2,5.83-1,8.27l-22.68,13C218.14,462.24,211.73,462.49,208.06,460.36Z" transform="translate(-162.78 -92.66)"/></g><path class="cls-77" d="M258.57,424.51V336.28l-88.25-1.74V422a2.24,2.24,0,0,0,1.29,2.66l40,23.68c2.07,1.22,5.72,1.11,8.14-.26l36.79-20.73C258,426.58,258.69,425.51,258.57,424.51Z" transform="translate(-162.78 -92.66)"/><path class="cls-78" d="M211.64,359.64,171.6,336c-2.07-1.23-1.79-3.33.64-4.69L209,310.55c2.42-1.37,6.06-1.48,8.14-.26l40,23.68c2.08,1.23,1.79,3.33-.63,4.69l-36.79,20.73C217.36,360.76,213.71,360.87,211.64,359.64Z" transform="translate(-162.78 -92.66)"/><path class="cls-79" d="M212.92,349.65l-24.53-14.5c-1.27-.75-1.1-2,.39-2.88l22.54-12.7a5.55,5.55,0,0,1,5-.15l24.53,14.5c1.27.75,1.1,2-.39,2.88L217.9,349.5A5.52,5.52,0,0,1,212.92,349.65Z" transform="translate(-162.78 -92.66)"/><path class="cls-80" d="M204.72,415.68a5.27,5.27,0,0,0-2.2-4.32l-29.79-17.59a1.45,1.45,0,0,0-1.48-.14h0l-.18.1-7.4,4.41L196.16,422l7.5-4.48a1.24,1.24,0,0,0,.46-.26h0A2.18,2.18,0,0,0,204.72,415.68Z" transform="translate(-162.78 -92.66)"/><path class="cls-81" d="M194.81,421.83,165,404.24a5.34,5.34,0,0,1-2.2-4.32h0c0-1.65,1.08-2.38,2.34-1.64L195,415.87a5.33,5.33,0,0,1,2.2,4.32h0C197.11,421.83,196.06,422.57,194.81,421.83Z" transform="translate(-162.78 -92.66)"/><path class="cls-82" d="M204.68,402.54a5.3,5.3,0,0,0-2.2-4.31l-29.79-17.6a1.49,1.49,0,0,0-1.48-.14h0a.78.78,0,0,0-.18.11l-7.41,4.4,32.5,23.9,7.49-4.47a1.12,1.12,0,0,0,.46-.27h0A2.19,2.19,0,0,0,204.68,402.54Z" transform="translate(-162.78 -92.66)"/><path class="cls-83" d="M194.77,408.69,165,391.1a5.3,5.3,0,0,1-2.2-4.32h0c0-1.64,1.08-2.38,2.33-1.64l29.79,17.59a5.32,5.32,0,0,1,2.2,4.32h0C197.07,408.7,196,409.43,194.77,408.69Z" transform="translate(-162.78 -92.66)"/><path class="cls-84" d="M204.77,389.45a5.33,5.33,0,0,0-2.2-4.32l-29.79-17.6a1.48,1.48,0,0,0-1.49-.13h0l-.18.1-7.4,4.41L196.2,395.8l7.5-4.47a1.27,1.27,0,0,0,.46-.27h0A2.16,2.16,0,0,0,204.77,389.45Z" transform="translate(-162.78 -92.66)"/><path class="cls-85" d="M194.86,395.6,165.07,378a5.27,5.27,0,0,1-2.2-4.32h0c0-1.64,1.08-2.38,2.33-1.64L195,389.64a5.3,5.3,0,0,1,2.2,4.32h0C197.15,395.6,196.11,396.34,194.86,395.6Z" transform="translate(-162.78 -92.66)"/><path class="cls-86" d="M204.77,376.35a5.33,5.33,0,0,0-2.2-4.32l-29.79-17.59a1.46,1.46,0,0,0-1.49-.14h0l-.18.1-7.4,4.41L196.2,382.7l7.5-4.47a1.14,1.14,0,0,0,.46-.27h0A2.14,2.14,0,0,0,204.77,376.35Z" transform="translate(-162.78 -92.66)"/><path class="cls-87" d="M194.86,382.5l-29.79-17.6a5.26,5.26,0,0,1-2.2-4.31h0c0-1.65,1.08-2.38,2.33-1.65L195,376.54a5.3,5.3,0,0,1,2.2,4.32h0C197.15,382.5,196.11,383.24,194.86,382.5Z" transform="translate(-162.78 -92.66)"/><path class="cls-88" d="M188.39,335.19l4.09,2.42L211.32,327a5.52,5.52,0,0,1,5-.16l20.44,12.09,3.7-2.09c1.49-.83,1.66-2.12.39-2.87L216.3,319.46a5.52,5.52,0,0,0-5,.16l-22.54,12.7C187.29,333.16,187.12,334.44,188.39,335.19Z" transform="translate(-162.78 -92.66)"/><polygon class="cls-89" points="89.48 267.72 61.56 283.83 61.56 279.5 89.48 263.38 89.48 267.72"/><polygon class="cls-90" points="89.48 276.06 80.91 281 80.91 276.66 89.48 271.72 89.48 276.06"/><polygon class="cls-91" points="77.66 282.88 61.56 292.17 61.56 287.83 77.66 278.54 77.66 282.88"/><polygon class="cls-92" points="89.48 284.08 69.61 295.57 69.61 291.24 89.48 279.74 89.48 284.08"/><polygon class="cls-93" points="66.36 297.45 61.56 300.19 61.56 295.86 66.36 293.12 66.36 297.45"/><polygon class="cls-94" points="89.48 292.46 61.56 308.58 61.56 304.24 89.48 288.12 89.48 292.46"/><polygon class="cls-95" points="89.48 300.83 80.91 305.77 80.91 301.44 89.48 296.49 89.48 300.83"/><polygon class="cls-96" points="77.66 307.65 61.56 316.95 61.56 312.61 77.66 303.31 77.66 307.65"/><polygon class="cls-97" points="89.48 308.85 69.61 320.35 69.61 316.01 89.48 304.51 89.48 308.85"/><polygon class="cls-98" points="66.36 322.23 61.56 324.97 61.56 320.63 66.36 317.89 66.36 322.23"/><polygon class="cls-99" points="89.48 316.79 61.56 332.91 61.56 328.57 89.48 312.45 89.48 316.79"/></g><g id="_4" data-name="4"><polygon class="cls-100" points="569.7 210.36 566.15 209.63 571.58 183.08 538.89 164.44 542.61 162.39 575.66 181.24 569.7 210.36"/><path class="cls-101" d="M729.48,311.32a10.86,10.86,0,0,1-5.29-1.26,4.86,4.86,0,0,1-2.7-4.11,5.21,5.21,0,0,1,2.94-4.38,12.09,12.09,0,0,1,11.07-.17h0a4.85,4.85,0,0,1,2.71,4.11,5.24,5.24,0,0,1-3,4.38A11.71,11.71,0,0,1,729.48,311.32Zm.75-7.56a8.27,8.27,0,0,0-4,.94c-.79.46-1.14,1-1.14,1.24s.35.66.89,1a8.49,8.49,0,0,0,7.45-.16c.78-.45,1.14-.95,1.14-1.24s-.35-.65-.89-1h0A7.12,7.12,0,0,0,730.23,303.76Z" transform="translate(-162.78 -92.66)"/><polygon class="cls-102" points="540.12 234.52 536.55 233.86 543.08 198.81 571.35 188.5 572.59 191.9 546.27 201.5 540.12 234.52"/><path class="cls-103" d="M699.61,336.19a10.82,10.82,0,0,1-5.28-1.26,4.87,4.87,0,0,1-2.71-4.11,5.24,5.24,0,0,1,3-4.38,12.06,12.06,0,0,1,11.07-.16,4.83,4.83,0,0,1,2.7,4.1,5.2,5.2,0,0,1-2.94,4.38A11.78,11.78,0,0,1,699.61,336.19Zm.76-7.55a8.17,8.17,0,0,0-4,.94c-.78.45-1.14.95-1.13,1.24s.35.66.88,1a8.55,8.55,0,0,0,7.45-.16c.79-.46,1.14-.95,1.14-1.24s-.35-.66-.89-1A7.19,7.19,0,0,0,700.37,328.64Z" transform="translate(-162.78 -92.66)"/></g><g id="_3" data-name="3"><polygon class="cls-104" points="396.5 67.35 385.05 60.9 351.86 54.44 338.13 62.25 336.34 59.1 351.23 50.63 386.31 57.46 398.28 64.19 396.5 67.35"/><path class="cls-105" d="M494.89,161.68a10.69,10.69,0,0,1-5.28-1.27,4.82,4.82,0,0,1-2.71-4.1,5.23,5.23,0,0,1,2.94-4.38,12.09,12.09,0,0,1,11.07-.17,4.85,4.85,0,0,1,2.71,4.11,5.22,5.22,0,0,1-2.94,4.38A11.78,11.78,0,0,1,494.89,161.68Zm.75-7.56a8.27,8.27,0,0,0-4,.94c-.78.46-1.14.95-1.14,1.24s.35.66.89,1a8.49,8.49,0,0,0,7.45-.16c.79-.45,1.14-1,1.14-1.24s-.35-.66-.89-1h0A7.2,7.2,0,0,0,495.64,154.12Z" transform="translate(-162.78 -92.66)"/></g><g id="_2" data-name="2"><g class="cls-26"><path class="cls-27" d="M569.7,198.87,550.26,187.6c-2.67-1.55-2.33-4.23.75-6l16.45-9.46c3.07-1.77,7.73-1.95,10.39-.41L597.29,183c2.67,1.54,2.33,4.23-.75,6l-16.45,9.46C577,200.23,572.36,200.41,569.7,198.87Z" transform="translate(-162.78 -92.66)"/></g><path class="cls-106" d="M602.59,172.92l-.13-27.44-57.86-1.14.13,27a1.49,1.49,0,0,0,.84,1.75l26.25,15.52a5.93,5.93,0,0,0,5.34-.17l24.12-13.59C602.22,174.28,602.67,173.58,602.59,172.92Z" transform="translate(-162.78 -92.66)"/><path class="cls-107" d="M571.69,160.8l-26.25-15.52c-1.36-.81-1.17-2.18.42-3.08L570,128.61a5.93,5.93,0,0,1,5.34-.17L601.56,144c1.36.8,1.18,2.18-.41,3.07L577,160.63A5.93,5.93,0,0,1,571.69,160.8Z" transform="translate(-162.78 -92.66)"/><path class="cls-108" d="M602.61,138.36v-11.8l-19.47-.44-7.69-4.55a5.91,5.91,0,0,0-5.33.17l-7,3.93-18.47-.42v11.83a1.62,1.62,0,0,0,.91,1.33l26.25,15.52a5.93,5.93,0,0,0,5.34-.17l24.12-13.59A2.15,2.15,0,0,0,602.61,138.36Z" transform="translate(-162.78 -92.66)"/><path class="cls-109" d="M571.83,142.05l-26.25-15.53c-1.36-.8-1.17-2.18.41-3.07l24.12-13.59a5.93,5.93,0,0,1,5.34-.17l26.25,15.52c1.36.81,1.17,2.19-.42,3.08l-24.12,13.59A5.91,5.91,0,0,1,571.83,142.05Z" transform="translate(-162.78 -92.66)"/><path class="cls-110" d="M572.66,135.5,556.58,126c-.83-.5-.71-1.34.26-1.89l14.78-8.32a3.64,3.64,0,0,1,3.27-.11L591,125.18c.83.5.71,1.34-.26,1.89l-14.78,8.33A3.67,3.67,0,0,1,572.66,135.5Z" transform="translate(-162.78 -92.66)"/><path class="cls-111" d="M556.58,126l2.69,1.58,12.35-7a3.65,3.65,0,0,1,3.26-.1l13.4,7.93,2.43-1.37c1-.55,1.09-1.39.26-1.89l-16.09-9.51a3.62,3.62,0,0,0-3.26.11l-14.78,8.32C555.87,124.68,555.75,125.52,556.58,126Z" transform="translate(-162.78 -92.66)"/><path class="cls-34" d="M571.82,125.57l-26.25-15.52c-1.35-.8-1.17-2.18.42-3.08l24.12-13.59a5.93,5.93,0,0,1,5.34-.16l26.25,15.52c1.36.8,1.17,2.18-.42,3.07l-24.12,13.6A5.93,5.93,0,0,1,571.82,125.57Z" transform="translate(-162.78 -92.66)"/><path class="cls-112" d="M601.28,111.82l-24.12,13.59a5.93,5.93,0,0,1-5.34.16l-26.25-15.52a1.62,1.62,0,0,1-.9-1.27v16.59a1.59,1.59,0,0,0,.9,1.33l26.25,15.52a5.93,5.93,0,0,0,5.34-.17l24.12-13.59a2.11,2.11,0,0,0,1.32-1.81V110.08A2.18,2.18,0,0,1,601.28,111.82Z" transform="translate(-162.78 -92.66)"/><path class="cls-113" d="M601.28,111.82l-24.12,13.59a5.93,5.93,0,0,1-5.34.16l-26.25-15.52a1.62,1.62,0,0,1-.9-1.27v16.59a1.59,1.59,0,0,0,.9,1.33l26.25,15.52a5.93,5.93,0,0,0,5.34-.17l24.12-13.59a2.11,2.11,0,0,0,1.32-1.81V110.08A2.18,2.18,0,0,1,601.28,111.82Z" transform="translate(-162.78 -92.66)"/></g><g id="_1" data-name="1"><path class="cls-27" d="M443.2,431.52,322.55,361.58c-16.5-9.57-14.4-26.22,4.7-37.21l102-58.66c19.1-11,48-12.12,64.46-2.56l120.65,69.94c16.5,9.56,14.4,26.22-4.7,37.21L507.66,429C488.56,439.94,459.7,441.08,443.2,431.52Z" transform="translate(-162.78 -92.66)"/><path class="cls-114" d="M642.64,314.73l-.13-24.11L619,290.5,495.2,218.76c-18.47-10.71-50.77-9.43-72.14,2.86L308.91,287.26c-.93.54-1.82,1.1-2.68,1.66l-15-.08v22.34h0c.15,6.64,4.23,13,12.44,17.72l135,78.26c18.47,10.7,50.77,9.42,72.14-2.87L625,338.65c11.87-6.83,17.87-15.62,17.68-23.92Z" transform="translate(-162.78 -92.66)"/><path class="cls-115" d="M438.66,384.82l-135-78.26c-18.47-10.71-16.12-29.35,5.25-41.64l114.15-65.64c21.37-12.29,53.67-13.57,72.14-2.86l135,78.25c18.47,10.71,16.12,29.35-5.25,41.64L510.8,382C489.43,394.24,457.13,395.52,438.66,384.82Z" transform="translate(-162.78 -92.66)"/><path class="cls-116" d="M442.08,303.45c-8.08-4.66-8.43-12-.79-16.46L466.7,272.3c7.65-4.42,20.43-4.23,28.51.43s8.43,12,.79,16.45l-25.41,14.7C462.94,308.3,450.16,308.11,442.08,303.45Zm50.17-29c-6.35-3.66-16.41-3.81-22.42-.34l-25.41,14.7c-6,3.47-5.73,9.28.62,12.94s16.41,3.81,22.42.33l25.41-14.69C498.88,283.9,498.6,278.1,492.25,274.44Z" transform="translate(-162.78 -92.66)"/><path class="cls-117" d="M442,303.5c-8.08-4.65-8.43-12-.79-16.45l25.41-14.7c7.64-4.42,20.43-4.23,28.51.43s8.43,12,.79,16.46l-25.42,14.69C462.85,308.35,450.07,308.16,442,303.5Zm50.16-29c-6.35-3.66-16.4-3.81-22.41-.34l-25.41,14.7c-6,3.48-5.73,9.28.62,12.94s16.41,3.81,22.41.34l25.42-14.7C498.78,284,498.5,278.15,492.15,274.49Z" transform="translate(-162.78 -92.66)"/><path class="cls-118" d="M454.11,296.49h0c-1.51-.87-1.32-2.4.42-3.41l22.38-12.93a6.56,6.56,0,0,1,5.9-.25h0c1.51.87,1.32,2.4-.43,3.4L460,296.24A6.56,6.56,0,0,1,454.11,296.49Z" transform="translate(-162.78 -92.66)"/><path class="cls-119" d="M430.54,310.12c-14.74-8.49-15.38-22-1.44-30L455.3,265c13.94-8.06,37.27-7.71,52,.78s15.39,22,1.45,30l-26.2,15.15C468.61,319,445.28,318.62,430.54,310.12Zm73.8-42.68c-13-7.49-33.61-7.8-45.91-.69l-26.2,15.15c-12.31,7.12-11.74,19,1.27,26.51s33.61,7.81,45.92.69L505.61,294C517.92,286.83,517.35,274.94,504.34,267.44Z" transform="translate(-162.78 -92.66)"/><path class="cls-120" d="M411.71,320.37a40.46,40.46,0,0,1-13.51-11.81,29,29,0,0,0-8.56-8.05,83.87,83.87,0,0,0-21-8.76l1.46-2.3a87.43,87.43,0,0,1,22.6,9.4,31.43,31.43,0,0,1,9.42,8.8A37.55,37.55,0,0,0,415.22,319c7.28,4.11,13.63,5.91,19.78,7.65,5.92,1.68,11.51,3.26,17.38,6.64l.08.05c12,6.95,12.68,10.93,12.72,11.36h-4.3s-.68-3.45-11.38-9.65c-5.51-3.13-10.63-4.59-16.23-6.18-6.17-1.74-13.16-3.73-21-8.13Z" transform="translate(-162.78 -92.66)"/><path class="cls-121" d="M399.69,327.4c-8.51-4.91-14.37-11.13-18.65-15.68-1.68-1.79-3.14-3.33-4.43-4.46-4.81-4.23-12.18-5.56-12.25-5.58l1.05-2.37c.36.06,9.06,1.64,14.77,6.66,1.4,1.23,2.89,2.81,4.62,4.65,4.14,4.41,9.82,10.43,17.86,15.07,8.64,5,18,7.85,26.32,10.39,2.58.79,5.09,1.56,7.49,2.36,8.54,2.85,11.53,8,11.65,8.24l-4.09.65s-2.61-4.44-9.56-6.75c-2.35-.78-4.81-1.54-7.35-2.31C418.54,335.64,408.83,332.66,399.69,327.4Z" transform="translate(-162.78 -92.66)"/><path class="cls-122" d="M386.61,333.85c-10.51-6.05-17.6-14.74-21.5-19.51a11.53,11.53,0,0,0-3.95-2.77l2.32-2a15.54,15.54,0,0,1,5.51,3.83c3.95,4.83,11.34,13.86,22,19.55A128.61,128.61,0,0,0,420.73,344a53.82,53.82,0,0,1,5.49,1.58,18.7,18.7,0,0,1,5.14,2.81l-3.54,1.31a15.09,15.09,0,0,0-3.85-2.08c-.94-.36-2.65-.8-4.82-1.36a134.15,134.15,0,0,1-31-11.55C387.63,334.43,387.11,334.14,386.61,333.85Z" transform="translate(-162.78 -92.66)"/><path class="cls-123" d="M382,338.3A96.87,96.87,0,0,1,362.64,323l3.76-1.1c.09.09,8.74,9.18,19,15s28.35,10.6,28.53,10.65l-1.63,2.25c-.78-.21-19.1-5.13-29.82-11.17Z" transform="translate(-162.78 -92.66)"/><path class="cls-124" d="M405.05,277.48a42.17,42.17,0,0,1,5.93-4.15l30.25-17.49c21.68-12.54,58-12,80.88,1.21s23.93,34.16,2.25,46.7l-30.25,17.49a55.26,55.26,0,0,1-7.18,3.43l3.17,1.82a60.38,60.38,0,0,0,7.14-3.44l30.25-17.5c23.31-13.48,22.23-36-2.41-50.21s-63.67-14.79-87-1.31l-30.25,17.5a46.17,46.17,0,0,0-6,4.12Z" transform="translate(-162.78 -92.66)"/><path class="cls-125" d="M468.43,341.54l-1.12-1.19a10.39,10.39,0,0,0-4.28-5,51.73,51.73,0,0,0-8.5-3.81l-.87-.29-.51-1.24.89-.6.85-.46,1.4.18c1.76.29,10.84,1.69,17.09.38a46.49,46.49,0,0,0,9.44-2.71l.4-.19,3,1.88-.55.28c-1.87.94-9.32,4.8-11.37,7.62a19,19,0,0,0-2.17,3.59,2.27,2.27,0,0,1-2.25,1.44Zm-3-8.18.66.39a14.11,14.11,0,0,1,3.36,2.85c.26-.4.55-.81.85-1.23a16.38,16.38,0,0,1,3.58-3.25,47.57,47.57,0,0,1-10,.38C464.39,332.78,464.93,333.06,465.44,333.36Z" transform="translate(-162.78 -92.66)"/><path class="cls-126" d="M476.41,339.13a10.86,10.86,0,0,1,4.31-5,41.65,41.65,0,0,1,6-3.44l2.74,2a38,38,0,0,0-5.34,3.09,8.91,8.91,0,0,0-3.43,4Z" transform="translate(-162.78 -92.66)"/><path class="cls-127" d="M377,288.87l.06-.91c.17-1,1.87-1.21,2.51-1.29,1.18-.17,3.23-.51,6.25-1.24,4.38-1.05,10.62-4.83,13.15-6.53.28-.2.47-.31.53-.35l3.25,1.73-.35.24a19.35,19.35,0,0,0-4.6,5.47c-2.22,3.63.34,8.94.88,10l.35.68-1.64,1.13L395,297.5l-.5-.5a35.63,35.63,0,0,0-6.8-5,28.68,28.68,0,0,0-8.74-2.55l-.68-.15Zm16.41-3.24a31.26,31.26,0,0,1-5.76,2.11l-2.14.49a25.56,25.56,0,0,1,5.07,2c.78.42,1.53.87,2.23,1.33A9.53,9.53,0,0,1,393.41,285.63Z" transform="translate(-162.78 -92.66)"/><path class="cls-128" d="M381,284.15l-1-2.45a23.56,23.56,0,0,0,6.88-2,36.86,36.86,0,0,0,5.35-3.08l3.48,1.58a38.73,38.73,0,0,1-6,3.44A29.3,29.3,0,0,1,381,284.15Z" transform="translate(-162.78 -92.66)"/><path class="cls-129" d="M557,286.24c.06-.19,5.56-19.19-21.54-35.48s-61.16-13.55-61.5-13.52l-.87-2.46c1.48-.13,36.63-2.94,65.4,14.3s23,36.9,22.75,37.72Z" transform="translate(-162.78 -92.66)"/><path class="cls-130" d="M532,236.08l2.05-2.13a100.77,100.77,0,0,1,15.73,7.19,64.72,64.72,0,0,1,12.29,9l-3.69,1.17a61.46,61.46,0,0,0-11.56-8.42A95.72,95.72,0,0,0,532,236.08Z" transform="translate(-162.78 -92.66)"/><path class="cls-131" d="M496.61,292.13l-23.43,13.55c-9.13,5.28-24.41,5.05-34.06-.52s-10.08-14.38-.95-19.66l26.12-15.11c9.13-5.28,24.41-5.05,34.07.52,9.29,5.35,10,13.72,1.9,19l3.13,1.8c9.73-6.28,8.94-16.22-2.07-22.57-11.38-6.55-29.39-6.83-40.16-.6L435,283.69c-10.76,6.23-10.26,16.63,1.12,23.19s29.39,6.82,40.15.6l23.43-13.55Z" transform="translate(-162.78 -92.66)"/><path class="cls-132" d="M420.14,305.7c-8.23-8.92-6.3-20,6.09-27.13l26.5-15.33c15.38-8.89,41.12-8.5,57.38.87,6.74,3.88,10.76,8.71,12.12,13.66l4.33,0c-1.42-5.58-5.91-11-13.49-15.4-18-10.36-46.46-10.79-63.47-.95l-26.5,15.32c-14,8.11-15.91,20.69-6.11,30.66Z" transform="translate(-162.78 -92.66)"/><path class="cls-133" d="M527.07,280.9l-4.3,0c.27,6-3.39,11.91-11.07,16.35l-26.5,15.33c-15.38,8.89-41.11,8.5-57.37-.87a35.83,35.83,0,0,1-4.7-3.23l-3.06,1.68a39.7,39.7,0,0,0,4.79,3.27c18,10.36,46.46,10.79,63.48.95L514.83,299C523.34,294.11,527.4,287.54,527.07,280.9Z" transform="translate(-162.78 -92.66)"/><path class="cls-134" d="M430.05,269.8l17.7-10.24c12.11-7,29.61-9.15,45.68-6.6l1-2.38c-17.54-2.8-36.64-.47-49.85,7.18L426.92,268Z" transform="translate(-162.78 -92.66)"/><path class="cls-135" d="M519.15,258.88a69.49,69.49,0,0,0-19.49-7.31l-1,2.38a63.74,63.74,0,0,1,17.57,6.64c19.39,11.18,20.24,28.9,1.89,39.51l-28.23,16.33c-10.26,5.93-24.37,8.4-38.21,7.47l0,2.49c15,.95,30.21-1.74,41.3-8.15l28.24-16.33C541.19,290.35,540.27,271.05,519.15,258.88Z" transform="translate(-162.78 -92.66)"/><path class="cls-136" d="M446.24,323.36a68,68,0,0,1-24.83-8c-19.39-11.17-20.24-28.9-1.9-39.51l6.84-3.95-3.13-1.81-6.84,4c-20,11.55-19.05,30.86,2.07,43,8,4.6,17.72,7.53,27.83,8.77Z" transform="translate(-162.78 -92.66)"/><path class="cls-137" d="M398.34,329.7l-.93-.48c-9.13-4.87-15.81-12.14-20.26-17a34.66,34.66,0,0,0-5-4.86,28.78,28.78,0,0,0-9-3.58L362,306.18a23.11,23.11,0,0,1,7,2.81,36.72,36.72,0,0,1,4.37,4.34c4.35,4.72,10.81,11.71,19.68,16.82.49.29,1,.57,1.52.85l.72.37Z" transform="translate(-162.78 -92.66)"/><path class="cls-138" d="M431.71,342.31a55.09,55.09,0,0,0-6.88-2.2,118.13,118.13,0,0,1-22.32-8.29l-3.06,1.68a125.32,125.32,0,0,0,23.68,8.84,51,51,0,0,1,6.13,1.94,16.48,16.48,0,0,1,6,4.19l3.91-.92A19.59,19.59,0,0,0,431.71,342.31Z" transform="translate(-162.78 -92.66)"/><path class="cls-139" d="M388.37,304a23,23,0,0,0-3.53-2.58,62.6,62.6,0,0,0-16.9-7l-1.26,2.33a59,59,0,0,1,15.2,6.38,19.58,19.58,0,0,1,2.63,1.89Z" transform="translate(-162.78 -92.66)"/><path class="cls-140" d="M447.87,337.81c-5.84-3.52-11.6-5.13-17.65-6.82s-12.44-3.48-19.63-7.53c-8.17-4.62-12.83-9.66-16.9-14.09-.84-.91-1.64-1.77-2.44-2.6l-3.84,1c.81.84,1.63,1.72,2.49,2.65,3.94,4.29,8.81,9.59,17.22,14.44l.55.31c7.72,4.36,14.69,6.31,20.85,8,5.66,1.58,11.05,3.09,16.32,6.27a31.16,31.16,0,0,1,7.78,7.09l3.95-.87A33.69,33.69,0,0,0,447.87,337.81Z" transform="translate(-162.78 -92.66)"/><path class="cls-141" d="M540.5,243.18a104.56,104.56,0,0,0-33.61-10.72l-.6,2.44a100.59,100.59,0,0,1,31.17,9.95Z" transform="translate(-162.78 -92.66)"/><path class="cls-142" d="M544.46,245.41l-3,1.67c15.92,9.51,20,18.71,20.06,18.8l4.19-.46C565.49,265,561.29,255.46,544.46,245.41Z" transform="translate(-162.78 -92.66)"/><path class="cls-143" d="M435.25,252.27c.27-.15.56-.28.83-.43L433,250c-.27.15-.56.27-.83.42l-37.89,21.92c-.44.25-.81.53-1.23.79l3.13,1.81c.42-.26.79-.54,1.23-.79Z" transform="translate(-162.78 -92.66)"/><path class="cls-144" d="M543.17,296.78a42.23,42.23,0,0,1-12.43,10.53l-15.93,9.21,3.14,1.8,15.92-9.21a45,45,0,0,0,13.1-11Z" transform="translate(-162.78 -92.66)"/><path class="cls-145" d="M540.93,258.94a59.88,59.88,0,0,0-9.8-7c-26.45-15.24-67.44-16.69-94.28-3.94l3.13,1.8c25.2-11.81,63.46-10.4,88.19,3.86a57,57,0,0,1,9.14,6.5Z" transform="translate(-162.78 -92.66)"/><path class="cls-146" d="M549,295.25c6.68-10.75,4.91-23.07-5.19-33.59l-3.62,1.23c9.27,9.73,10.93,21.07,5,31Z" transform="translate(-162.78 -92.66)"/><path class="cls-147" d="M511.11,318.66l-18.27,10.56c-.43.26-.92.47-1.36.71l3.13,1.81c.44-.25.93-.46,1.36-.71l18.27-10.57Z" transform="translate(-162.78 -92.66)"/><path class="cls-148" d="M489,276.29c-4.75-2.73-12.27-2.84-16.76-.25L452,287.78l1.93,1.12,1.21.68,20.29-11.73a11.81,11.81,0,0,1,10.67.16c3,1.74,3.15,4.5.29,6.15l-24.68,14.28a11.82,11.82,0,0,1-10.66-.16c-3-1.75-3.15-4.51-.3-6.16l.67-.39-.62-.36-2.5-1.45-.68.4c-4.49,2.59-4.28,6.93.47,9.67s12.26,2.85,16.75.25L489.5,286C494,283.37,493.79,279,489,276.29Z" transform="translate(-162.78 -92.66)"/><g id="_1-2" data-name="1"><path class="cls-34" d="M438.66,362.37l-135-78.25c-18.47-10.71-16.12-29.35,5.25-41.64l114.15-65.64c21.37-12.29,53.67-13.57,72.14-2.87l135,78.26c18.47,10.71,16.12,29.35-5.25,41.64L510.79,359.51C489.42,371.79,457.13,373.08,438.66,362.37Z" transform="translate(-162.78 -92.66)"/><polygon class="cls-149" points="479.73 175.52 479.73 175.51 479.73 175.51 479.73 175.52"/><path class="cls-150" d="M642.53,272.68c-.86,7.6-6.79,15.42-17.58,21.63L510.8,360c-21.37,12.29-53.67,13.57-72.14,2.86l-135-78.25c-8.21-4.76-12.29-11.08-12.44-17.72h0v22.34h0c.15,6.64,4.23,13,12.44,17.72l135,78.25c18.47,10.71,50.77,9.43,72.14-2.86L625,316.65c11.87-6.83,17.87-15.62,17.68-23.92h0Z" transform="translate(-162.78 -92.66)"/></g></g></g></g></svg>