<svg id="Ñëîé_1" data-name="Ñëîé 1" xmlns="http://www.w3.org/2000/svg" viewBox="0 0 242.5 241.05"><defs><style>.cls-1{fill:#efefef;}.cls-2{fill:#553772;}.cls-3{fill:#8f3b76;}.cls-4{fill:#c7517b;}.cls-5{fill:#fff;}.cls-6,.cls-9{fill:#f5487f;}.cls-6{opacity:0.4;}.cls-7{fill:#b9dff9;}.cls-8{fill:#1f306e;}.cls-10{fill:#d4ecff;}.cls-11{fill:#5793ce;}</style></defs><path class="cls-1" d="M123.63,242.16l-116-66.95c-3.28-1.89-2.87-5.2.92-7.39l79-45.57c3.79-2.19,9.52-2.43,12.8-.53l116,66.95c3.28,1.89,2.87,5.2-.92,7.39l-79,45.57C132.64,243.82,126.91,244.06,123.63,242.16Z" transform="translate(-5.44 -2.39)"/><path class="cls-2" d="M243.47,70.06,127.5,3.11a4.65,4.65,0,0,0-3.93-.48v0l-.21.08-.05,0-4.19,1.61,3.76,1.84a1.46,1.46,0,0,0,0,.2L104,92.35c-1,4.3.94,9.32,4.22,11.22l113.18,65.34-.4,4.8,4.58-1.78a6.44,6.44,0,0,0,3.28-4.67l18.89-86C248.64,77,246.75,72,243.47,70.06Z" transform="translate(-5.44 -2.39)"/><path class="cls-3" d="M243.47,70.06,127.5,3.11a4.65,4.65,0,0,0-3.93-.48v0l-.21.08-.05,0-4.19,1.61,3.76,1.84a1.46,1.46,0,0,0,0,.2L110.39,63l56.74,44.21,80-32.56A9,9,0,0,0,243.47,70.06Z" transform="translate(-5.44 -2.39)"/><path class="cls-3" d="M239.1,83.28l8.82-3.76a11,11,0,0,0-3.57-8.84l-14,5.88Z" transform="translate(-5.44 -2.39)"/><path class="cls-4" d="M216.92,173.25,101,106.3c-3.28-1.9-5.17-6.92-4.23-11.22l18.89-86c1-4.3,4.37-6.25,7.66-4.36l116,67c3.28,1.89,5.18,6.91,4.23,11.22l-18.89,86C223.63,173.19,220.2,175.14,216.92,173.25Z" transform="translate(-5.44 -2.39)"/><path class="cls-5" d="M214.41,166.85,105.34,103.92c-3-1.74-4.73-6.33-3.87-10.27L118.76,15c.86-3.94,4-5.73,7-4L234.82,73.91c3,1.74,4.74,6.33,3.87,10.27l-17.28,78.68C220.54,166.8,217.41,168.59,214.41,166.85Z" transform="translate(-5.44 -2.39)"/><path class="cls-6" d="M214.41,166.85,105.34,103.92c-3-1.74-4.73-6.33-3.87-10.27L118.76,15c.86-3.94,4-5.73,7-4L234.82,73.91c3,1.74,4.74,6.33,3.87,10.27l-17.28,78.68C220.54,166.8,217.41,168.59,214.41,166.85Z" transform="translate(-5.44 -2.39)"/><path class="cls-2" d="M218.52,176.17l-15.85-2.1L100.34,115c-3.28-1.89-9-1.65-12.8.53L15,157.37l-9.58-1.26v5.43h0a3.75,3.75,0,0,0,2.2,3.36l116,67c3.28,1.89,9,1.66,12.79-.53l79-45.58c2.13-1.23,3.19-2.81,3.13-4.3h0Z" transform="translate(-5.44 -2.39)"/><path class="cls-3" d="M141.64,138.84l-7.27-4.2H54.44L15,157.37l-9.58-1.26v5.43h0a3.75,3.75,0,0,0,2.2,3.36l116,67a12,12,0,0,0,6.6,1.24Z" transform="translate(-5.44 -2.39)"/><path class="cls-3" d="M9.7,156.67l-4.25-.56v5.43h0a3.75,3.75,0,0,0,2.2,3.36l2,1.18Z" transform="translate(-5.44 -2.39)"/><path class="cls-3" d="M124.79,232.4a14.9,14.9,0,0,0,10.88-.67V219.6H124.79Z" transform="translate(-5.44 -2.39)"/><path class="cls-4" d="M123.63,226.43l-116-67c-3.28-1.89-2.87-5.2.92-7.39l79-45.57c3.79-2.19,9.52-2.43,12.8-.53l116,67c3.28,1.9,2.87,5.2-.92,7.39l-79,45.58C132.64,228.08,126.91,228.32,123.63,226.43Z" transform="translate(-5.44 -2.39)"/><path class="cls-5" d="M215.39,178.33l-79,45.58c-3.78,2.19-9.51,2.42-12.79.53l-116-66.95a4.3,4.3,0,0,1-2-2.23c-.51,1.55.14,3.12,2,4.21l116,67c3.28,1.89,9,1.65,12.79-.53l79-45.58c2.55-1.47,3.56-3.44,3-5.16A6.17,6.17,0,0,1,215.39,178.33Z" transform="translate(-5.44 -2.39)"/><path class="cls-7" d="M57,137.31l-5.25-3c-.42-.24-.36-.67.12-.95l6.2-3.58a1.8,1.8,0,0,1,1.64-.06l5.25,3c.42.24.37.66-.12.94l-6.19,3.58A1.85,1.85,0,0,1,57,137.31Z" transform="translate(-5.44 -2.39)"/><path class="cls-7" d="M65.08,142l-5.24-3c-.42-.25-.37-.67.12-1l6.19-3.58a1.83,1.83,0,0,1,1.64-.07l5.25,3c.42.25.37.67-.12,1l-6.19,3.58A1.85,1.85,0,0,1,65.08,142Z" transform="translate(-5.44 -2.39)"/><path class="cls-7" d="M73.19,146.66l-5.25-3c-.42-.25-.37-.67.12-.95l6.19-3.58A1.85,1.85,0,0,1,75.9,139l5.24,3c.42.24.37.67-.12,1l-6.19,3.58A1.8,1.8,0,0,1,73.19,146.66Z" transform="translate(-5.44 -2.39)"/><path class="cls-7" d="M84.39,142.8l-5.24-3c-.42-.24-.37-.67.12-1l5.19-3a1.85,1.85,0,0,1,1.65-.07l5.25,3c.42.25.36.67-.12.95l-5.2,3A1.85,1.85,0,0,1,84.39,142.8Z" transform="translate(-5.44 -2.39)"/><path class="cls-7" d="M92.5,147.48l-5.25-3c-.42-.24-.37-.67.12-.95l5.2-3a1.83,1.83,0,0,1,1.64-.07l5.25,3c.42.24.37.67-.12.95l-5.2,3A1.83,1.83,0,0,1,92.5,147.48Z" transform="translate(-5.44 -2.39)"/><path class="cls-7" d="M100.6,152.16l-5.25-3c-.42-.25-.36-.67.12-.95l5.2-3a1.83,1.83,0,0,1,1.64-.07l5.25,3c.42.24.37.67-.12,1l-5.2,3A1.83,1.83,0,0,1,100.6,152.16Z" transform="translate(-5.44 -2.39)"/><path class="cls-7" d="M108.7,156.84l-5.24-3c-.42-.25-.37-.67.11-.95l5.2-3a1.79,1.79,0,0,1,1.65-.07l5.24,3c.43.24.37.67-.11,1l-5.2,3A1.85,1.85,0,0,1,108.7,156.84Z" transform="translate(-5.44 -2.39)"/><path class="cls-7" d="M116.81,161.51l-5.25-3c-.42-.24-.37-.66.12-.94l5.2-3a1.8,1.8,0,0,1,1.64-.06l5.25,3c.42.24.37.66-.12.94l-5.2,3A1.8,1.8,0,0,1,116.81,161.51Z" transform="translate(-5.44 -2.39)"/><path class="cls-7" d="M124.91,166.19l-5.25-3c-.42-.24-.37-.67.12-.95l5.2-3a1.83,1.83,0,0,1,1.64-.07l5.25,3c.42.25.37.67-.12,1l-5.2,3A1.8,1.8,0,0,1,124.91,166.19Z" transform="translate(-5.44 -2.39)"/><path class="cls-7" d="M133,170.87l-5.24-3c-.43-.24-.37-.67.11-1l5.2-3a1.85,1.85,0,0,1,1.65-.07l5.24,3c.42.25.37.67-.12,1l-5.19,3A1.85,1.85,0,0,1,133,170.87Z" transform="translate(-5.44 -2.39)"/><path class="cls-7" d="M141.12,175.55l-5.25-3c-.42-.24-.37-.67.12-1l5.2-3a1.83,1.83,0,0,1,1.64-.07l5.25,3c.42.24.36.67-.12.95l-5.2,3A1.83,1.83,0,0,1,141.12,175.55Z" transform="translate(-5.44 -2.39)"/><path class="cls-7" d="M149.22,180.23l-5.25-3c-.42-.25-.37-.67.12-.95l5.2-3a1.83,1.83,0,0,1,1.64-.07l5.25,3c.42.24.37.67-.12.95l-5.2,3A1.83,1.83,0,0,1,149.22,180.23Z" transform="translate(-5.44 -2.39)"/><path class="cls-7" d="M157.32,184.91l-5.25-3c-.42-.25-.36-.67.12-.95l5.2-3a1.77,1.77,0,0,1,1.64-.07l5.25,3c.42.24.37.66-.12,1l-5.2,3A1.83,1.83,0,0,1,157.32,184.91Z" transform="translate(-5.44 -2.39)"/><path class="cls-7" d="M96.33,140.59l-5.24-3c-.42-.25-.37-.67.11-.95l5.2-3a1.82,1.82,0,0,1,1.65-.07l5.24,3c.43.24.37.67-.11,1l-5.2,3A1.85,1.85,0,0,1,96.33,140.59Z" transform="translate(-5.44 -2.39)"/><path class="cls-7" d="M88.11,135.84l-5.25-3c-.42-.24-.37-.67.12-.95l5.2-3a1.83,1.83,0,0,1,1.64-.07l5.25,3c.42.24.37.67-.12,1l-5.2,3A1.83,1.83,0,0,1,88.11,135.84Z" transform="translate(-5.44 -2.39)"/><path class="cls-7" d="M79.87,131.08l-11.3-6.52c-.42-.25-.37-.67.12-1l5.2-3a1.83,1.83,0,0,1,1.64-.07l11.3,6.52c.42.25.37.67-.11.95l-5.2,3A1.82,1.82,0,0,1,79.87,131.08Z" transform="translate(-5.44 -2.39)"/><path class="cls-7" d="M85.63,125.3,76.46,120c-.42-.24-.37-.66.12-1l5.2-3a1.8,1.8,0,0,1,1.64-.06l9.17,5.29c.42.24.37.67-.12,1l-5.2,3A1.83,1.83,0,0,1,85.63,125.3Z" transform="translate(-5.44 -2.39)"/><path class="cls-7" d="M104.44,145.26l-5.25-3c-.42-.24-.37-.66.12-.94l5.2-3a1.8,1.8,0,0,1,1.64-.06l5.25,3c.42.24.37.66-.12.94l-5.2,3A1.8,1.8,0,0,1,104.44,145.26Z" transform="translate(-5.44 -2.39)"/><path class="cls-7" d="M112.54,149.94l-5.25-3c-.42-.24-.37-.66.12-.95l5.2-3a1.83,1.83,0,0,1,1.64-.07l5.25,3c.42.25.37.67-.12,1l-5.2,3A1.77,1.77,0,0,1,112.54,149.94Z" transform="translate(-5.44 -2.39)"/><path class="cls-7" d="M120.64,154.62l-5.24-3c-.43-.24-.37-.67.11-1l5.2-3a1.85,1.85,0,0,1,1.65-.07l5.24,3c.42.25.37.67-.11,1l-5.2,3A1.85,1.85,0,0,1,120.64,154.62Z" transform="translate(-5.44 -2.39)"/><path class="cls-7" d="M128.75,159.3l-5.25-3c-.42-.24-.37-.67.12-1l5.2-3a1.83,1.83,0,0,1,1.64-.07l5.25,3c.42.24.36.67-.12.95l-5.2,3A1.83,1.83,0,0,1,128.75,159.3Z" transform="translate(-5.44 -2.39)"/><path class="cls-7" d="M136.85,164l-5.25-3c-.42-.25-.37-.67.12-.95l5.2-3a1.83,1.83,0,0,1,1.64-.07l5.25,3c.42.24.37.67-.12.95l-5.2,3A1.83,1.83,0,0,1,136.85,164Z" transform="translate(-5.44 -2.39)"/><path class="cls-7" d="M145,168.66l-5.25-3c-.42-.25-.36-.67.12-.95l5.2-3a1.79,1.79,0,0,1,1.65-.07l5.24,3c.42.24.37.67-.12,1l-5.19,3A1.85,1.85,0,0,1,145,168.66Z" transform="translate(-5.44 -2.39)"/><path class="cls-7" d="M153.05,173.33l-5.24-3c-.42-.24-.37-.66.12-.94l5.19-3a1.82,1.82,0,0,1,1.65-.06l5.25,3c.42.24.36.66-.12.94l-5.2,3A1.82,1.82,0,0,1,153.05,173.33Z" transform="translate(-5.44 -2.39)"/><path class="cls-7" d="M161.16,178l-5.25-3c-.42-.24-.37-.67.12-.95l5.2-3a1.83,1.83,0,0,1,1.64-.07l5.25,3c.42.25.37.67-.12.95l-5.2,3A1.8,1.8,0,0,1,161.16,178Z" transform="translate(-5.44 -2.39)"/><path class="cls-7" d="M169.26,182.69l-5.25-3c-.42-.24-.36-.67.12-.95l5.2-3a1.83,1.83,0,0,1,1.64-.07l5.25,3c.42.24.37.67-.12,1l-5.2,3A1.83,1.83,0,0,1,169.26,182.69Z" transform="translate(-5.44 -2.39)"/><path class="cls-7" d="M183.67,191l-11.45-6.61c-.42-.25-.37-.67.12-1l5.19-3a1.85,1.85,0,0,1,1.65-.07L190.63,187c.42.24.36.67-.12.95l-5.2,3A1.83,1.83,0,0,1,183.67,191Z" transform="translate(-5.44 -2.39)"/><path class="cls-7" d="M199.44,181.9l-9.66-5.58c-.42-.24-.37-.67.12-.95l5.2-3a1.83,1.83,0,0,1,1.64-.07l9.66,5.58c.42.24.37.67-.12,1l-5.2,3A1.83,1.83,0,0,1,199.44,181.9Z" transform="translate(-5.44 -2.39)"/><path class="cls-7" d="M118.63,144.35l-5.25-3c-.42-.24-.37-.67.12-.95l5.2-3a1.83,1.83,0,0,1,1.64-.07l5.25,3c.42.24.37.67-.12.95l-5.2,3A1.83,1.83,0,0,1,118.63,144.35Z" transform="translate(-5.44 -2.39)"/><path class="cls-7" d="M110.32,139.55l-5.24-3c-.43-.25-.37-.67.11-.95l5.2-3a1.82,1.82,0,0,1,1.65-.06l5.24,3c.42.24.37.66-.12.94l-5.19,3A1.82,1.82,0,0,1,110.32,139.55Z" transform="translate(-5.44 -2.39)"/><path class="cls-7" d="M102,134.76l-5.25-3c-.42-.24-.37-.67.12-.95l5.2-3a1.83,1.83,0,0,1,1.64-.07l5.25,3c.42.24.37.67-.12.95l-5.2,3A1.83,1.83,0,0,1,102,134.76Z" transform="translate(-5.44 -2.39)"/><path class="cls-7" d="M93.71,130l-5.24-3c-.43-.25-.37-.67.11-1l5.2-3a1.79,1.79,0,0,1,1.65-.07l5.24,3c.43.24.37.66-.11,1l-5.2,3A1.85,1.85,0,0,1,93.71,130Z" transform="translate(-5.44 -2.39)"/><path class="cls-7" d="M126.73,149l-5.25-3c-.42-.25-.37-.67.12-.95l5.2-3a1.83,1.83,0,0,1,1.64-.07l5.25,3c.42.24.37.67-.12,1l-5.2,3A1.83,1.83,0,0,1,126.73,149Z" transform="translate(-5.44 -2.39)"/><path class="cls-7" d="M134.83,153.71l-5.24-3c-.43-.25-.37-.67.11-1l5.2-3a1.79,1.79,0,0,1,1.65-.07l5.24,3c.42.24.37.66-.11.95l-5.2,3A1.85,1.85,0,0,1,134.83,153.71Z" transform="translate(-5.44 -2.39)"/><path class="cls-7" d="M142.94,158.38l-5.25-3c-.42-.24-.37-.66.12-.94l5.2-3a1.8,1.8,0,0,1,1.64-.06l5.25,3c.42.24.36.66-.12.94l-5.2,3A1.8,1.8,0,0,1,142.94,158.38Z" transform="translate(-5.44 -2.39)"/><path class="cls-7" d="M151,163.06l-5.25-3c-.42-.24-.37-.67.12-.95l5.2-3a1.83,1.83,0,0,1,1.64-.07l5.25,3c.42.25.37.67-.12,1l-5.2,3A1.8,1.8,0,0,1,151,163.06Z" transform="translate(-5.44 -2.39)"/><path class="cls-7" d="M159.14,167.74l-5.25-3c-.42-.24-.36-.67.12-1l5.2-3a1.85,1.85,0,0,1,1.65-.07l5.24,3c.42.24.37.67-.12.95l-5.19,3A1.85,1.85,0,0,1,159.14,167.74Z" transform="translate(-5.44 -2.39)"/><path class="cls-7" d="M167.24,172.42l-5.24-3c-.42-.24-.37-.67.12-.95l5.19-3a1.85,1.85,0,0,1,1.65-.07l5.25,3c.42.24.36.67-.12.95l-5.2,3A1.85,1.85,0,0,1,167.24,172.42Z" transform="translate(-5.44 -2.39)"/><path class="cls-7" d="M175.35,177.1l-5.25-3c-.42-.25-.37-.67.12-.95l5.2-3a1.83,1.83,0,0,1,1.64-.07l5.25,3c.42.24.37.67-.12.95l-5.2,3A1.83,1.83,0,0,1,175.35,177.1Z" transform="translate(-5.44 -2.39)"/><path class="cls-7" d="M183.45,181.78l-5.25-3c-.42-.25-.36-.67.12-.95l5.2-3a1.77,1.77,0,0,1,1.64-.07l5.25,3c.42.24.37.66-.12,1l-5.2,3A1.83,1.83,0,0,1,183.45,181.78Z" transform="translate(-5.44 -2.39)"/><path class="cls-7" d="M191.55,186.45l-5.24-3c-.42-.24-.37-.66.11-.95l5.2-3a1.82,1.82,0,0,1,1.65-.06l5.24,3c.43.25.37.67-.11.95l-5.2,3A1.82,1.82,0,0,1,191.55,186.45Z" transform="translate(-5.44 -2.39)"/><path class="cls-7" d="M114.36,132.78l-5.25-3c-.42-.24-.37-.67.12-.95l5.2-3a1.83,1.83,0,0,1,1.64-.07l5.25,3c.42.24.37.67-.12,1l-5.2,3A1.83,1.83,0,0,1,114.36,132.78Z" transform="translate(-5.44 -2.39)"/><path class="cls-7" d="M106.3,128.12l-5.25-3c-.42-.24-.37-.66.12-1l5.2-3a1.83,1.83,0,0,1,1.64-.07l5.25,3c.42.25.37.67-.12,1l-5.2,3A1.77,1.77,0,0,1,106.3,128.12Z" transform="translate(-5.44 -2.39)"/><path class="cls-7" d="M98.23,123.47l-5.24-3c-.42-.24-.37-.67.12-1l5.19-3a1.85,1.85,0,0,1,1.65-.07l5.25,3c.42.24.36.67-.12,1l-5.2,3A1.85,1.85,0,0,1,98.23,123.47Z" transform="translate(-5.44 -2.39)"/><path class="cls-7" d="M90.17,118.81l-5.24-3c-.43-.24-.37-.66.11-1l5.2-3a1.85,1.85,0,0,1,1.65-.07l5.24,3c.42.25.37.67-.12.95l-5.19,3A1.79,1.79,0,0,1,90.17,118.81Z" transform="translate(-5.44 -2.39)"/><path class="cls-7" d="M98.46,114l-5.24-3c-.43-.25-.37-.67.11-1l1.72-1A1.79,1.79,0,0,1,96.7,109l5.24,3c.42.24.37.66-.11,1l-1.72,1A1.85,1.85,0,0,1,98.46,114Z" transform="translate(-5.44 -2.39)"/><path class="cls-7" d="M109,120.1l-5.24-3c-.42-.24-.37-.67.12-.95l1.71-1a1.85,1.85,0,0,1,1.65-.07l5.25,3c.42.24.36.67-.12,1l-1.72,1A1.85,1.85,0,0,1,109,120.1Z" transform="translate(-5.44 -2.39)"/><path class="cls-7" d="M117,124.74l-5.24-3c-.42-.25-.37-.67.11-.95l1.72-1a1.79,1.79,0,0,1,1.65-.07l5.24,3c.43.24.37.67-.11,1l-1.72,1A1.85,1.85,0,0,1,117,124.74Z" transform="translate(-5.44 -2.39)"/><path class="cls-7" d="M125,129.37l-5.24-3c-.43-.24-.37-.67.11-1l1.72-1a1.85,1.85,0,0,1,1.65-.07l5.24,3c.42.25.37.67-.11,1l-1.72,1A1.82,1.82,0,0,1,125,129.37Z" transform="translate(-5.44 -2.39)"/><path class="cls-7" d="M133.07,134l-5.25-3c-.42-.25-.36-.67.12-.95l1.72-1a1.85,1.85,0,0,1,1.65-.07l5.24,3c.42.24.37.67-.12.95l-1.71,1A1.85,1.85,0,0,1,133.07,134Z" transform="translate(-5.44 -2.39)"/><path class="cls-7" d="M177.9,159.89l-5.25-3c-.42-.25-.37-.67.12-1l1.72-1a1.83,1.83,0,0,1,1.64-.07l5.25,3c.42.24.37.67-.12,1l-1.72,1A1.83,1.83,0,0,1,177.9,159.89Z" transform="translate(-5.44 -2.39)"/><path class="cls-7" d="M185.93,164.52l-5.25-3c-.42-.24-.37-.66.12-1l1.72-1a1.83,1.83,0,0,1,1.64-.07l5.25,3c.42.25.36.67-.12,1l-1.72,1A1.77,1.77,0,0,1,185.93,164.52Z" transform="translate(-5.44 -2.39)"/><path class="cls-7" d="M194,169.16l-5.25-3c-.42-.24-.37-.67.12-.95l1.71-1a1.85,1.85,0,0,1,1.65-.07l5.25,3c.42.24.36.67-.12.95l-1.72,1A1.83,1.83,0,0,1,194,169.16Z" transform="translate(-5.44 -2.39)"/><path class="cls-7" d="M202,173.79l-5.24-3c-.42-.24-.37-.66.12-.94l1.71-1a1.82,1.82,0,0,1,1.65-.06l5.24,3c.43.25.37.67-.11.95l-1.72,1A1.82,1.82,0,0,1,202,173.79Z" transform="translate(-5.44 -2.39)"/><path class="cls-7" d="M122.46,137.46l-5.24-3c-.43-.25-.37-.67.11-1l5.2-3a1.82,1.82,0,0,1,1.65-.07l5.24,3c.42.24.37.67-.11.95l-5.2,3A1.85,1.85,0,0,1,122.46,137.46Z" transform="translate(-5.44 -2.39)"/><path class="cls-7" d="M130.57,142.13l-5.25-3c-.42-.24-.37-.66.12-.94l5.2-3a1.8,1.8,0,0,1,1.64-.06l5.25,3c.42.24.37.66-.12.94l-5.2,3A1.8,1.8,0,0,1,130.57,142.13Z" transform="translate(-5.44 -2.39)"/><path class="cls-7" d="M138.67,146.81l-5.25-3c-.42-.24-.37-.67.12-.95l5.2-3a1.83,1.83,0,0,1,1.64-.07l5.25,3c.42.25.37.67-.12,1l-5.2,3A1.77,1.77,0,0,1,138.67,146.81Z" transform="translate(-5.44 -2.39)"/><path class="cls-7" d="M146.77,151.49l-5.25-3c-.42-.24-.36-.67.12-1l5.2-3a1.85,1.85,0,0,1,1.65-.07l5.24,3c.42.25.37.67-.12.95l-5.19,3A1.85,1.85,0,0,1,146.77,151.49Z" transform="translate(-5.44 -2.39)"/><path class="cls-7" d="M154.87,156.17l-5.24-3c-.42-.24-.37-.67.12-.95l5.19-3a1.85,1.85,0,0,1,1.65-.07l5.25,3c.42.24.36.67-.12.95l-5.2,3A1.85,1.85,0,0,1,154.87,156.17Z" transform="translate(-5.44 -2.39)"/><path class="cls-7" d="M163,160.85l-5.25-3c-.42-.25-.37-.67.12-.95l5.2-3a1.83,1.83,0,0,1,1.64-.07l5.25,3c.42.24.37.67-.12.95l-5.2,3A1.83,1.83,0,0,1,163,160.85Z" transform="translate(-5.44 -2.39)"/><path class="cls-7" d="M171.08,165.53l-5.25-3c-.42-.25-.36-.67.12-.95l5.2-3a1.77,1.77,0,0,1,1.64-.07l5.25,3c.42.24.37.66-.12,1l-5.2,3A1.83,1.83,0,0,1,171.08,165.53Z" transform="translate(-5.44 -2.39)"/><path class="cls-7" d="M179.18,170.2l-5.24-3c-.42-.24-.37-.66.11-.94l5.2-3a1.82,1.82,0,0,1,1.65-.06l5.24,3c.43.25.37.67-.11.95l-5.2,3A1.82,1.82,0,0,1,179.18,170.2Z" transform="translate(-5.44 -2.39)"/><path class="cls-7" d="M187.29,174.88l-5.25-3c-.42-.24-.37-.67.12-.95l5.2-3a1.83,1.83,0,0,1,1.64-.07l5.25,3c.42.25.37.67-.12.95l-5.2,3A1.8,1.8,0,0,1,187.29,174.88Z" transform="translate(-5.44 -2.39)"/><path class="cls-7" d="M76.14,138l-15.46-8.92c-.42-.24-.36-.67.12-1l5.2-3a1.83,1.83,0,0,1,1.64-.07L83.1,134c.42.25.37.67-.12,1l-5.2,3A1.8,1.8,0,0,1,76.14,138Z" transform="translate(-5.44 -2.39)"/><path class="cls-7" d="M175.68,195.51l-15.45-8.92c-.42-.25-.37-.67.12-1l5.2-3a1.8,1.8,0,0,1,1.64-.06l15.45,8.92c.43.24.37.67-.11.95l-5.2,3A1.85,1.85,0,0,1,175.68,195.51Z" transform="translate(-5.44 -2.39)"/><path class="cls-7" d="M143.28,187.13l-5.25-3c-.42-.24-.37-.67.12-.95l6.19-3.57a1.85,1.85,0,0,1,1.65-.07l5.24,3c.43.24.37.67-.11,1l-6.2,3.57A1.83,1.83,0,0,1,143.28,187.13Z" transform="translate(-5.44 -2.39)"/><path class="cls-7" d="M84.44,153.16,76,148.31c-.42-.24-.36-.66.12-.95l6.2-3.57a1.83,1.83,0,0,1,1.64-.07l8.39,4.85c.42.24.37.66-.12.94l-6.19,3.58A1.83,1.83,0,0,1,84.44,153.16Z" transform="translate(-5.44 -2.39)"/><path class="cls-7" d="M135.47,182.62l-8.39-4.84c-.42-.24-.37-.67.12-.95l6.19-3.58a1.82,1.82,0,0,1,1.65-.06l8.39,4.84c.42.24.37.67-.12.95l-6.19,3.58A1.82,1.82,0,0,1,135.47,182.62Z" transform="translate(-5.44 -2.39)"/><path class="cls-7" d="M96.13,159.91l-8.4-4.85c-.42-.24-.36-.67.12-.95l6.2-3.57a1.83,1.83,0,0,1,1.64-.07l8.39,4.85c.42.24.37.66-.12.94l-6.19,3.58A1.83,1.83,0,0,1,96.13,159.91Z" transform="translate(-5.44 -2.39)"/><path class="cls-7" d="M95.75,150.5l36.48,21.07a.5.5,0,0,1,0,.94l-6.32,3.65a1.8,1.8,0,0,1-1.63,0L87.79,155.1Z" transform="translate(-5.44 -2.39)"/><path class="cls-7" d="M165.93,195.61l5.84,3.38c.35.2.3.55-.1.78l-2.53,1.46a1.5,1.5,0,0,1-1.35.05L162,197.91c-.35-.2-.3-.55.09-.78l2.54-1.46A1.5,1.5,0,0,1,165.93,195.61Z" transform="translate(-5.44 -2.39)"/><path class="cls-7" d="M157.76,190.9l5.84,3.37c.35.2.3.55-.1.78L161,196.51a1.5,1.5,0,0,1-1.35.06l-5.84-3.38c-.35-.2-.3-.54.09-.77l2.54-1.47A1.5,1.5,0,0,1,157.76,190.9Z" transform="translate(-5.44 -2.39)"/><path class="cls-7" d="M149.65,186.22l5.85,3.37c.34.2.3.55-.1.78l-2.53,1.46a1.5,1.5,0,0,1-1.35.06l-5.84-3.37c-.35-.2-.31-.55.09-.78l2.54-1.47A1.48,1.48,0,0,1,149.65,186.22Z" transform="translate(-5.44 -2.39)"/><path class="cls-7" d="M162.23,188.31l5.84,3.38c.35.2.31.55-.09.78l-2.54,1.46a1.48,1.48,0,0,1-1.34,0l-5.85-3.37c-.34-.2-.3-.55.1-.78l2.53-1.46A1.5,1.5,0,0,1,162.23,188.31Z" transform="translate(-5.44 -2.39)"/><polygon class="cls-8" points="202.34 77.17 149.64 46.75 150.31 43.32 203.01 73.75 202.34 77.17"/><polygon class="cls-8" points="183.46 82.96 146.67 61.72 147.35 58.29 184.14 79.53 183.46 82.96"/><polygon class="cls-5" points="179.98 72.61 148.16 54.23 148.83 50.81 180.66 69.18 179.98 72.61"/><polygon class="cls-9" points="200.85 84.66 184.94 75.47 185.62 72.05 201.53 81.23 200.85 84.66"/><polygon class="cls-10" points="141.14 42.2 124.7 32.71 125.4 29.17 141.84 38.67 141.14 42.2"/><polygon class="cls-5" points="139.68 49.71 123.24 40.22 123.94 36.68 140.38 46.17 139.68 49.71"/><polygon class="cls-8" points="161.4 116.12 115.77 89.51 112.91 91.15 158.53 117.76 161.4 116.12"/><polygon class="cls-8" points="160.13 100.94 128.27 82.36 125.41 84 157.26 102.58 160.13 100.94"/><polygon class="cls-8" points="149.58 102.01 122.02 85.94 119.16 87.58 146.71 103.64 149.58 102.01"/><polygon class="cls-8" points="167.65 112.55 153.87 104.51 151.01 106.15 164.79 114.18 167.65 112.55"/><ellipse class="cls-11" cx="98.74" cy="122.59" rx="23.29" ry="13.45"/><path class="cls-9" d="M127.48,118.06v-4.28h-1.24a14.84,14.84,0,0,0-5.59-5.23c-9.1-5.25-23.84-5.25-32.94,0a14.91,14.91,0,0,0-5.59,5.23H80.89V118h0c0,3.46,2.25,6.91,6.82,9.55,9.1,5.25,23.85,5.25,32.94,0C125.2,124.94,127.48,121.5,127.48,118.06Z" transform="translate(-5.44 -2.39)"/><ellipse class="cls-9" cx="98.74" cy="111.39" rx="23.29" ry="13.45"/><path class="cls-5" d="M120.65,123.29c-9.09,5.25-23.84,5.25-32.94,0-4.36-2.52-6.61-5.79-6.79-9.09-.2,3.59,2,7.21,6.79,9.94,9.1,5.26,23.85,5.26,32.94,0,4.74-2.73,7-6.35,6.79-9.93C127.26,117.5,125,120.77,120.65,123.29Z" transform="translate(-5.44 -2.39)"/><path class="cls-5" d="M93,118.23a1,1,0,0,1-.61-.86l0-8.76c0-.67.94-1.21,2.1-1.21s2.1.54,2.09,1.21v7.27l21.08-2.58c1.14-.14,2.25.28,2.49.93s-.48,1.3-1.62,1.44l-23.62,2.89a3.41,3.41,0,0,1-1.76-.25Z" transform="translate(-5.44 -2.39)"/><path class="cls-9" d="M206.15,92.91a1.63,1.63,0,0,1-2.35.73,2,2,0,0,1-.84-2.57,1.62,1.62,0,0,1,2.35-.72A2,2,0,0,1,206.15,92.91Z" transform="translate(-5.44 -2.39)"/><path class="cls-5" d="M211.78,96.16a1.63,1.63,0,0,1-2.35.73,2.06,2.06,0,0,1-.85-2.57,1.63,1.63,0,0,1,2.35-.72A2,2,0,0,1,211.78,96.16Z" transform="translate(-5.44 -2.39)"/><path class="cls-10" d="M217.41,99.41a1.63,1.63,0,0,1-2.35.73,2.05,2.05,0,0,1-.85-2.57,1.63,1.63,0,0,1,2.35-.72A2,2,0,0,1,217.41,99.41Z" transform="translate(-5.44 -2.39)"/><path class="cls-9" d="M223,102.66a1.63,1.63,0,0,1-2.35.73,2.05,2.05,0,0,1-.85-2.57,1.63,1.63,0,0,1,2.35-.72A2.05,2.05,0,0,1,223,102.66Z" transform="translate(-5.44 -2.39)"/></svg>