<svg id="Ñëîé_1" data-name="Ñëîé 1" xmlns="http://www.w3.org/2000/svg" xmlns:xlink="http://www.w3.org/1999/xlink" viewBox="0 0 326.8 212.93"><defs><style>.cls-1{fill:none;}.cls-2{fill:#f5487f;}.cls-3{fill:url(#linear-gradient);}.cls-4{opacity:0.3;}.cls-20,.cls-5{fill:#0c0f38;}.cls-13,.cls-5{opacity:0.8;}.cls-6{fill:url(#Áåçûìÿííûé_ãðàäèåíò_388);}.cls-7{fill:url(#linear-gradient-2);}.cls-8{fill:url(#Áåçûìÿííûé_ãðàäèåíò_388-2);}.cls-9{fill:#d4088c;}.cls-10{fill:#6ee8fc;}.cls-11{fill:url(#linear-gradient-3);}.cls-12{fill:url(#Áåçûìÿííûé_ãðàäèåíò_302);}.cls-13,.cls-18{fill:#6de0f6;}.cls-14{clip-path:url(#clip-path);}.cls-15{fill:#267fe5;}.cls-16{fill:#25bfec;}.cls-17{fill:#18d0f7;}.cls-19{fill:#480689;}.cls-20{opacity:0.6;}.cls-21{fill:url(#linear-gradient-4);}.cls-22{fill:url(#linear-gradient-5);}.cls-23{fill:url(#Áåçûìÿííûé_ãðàäèåíò_388-3);}.cls-24{fill:url(#linear-gradient-6);}.cls-25{fill:url(#Áåçûìÿííûé_ãðàäèåíò_302-2);}.cls-26{clip-path:url(#clip-path-2);}.cls-27{fill:url(#linear-gradient-7);}.cls-28{fill:url(#linear-gradient-8);}.cls-29{fill:url(#Áåçûìÿííûé_ãðàäèåíò_388-4);}.cls-30{fill:url(#linear-gradient-9);}.cls-31{fill:url(#Áåçûìÿííûé_ãðàäèåíò_302-3);}.cls-32{clip-path:url(#clip-path-3);}.cls-33{fill:url(#linear-gradient-10);}.cls-34{fill:url(#linear-gradient-11);}.cls-35{fill:url(#Áåçûìÿííûé_ãðàäèåíò_388-5);}.cls-36{fill:url(#linear-gradient-12);}.cls-37{fill:url(#Áåçûìÿííûé_ãðàäèåíò_302-4);}.cls-38{clip-path:url(#clip-path-4);}.cls-39{fill:url(#linear-gradient-13);}.cls-40{fill:#4a0e91;}.cls-41{fill:url(#linear-gradient-14);}.cls-42{fill:#35047c;}.cls-43{fill:url(#linear-gradient-15);}</style><linearGradient id="linear-gradient" x1="9.87" y1="136.27" x2="116.85" y2="136.27" gradientUnits="userSpaceOnUse"><stop offset="0" stop-color="#f5487f"/><stop offset="0.22" stop-color="#f5487f"/><stop offset="0.49" stop-color="#f5487f"/><stop offset="0.77" stop-color="#d4088c"/><stop offset="1" stop-color="#d4088c"/></linearGradient><linearGradient id="Áåçûìÿííûé_ãðàäèåíò_388" x1="170.58" y1="119.07" x2="262.18" y2="119.07" gradientUnits="userSpaceOnUse"><stop offset="0" stop-color="#d4088c"/><stop offset="0.23" stop-color="#d4088c"/><stop offset="0.51" stop-color="#6ee1f8"/><stop offset="0.78" stop-color="#6ee8fc"/><stop offset="1" stop-color="#6ee8fc"/></linearGradient><linearGradient id="linear-gradient-2" x1="170.54" y1="63.8" x2="264.47" y2="63.8" gradientUnits="userSpaceOnUse"><stop offset="0" stop-color="#c7417b"/><stop offset="0.02" stop-color="#c2407b"/><stop offset="0.11" stop-color="#ab3e79"/><stop offset="0.21" stop-color="#9b3c77"/><stop offset="0.32" stop-color="#923b76"/><stop offset="0.48" stop-color="#8f3b76"/><stop offset="0.63" stop-color="#733874"/><stop offset="0.94" stop-color="#2d316f"/><stop offset="1" stop-color="#1f306e"/></linearGradient><linearGradient id="Áåçûìÿííûé_ãðàäèåíò_388-2" x1="170.54" y1="92.61" x2="264.47" y2="92.61" xlink:href="#Áåçûìÿííûé_ãðàäèåíò_388"/><linearGradient id="linear-gradient-3" x1="406.57" y1="574.45" x2="450.88" y2="536.07" gradientTransform="matrix(0.87, 0.5, -1, 0.58, 399.56, -500.12)" gradientUnits="userSpaceOnUse"><stop offset="0" stop-color="#c7417b"/><stop offset="0.12" stop-color="#be4481"/><stop offset="0.31" stop-color="#a74c90"/><stop offset="0.55" stop-color="#815aa9"/><stop offset="0.83" stop-color="#4d6ccc"/><stop offset="1" stop-color="#2979e4"/></linearGradient><linearGradient id="Áåçûìÿííûé_ãðàäèåíò_302" x1="412.35" y1="569.44" x2="445.33" y2="540.87" gradientTransform="matrix(0.87, 0.5, -1, 0.58, 399.56, -500.12)" gradientUnits="userSpaceOnUse"><stop offset="0" stop-color="#630692"/><stop offset="0.23" stop-color="#5b0e94"/><stop offset="0.59" stop-color="#432399"/><stop offset="1" stop-color="#2142a1"/></linearGradient><clipPath id="clip-path" transform="translate(-8.16 -12.59)"><path class="cls-1" d="M214.11,46.36l-17.67-10.2c-1.26-.73-1.1-2,.35-2.83l17-9.8a5.51,5.51,0,0,1,4.91-.2l17.67,10.2c1.25.73,1.1,2-.35,2.83l-17,9.8A5.42,5.42,0,0,1,214.11,46.36Z"/></clipPath><linearGradient id="linear-gradient-4" x1="113.78" y1="154.35" x2="205.38" y2="154.35" gradientUnits="userSpaceOnUse"><stop offset="0" stop-color="#d4088c"/><stop offset="0.23" stop-color="#d4088c"/><stop offset="0.51" stop-color="#f5487f"/><stop offset="0.78" stop-color="#f5487f"/><stop offset="1" stop-color="#f5487f"/></linearGradient><linearGradient id="linear-gradient-5" x1="113.74" y1="99.09" x2="207.67" y2="99.09" xlink:href="#linear-gradient-2"/><linearGradient id="Áåçûìÿííûé_ãðàäèåíò_388-3" x1="113.74" y1="127.89" x2="207.67" y2="127.89" xlink:href="#Áåçûìÿííûé_ãðàäèåíò_388"/><linearGradient id="linear-gradient-6" x1="409.05" y1="633.4" x2="453.36" y2="595.03" gradientTransform="matrix(0.87, 0.5, -1, 0.58, 399.56, -500.12)" gradientUnits="userSpaceOnUse"><stop offset="0" stop-color="#c7417b"/><stop offset="0.12" stop-color="#bf407a"/><stop offset="0.3" stop-color="#a73e79"/><stop offset="0.53" stop-color="#813a76"/><stop offset="0.79" stop-color="#4d3572"/><stop offset="1" stop-color="#1f306e"/></linearGradient><linearGradient id="Áåçûìÿííûé_ãðàäèåíò_302-2" x1="414.83" y1="628.4" x2="447.82" y2="599.83" xlink:href="#Áåçûìÿííûé_ãðàäèåíò_302"/><clipPath id="clip-path-2" transform="translate(-8.16 -12.59)"><path class="cls-1" d="M157.31,81.64l-17.67-10.2c-1.26-.72-1.1-2,.35-2.83l17-9.79a5.48,5.48,0,0,1,4.91-.21l17.67,10.21c1.25.72,1.09,2-.36,2.83l-17,9.79A5.42,5.42,0,0,1,157.31,81.64Z"/></clipPath><linearGradient id="linear-gradient-7" x1="226.38" y1="153.99" x2="317.98" y2="153.99" xlink:href="#linear-gradient-4"/><linearGradient id="linear-gradient-8" x1="226.34" y1="98.72" x2="320.27" y2="98.72" xlink:href="#linear-gradient-2"/><linearGradient id="Áåçûìÿííûé_ãðàäèåíò_388-4" x1="226.34" y1="127.53" x2="320.27" y2="127.53" xlink:href="#Áåçûìÿííûé_ãðàäèåíò_388"/><linearGradient id="linear-gradient-9" x1="473.71" y1="576.79" x2="518.01" y2="538.42" xlink:href="#linear-gradient-6"/><linearGradient id="Áåçûìÿííûé_ãðàäèåíò_302-3" x1="479.48" y1="571.78" x2="512.47" y2="543.21" xlink:href="#Áåçûìÿííûé_ãðàäèåíò_302"/><clipPath id="clip-path-3" transform="translate(-8.16 -12.59)"><path class="cls-1" d="M269.91,81.28l-17.67-10.2c-1.26-.73-1.1-2,.35-2.83l17-9.8a5.51,5.51,0,0,1,4.91-.2l17.67,10.2c1.25.73,1.1,2-.35,2.83l-17,9.8A5.42,5.42,0,0,1,269.91,81.28Z"/></clipPath><linearGradient id="linear-gradient-10" x1="169.58" y1="189.27" x2="261.18" y2="189.27" xlink:href="#linear-gradient-4"/><linearGradient id="linear-gradient-11" x1="169.54" y1="134.01" x2="263.47" y2="134.01" gradientUnits="userSpaceOnUse"><stop offset="0" stop-color="#c7417b"/><stop offset="0.02" stop-color="#c2407b"/><stop offset="0.12" stop-color="#ab3e79"/><stop offset="0.22" stop-color="#9b3c77"/><stop offset="0.34" stop-color="#923b76"/><stop offset="0.5" stop-color="#8f3b76"/><stop offset="0.64" stop-color="#733874"/><stop offset="0.94" stop-color="#2d316f"/><stop offset="1" stop-color="#1f306e"/></linearGradient><linearGradient id="Áåçûìÿííûé_ãðàäèåíò_388-5" x1="169.54" y1="162.81" x2="263.47" y2="162.81" xlink:href="#Áåçûìÿííûé_ãðàäèåíò_388"/><linearGradient id="linear-gradient-12" x1="476.19" y1="635.74" x2="520.5" y2="597.37" xlink:href="#linear-gradient-6"/><linearGradient id="Áåçûìÿííûé_ãðàäèåíò_302-4" x1="481.97" y1="630.74" x2="514.96" y2="602.17" xlink:href="#Áåçûìÿííûé_ãðàäèåíò_302"/><clipPath id="clip-path-4" transform="translate(-8.16 -12.59)"><path class="cls-1" d="M213.11,116.56l-17.67-10.2c-1.26-.72-1.1-2,.35-2.83l17-9.79a5.46,5.46,0,0,1,4.9-.21l17.68,10.21c1.25.72,1.09,2-.36,2.83l-17,9.79A5.42,5.42,0,0,1,213.11,116.56Z"/></clipPath><linearGradient id="linear-gradient-13" x1="12.09" y1="99.17" x2="85.05" y2="99.17" xlink:href="#linear-gradient"/><linearGradient id="linear-gradient-14" x1="45.04" y1="31.75" x2="81.29" y2="104.72" gradientUnits="userSpaceOnUse"><stop offset="0" stop-color="#c7417b"/><stop offset="0.06" stop-color="#a83080"/><stop offset="0.12" stop-color="#8b2185"/><stop offset="0.2" stop-color="#741589"/><stop offset="0.27" stop-color="#640d8c"/><stop offset="0.36" stop-color="#5b088d"/><stop offset="0.48" stop-color="#58068e"/><stop offset="0.75" stop-color="#3d1a7f"/><stop offset="1" stop-color="#1f306e"/></linearGradient><linearGradient id="linear-gradient-15" x1="-24.49" y1="32.65" x2="104.06" y2="94.07" xlink:href="#linear-gradient-2"/></defs><path class="cls-2" d="M214.78,223.32a14.48,14.48,0,0,1-7.11-1.63l-107.5-62.07c-1.93-1.11-3-2.67-3-4.39,0-2,1.5-4.09,4.12-5.6L206.53,88.88c4.81-2.78,12.13-3.08,16.31-.66l107.5,62.07c1.93,1.11,3,2.67,3,4.39,0,2-1.51,4.09-4.12,5.6L224,221A18.85,18.85,0,0,1,214.78,223.32Zm-6.61-2.5c3.91,2.26,10.78,2,15.31-.65l105.23-60.75c2.3-1.33,3.62-3.06,3.62-4.74,0-1.35-.89-2.6-2.49-3.53L222.34,89.09c-3.91-2.26-10.78-2-15.31.65L101.8,150.49c-2.3,1.33-3.62,3.06-3.62,4.74a4.25,4.25,0,0,0,2.49,3.53Z" transform="translate(-8.16 -12.59)"/><path class="cls-3" d="M87.39,167.45a7.67,7.67,0,0,1-3.86-1L10.8,124.86a1.84,1.84,0,0,1,0-3.18L38.27,105.1l.4.66L11.16,122.34a1.08,1.08,0,0,0-.52.93,1.06,1.06,0,0,0,.54.92l72.73,41.57a7.05,7.05,0,0,0,7,0l25.55-14.82.39.66L91.29,166.4A7.74,7.74,0,0,1,87.39,167.45Z" transform="translate(-8.16 -12.59)"/><g class="cls-4"><path class="cls-2" d="M214.43,225.52a16.51,16.51,0,0,1-8.13-1.91L98.8,161.54c-2.58-1.48-4-3.66-4-6.13,0-2.78,1.86-5.46,5.12-7.34L205.16,87.32c5.45-3.15,13.5-3.43,18.32-.65L331,148.73c2.57,1.49,4,3.67,4,6.14,0,2.78-1.87,5.45-5.13,7.33L224.62,223A20.87,20.87,0,0,1,214.43,225.52Zm-5.63-6.25c3.3,1.9,9.4,1.6,13.31-.66l105.23-60.75c1.93-1.11,2.61-2.31,2.61-3s-.93-1.48-1.48-1.8L221,91c-3.3-1.91-9.39-1.61-13.31.65L102.44,152.42c-1.93,1.11-2.62,2.31-2.62,3s.93,1.47,1.48,1.79Z" transform="translate(-8.16 -12.59)"/></g><path class="cls-5" d="M212.17,140.42,179.4,121.51c-2.32-1.35-2-3.7.66-5.25L211.51,98.1c2.69-1.55,6.76-1.72,9.09-.38l32.76,18.92c2.33,1.34,2,3.69-.65,5.24L221.25,140C218.56,141.6,214.49,141.77,212.17,140.42Z" transform="translate(-8.16 -12.59)"/><path class="cls-6" d="M216.06,145.67a10,10,0,0,1-4.84-1.11l-38.59-22.29a3.56,3.56,0,0,1-2-3c0-1.41,1-2.8,2.82-3.84l37-21.39c3.27-1.88,8.25-2.09,11.09-.44l38.59,22.28a3.56,3.56,0,0,1,2.05,3c0,1.4-1,2.8-2.81,3.83l-37.06,21.39A12.82,12.82,0,0,1,216.06,145.67Zm-4.45-1.78c2.63,1.52,7.26,1.32,10.32-.45L259,122.05c1.54-.89,2.43-2,2.43-3.16a2.84,2.84,0,0,0-1.66-2.35L221.16,94.26c-2.64-1.52-7.27-1.32-10.32.44l-37.06,21.39c-1.54.9-2.42,2-2.42,3.17A2.82,2.82,0,0,0,173,121.6Z" transform="translate(-8.16 -12.59)"/><path class="cls-7" d="M254.93,34.85H238.69L220.6,24.4c-2.33-1.34-6.4-1.17-9.09.38L194.08,34.85H177.84v47h0a2.66,2.66,0,0,0,1.56,2.43l32.77,18.92c2.32,1.34,6.39,1.17,9.08-.38l31.46-18.16a3.87,3.87,0,0,0,2.21-2.81h0Z" transform="translate(-8.16 -12.59)"/><path class="cls-8" d="M252.71,83.92l-31.46,18.16c-2.69,1.55-6.76,1.72-9.08.37L179.4,83.54a2.67,2.67,0,0,1-1.56-2.44h0v.76h0a2.66,2.66,0,0,0,1.56,2.43l32.77,18.92c2.32,1.34,6.39,1.17,9.08-.38l31.46-18.16a3.87,3.87,0,0,0,2.21-2.81h0V81.1h0A3.87,3.87,0,0,1,252.71,83.92Z" transform="translate(-8.16 -12.59)"/><path class="cls-9" d="M178.87,82.61h0v-47H195.1l17.44-10.07c2.69-1.55,6.76-1.72,9.08-.37L239.71,35.6h15.22v-.75H238.69L220.6,24.4c-2.33-1.34-6.4-1.17-9.09.38L194.08,34.85H177.84v47h0a2.66,2.66,0,0,0,1.56,2.43l.19.11A2.27,2.27,0,0,1,178.87,82.61Z" transform="translate(-8.16 -12.59)"/><path class="cls-10" d="M254,35.72v47h0a2.91,2.91,0,0,1-.78,1.66,3.51,3.51,0,0,0,1.7-2.48h0V35A4.77,4.77,0,0,0,254,35.72Z" transform="translate(-8.16 -12.59)"/><path class="cls-11" d="M212.17,56.2,179.4,37.28c-2.32-1.34-2-3.69.66-5.25l31.45-18.16c2.69-1.55,6.76-1.72,9.09-.37l32.76,18.91c2.33,1.35,2,3.7-.65,5.25L221.25,55.82C218.56,57.37,214.49,57.54,212.17,56.2Z" transform="translate(-8.16 -12.59)"/><path class="cls-10" d="M253.36,32.41,220.6,13.5a8.42,8.42,0,0,0-4.59-.89,7.71,7.71,0,0,1,3.31.89l32.76,18.91c2.33,1.35,2,3.7-.65,5.25L220,55.82a10.33,10.33,0,0,1-4.5,1.26,10.68,10.68,0,0,0,5.78-1.26l31.46-18.16C255.4,36.11,255.69,33.76,253.36,32.41Z" transform="translate(-8.16 -12.59)"/><path class="cls-12" d="M213.24,50.74,188.85,36.66c-1.73-1-1.51-2.75.49-3.91l23.42-13.52a7.53,7.53,0,0,1,6.76-.28L243.91,33c1.74,1,1.52,2.75-.48,3.91L220,50.46A7.52,7.52,0,0,1,213.24,50.74Z" transform="translate(-8.16 -12.59)"/><path class="cls-13" d="M214.11,46.36l-17.67-10.2c-1.26-.73-1.1-2,.35-2.83l17-9.8a5.51,5.51,0,0,1,4.91-.2l17.67,10.2c1.25.73,1.1,2-.35,2.83l-17,9.8A5.42,5.42,0,0,1,214.11,46.36Z" transform="translate(-8.16 -12.59)"/><path class="cls-9" d="M213.63,56.2,180.87,37.28c-2.33-1.34-2-3.69.66-5.25L213,13.87a10.48,10.48,0,0,1,4.43-1.25,10.65,10.65,0,0,0-5.9,1.25L180.06,32c-2.69,1.56-3,3.91-.66,5.25L212.17,56.2a8.52,8.52,0,0,0,4.65.88A7.72,7.72,0,0,1,213.63,56.2Z" transform="translate(-8.16 -12.59)"/><g class="cls-14"><path class="cls-15" d="M196.78,34.71l17-9.8a5.44,5.44,0,0,1,4.91-.2l17.67,10.2a1.79,1.79,0,0,1,.62.56,1.31,1.31,0,0,0-.62-1.94l-17.67-10.2a5.44,5.44,0,0,0-4.91.2l-17,9.8c-1.13.65-1.46,1.56-1,2.27A2.65,2.65,0,0,1,196.78,34.71Z" transform="translate(-8.16 -12.59)"/><path class="cls-16" d="M196.78,36.37l17-9.8a5.51,5.51,0,0,1,4.91-.2l17.67,10.21a1.76,1.76,0,0,1,.52.43,1.32,1.32,0,0,0-.52-2.1l-17.67-10.2a5.44,5.44,0,0,0-4.91.2l-17,9.8c-1.19.69-1.5,1.67-.87,2.4A3,3,0,0,1,196.78,36.37Z" transform="translate(-8.16 -12.59)"/><path class="cls-17" d="M196.08,39a3.08,3.08,0,0,1,.7-.54l17-9.8a5.48,5.48,0,0,1,4.91-.21l17.67,10.21a2,2,0,0,1,.35.25,1.33,1.33,0,0,0-.35-2.28L218.66,26.37a5.51,5.51,0,0,0-4.91.2l-17,9.8C195.48,37.12,195.23,38.21,196.08,39Z" transform="translate(-8.16 -12.59)"/></g><path class="cls-18" d="M227.68,90.83l-1.82,1c-.47.27-.84,0-.84-.64V65.87a2,2,0,0,1,.84-1.62l1.82-1c.47-.27.84,0,.84.64V89.21A2,2,0,0,1,227.68,90.83Z" transform="translate(-8.16 -12.59)"/><path class="cls-15" d="M227.68,63.2l-.44.25V88.37A2,2,0,0,1,226.4,90l-1.38.8v.46c0,.62.37.91.84.64l1.82-1a2,2,0,0,0,.84-1.62V63.84C228.52,63.22,228.15,62.93,227.68,63.2Z" transform="translate(-8.16 -12.59)"/><path class="cls-18" d="M234.37,87,232.56,88c-.47.27-.85,0-.85-.64V62a2,2,0,0,1,.85-1.61l1.81-1c.47-.27.85,0,.85.64V85.35A2,2,0,0,1,234.37,87Z" transform="translate(-8.16 -12.59)"/><path class="cls-18" d="M241.07,83.1l-1.82,1.05c-.47.27-.85,0-.85-.64V58.14a2,2,0,0,1,.85-1.62l1.82-1.05c.46-.27.84,0,.84.64V81.48A2,2,0,0,1,241.07,83.1Z" transform="translate(-8.16 -12.59)"/><path class="cls-18" d="M247.76,79.24l-1.82,1c-.46.27-.84,0-.84-.64V54.27a2,2,0,0,1,.84-1.61l1.82-1c.47-.27.85,0,.85.64V77.62A2,2,0,0,1,247.76,79.24Z" transform="translate(-8.16 -12.59)"/><path class="cls-15" d="M234.37,59.34l-.43.25V84.5a2,2,0,0,1-.85,1.62l-1.38.8v.45c0,.63.38.91.85.64L234.37,87a2,2,0,0,0,.85-1.61V60C235.22,59.35,234.84,59.07,234.37,59.34Z" transform="translate(-8.16 -12.59)"/><path class="cls-15" d="M241.07,55.47l-.44.25V80.64a2,2,0,0,1-.85,1.61l-1.38.8v.46c0,.62.38.91.85.64l1.82-1.05a2,2,0,0,0,.84-1.62V56.11C241.91,55.49,241.53,55.2,241.07,55.47Z" transform="translate(-8.16 -12.59)"/><path class="cls-15" d="M247.76,51.61l-.44.25V76.77a2,2,0,0,1-.84,1.62l-1.38.8v.45c0,.63.38.91.84.64l1.82-1a2,2,0,0,0,.85-1.62V52.25C248.61,51.62,248.23,51.34,247.76,51.61Z" transform="translate(-8.16 -12.59)"/><path class="cls-19" d="M209.46,93.94a1.31,1.31,0,0,1-.66-.19L185.14,80.09a3.44,3.44,0,0,1-1.47-2.77V50.47a1.43,1.43,0,0,1,.6-1.31,1.12,1.12,0,0,1,1.15.07l23.65,13.66a3.4,3.4,0,0,1,1.47,2.77V92.5a1.45,1.45,0,0,1-.6,1.32A1,1,0,0,1,209.46,93.94ZM184.75,49.59a.35.35,0,0,0-.2,0,.93.93,0,0,0-.32.83V77.32a2.9,2.9,0,0,0,1.18,2.28l23.67,13.66a.55.55,0,0,0,.58.07.93.93,0,0,0,.32-.83V65.66a2.92,2.92,0,0,0-1.18-2.29L185.14,49.71A.85.85,0,0,0,184.75,49.59Z" transform="translate(-8.16 -12.59)"/><path class="cls-18" d="M188.3,55.73c0,.73-.51,1-1.15.66a2.52,2.52,0,0,1-1.15-2c0-.73.51-1,1.15-.66A2.52,2.52,0,0,1,188.3,55.73Z" transform="translate(-8.16 -12.59)"/><path class="cls-18" d="M188.3,59.47c0,.73-.51,1-1.15.66a2.54,2.54,0,0,1-1.15-2c0-.74.51-1,1.15-.67A2.54,2.54,0,0,1,188.3,59.47Z" transform="translate(-8.16 -12.59)"/><path class="cls-18" d="M188.3,63.2c0,.74-.51,1-1.15.67a2.54,2.54,0,0,1-1.15-2c0-.73.51-1,1.15-.66A2.52,2.52,0,0,1,188.3,63.2Z" transform="translate(-8.16 -12.59)"/><path class="cls-15" d="M187.73,63.41a2.55,2.55,0,0,1-1.16-2,1.23,1.23,0,0,1,.06-.36c-.37,0-.63.29-.63.81a2.54,2.54,0,0,0,1.15,2c.52.29.95.15,1.09-.31A1,1,0,0,1,187.73,63.41Z" transform="translate(-8.16 -12.59)"/><path class="cls-15" d="M187.73,59.67a2.53,2.53,0,0,1-1.16-2,1.23,1.23,0,0,1,.06-.36c-.37,0-.63.3-.63.81a2.54,2.54,0,0,0,1.15,2c.52.3.95.15,1.09-.31A1,1,0,0,1,187.73,59.67Z" transform="translate(-8.16 -12.59)"/><path class="cls-15" d="M187.73,55.93a2.53,2.53,0,0,1-1.16-2,1.29,1.29,0,0,1,.06-.36c-.37,0-.63.3-.63.82a2.54,2.54,0,0,0,1.15,2c.52.3.95.15,1.09-.3A1,1,0,0,1,187.73,55.93Z" transform="translate(-8.16 -12.59)"/><path class="cls-19" d="M207.33,80.54l-.76-.44a1,1,0,0,1-.43-.82V75.62c0-.32.19-.46.43-.32l.76.44a1,1,0,0,1,.43.82v3.66C207.76,80.53,207.57,80.68,207.33,80.54Z" transform="translate(-8.16 -12.59)"/><path class="cls-20" d="M155.36,175.7,122.6,156.79c-2.33-1.35-2-3.69.66-5.25l31.45-18.16c2.69-1.55,6.76-1.72,9.09-.37l32.76,18.91c2.33,1.34,2,3.69-.65,5.25l-31.46,18.16C161.76,176.88,157.69,177.05,155.36,175.7Z" transform="translate(-8.16 -12.59)"/><path class="cls-21" d="M159.26,181a9.84,9.84,0,0,1-4.84-1.11l-38.59-22.28a3.57,3.57,0,0,1-2-3c0-1.4,1-2.8,2.82-3.83l37.05-21.4c3.27-1.88,8.25-2.08,11.09-.44l38.59,22.28a3.57,3.57,0,0,1,2,3c0,1.4-1,2.8-2.81,3.83l-37.06,21.4A12.92,12.92,0,0,1,159.26,181Zm-4.45-1.78c2.63,1.52,7.26,1.32,10.31-.44l37.06-21.4c1.54-.89,2.43-2,2.43-3.16a2.84,2.84,0,0,0-1.66-2.35l-38.59-22.28c-2.64-1.52-7.27-1.32-10.32.44L117,151.38c-1.54.89-2.42,2-2.42,3.16a2.84,2.84,0,0,0,1.65,2.35Z" transform="translate(-8.16 -12.59)"/><path class="cls-22" d="M198.13,70.13H181.88L163.8,59.69c-2.33-1.35-6.4-1.18-9.09.37L137.28,70.13H121v47h0a2.63,2.63,0,0,0,1.56,2.43l32.76,18.92c2.33,1.34,6.4,1.17,9.09-.38L195.91,120a3.87,3.87,0,0,0,2.21-2.81h0Z" transform="translate(-8.16 -12.59)"/><path class="cls-23" d="M195.91,119.2l-31.46,18.16c-2.69,1.55-6.76,1.72-9.09.38L122.6,118.82a2.63,2.63,0,0,1-1.56-2.43h0v.75h0a2.63,2.63,0,0,0,1.56,2.43l32.76,18.92c2.33,1.34,6.4,1.17,9.09-.38L195.91,120a3.87,3.87,0,0,0,2.21-2.81h0v-.75h0A3.87,3.87,0,0,1,195.91,119.2Z" transform="translate(-8.16 -12.59)"/><path class="cls-9" d="M122.07,117.89h0v-47H138.3l17.44-10.06c2.69-1.56,6.75-1.73,9.08-.38l18.09,10.44h15.22v-.75H181.88L163.8,59.69c-2.33-1.35-6.4-1.18-9.09.37L137.28,70.13H121v47h0a2.63,2.63,0,0,0,1.56,2.43l.19.11A2.26,2.26,0,0,1,122.07,117.89Z" transform="translate(-8.16 -12.59)"/><path class="cls-10" d="M197.21,71v47h0a2.85,2.85,0,0,1-.78,1.66,3.49,3.49,0,0,0,1.7-2.48h0V70.24A5.17,5.17,0,0,0,197.21,71Z" transform="translate(-8.16 -12.59)"/><path class="cls-24" d="M155.36,91.48,122.6,72.56c-2.33-1.34-2-3.69.66-5.24l31.45-18.16c2.69-1.56,6.76-1.72,9.09-.38l32.76,18.91c2.33,1.35,2,3.7-.65,5.25L164.45,91.1C161.76,92.65,157.69,92.82,155.36,91.48Z" transform="translate(-8.16 -12.59)"/><path class="cls-10" d="M196.56,67.69,163.8,48.78a8.51,8.51,0,0,0-4.59-.89,7.75,7.75,0,0,1,3.31.89l32.76,18.91c2.33,1.35,2,3.7-.66,5.25L163.17,91.1a10.33,10.33,0,0,1-4.5,1.26,10.68,10.68,0,0,0,5.78-1.26l31.46-18.16C198.6,71.39,198.89,69,196.56,67.69Z" transform="translate(-8.16 -12.59)"/><path class="cls-25" d="M156.44,86,132.05,71.94c-1.73-1-1.52-2.75.49-3.9L156,54.52a7.52,7.52,0,0,1,6.77-.29l24.39,14.09c1.73,1,1.52,2.75-.49,3.9L163.21,85.74A7.52,7.52,0,0,1,156.44,86Z" transform="translate(-8.16 -12.59)"/><path class="cls-13" d="M157.31,81.64l-17.67-10.2c-1.26-.72-1.1-2,.35-2.83l17-9.79a5.48,5.48,0,0,1,4.91-.21l17.67,10.21c1.25.72,1.09,2-.36,2.83l-17,9.79A5.42,5.42,0,0,1,157.31,81.64Z" transform="translate(-8.16 -12.59)"/><path class="cls-9" d="M156.83,91.48,124.07,72.56c-2.33-1.34-2-3.69.66-5.24l31.45-18.16a10.3,10.3,0,0,1,4.43-1.26,10.74,10.74,0,0,0-5.9,1.26L123.26,67.32c-2.69,1.55-3,3.9-.66,5.24l32.76,18.92a8.58,8.58,0,0,0,4.66.88A7.67,7.67,0,0,1,156.83,91.48Z" transform="translate(-8.16 -12.59)"/><g class="cls-26"><path class="cls-15" d="M140,70l17-9.8a5.47,5.47,0,0,1,4.91-.2L179.53,70.2a1.88,1.88,0,0,1,.62.55,1.3,1.3,0,0,0-.62-1.93L161.86,58.61a5.44,5.44,0,0,0-4.91.2l-17,9.8c-1.13.65-1.46,1.56-1,2.28A2.75,2.75,0,0,1,140,70Z" transform="translate(-8.16 -12.59)"/><path class="cls-16" d="M140,71.66l17-9.8a5.48,5.48,0,0,1,4.91-.21l17.67,10.21a2.09,2.09,0,0,1,.52.43,1.31,1.31,0,0,0-.52-2.09L161.86,60a5.47,5.47,0,0,0-4.91.2L140,70c-1.2.69-1.5,1.67-.87,2.4A3,3,0,0,1,140,71.66Z" transform="translate(-8.16 -12.59)"/><path class="cls-17" d="M139.28,74.24a3.1,3.1,0,0,1,.7-.55l17-9.8a5.44,5.44,0,0,1,4.91-.2l17.67,10.2a2.65,2.65,0,0,1,.35.25,1.34,1.34,0,0,0-.35-2.28L161.86,61.65a5.48,5.48,0,0,0-4.91.21l-17,9.8C138.68,72.41,138.43,73.49,139.28,74.24Z" transform="translate(-8.16 -12.59)"/></g><path class="cls-18" d="M170.88,126.11l-1.82,1c-.47.27-.85,0-.85-.64V101.15a2,2,0,0,1,.85-1.62l1.82-1c.46-.27.84,0,.84.64v25.37A2,2,0,0,1,170.88,126.11Z" transform="translate(-8.16 -12.59)"/><path class="cls-15" d="M170.88,98.48l-.44.26v24.91a2,2,0,0,1-.85,1.62l-1.38.79v.46c0,.62.38.91.85.64l1.82-1a2,2,0,0,0,.84-1.62V99.12C171.72,98.5,171.34,98.21,170.88,98.48Z" transform="translate(-8.16 -12.59)"/><path class="cls-18" d="M177.57,122.25l-1.82,1c-.46.27-.84,0-.84-.64V97.29a2,2,0,0,1,.84-1.62l1.82-1c.47-.27.85,0,.85.64v25.37A2,2,0,0,1,177.57,122.25Z" transform="translate(-8.16 -12.59)"/><path class="cls-18" d="M184.26,118.38l-1.81,1.05c-.47.27-.85,0-.85-.64V93.42a2,2,0,0,1,.85-1.62l1.81-1c.47-.27.85,0,.85.64v25.37A2,2,0,0,1,184.26,118.38Z" transform="translate(-8.16 -12.59)"/><path class="cls-18" d="M191,114.52l-1.82,1c-.47.27-.84,0-.84-.64V89.56a2,2,0,0,1,.84-1.62l1.82-1c.47-.27.85,0,.85.64V112.9A2,2,0,0,1,191,114.52Z" transform="translate(-8.16 -12.59)"/><path class="cls-15" d="M177.57,94.62l-.43.25v24.91a2,2,0,0,1-.85,1.62l-1.38.8v.46c0,.62.38.91.84.64l1.82-1a2,2,0,0,0,.85-1.62V95.26C178.42,94.64,178,94.35,177.57,94.62Z" transform="translate(-8.16 -12.59)"/><path class="cls-15" d="M184.26,90.76l-.43.25v24.91a2,2,0,0,1-.85,1.62l-1.38.79v.46c0,.63.38.91.85.64l1.81-1.05a2,2,0,0,0,.85-1.61V91.4C185.11,90.77,184.73,90.49,184.26,90.76Z" transform="translate(-8.16 -12.59)"/><path class="cls-15" d="M191,86.89l-.44.25v24.91a2,2,0,0,1-.84,1.62l-1.38.8v.46c0,.62.37.91.84.64l1.82-1a2,2,0,0,0,.85-1.62V87.53C191.81,86.91,191.43,86.62,191,86.89Z" transform="translate(-8.16 -12.59)"/><path class="cls-19" d="M152.66,129.23a1.32,1.32,0,0,1-.66-.2l-23.66-13.66a3.43,3.43,0,0,1-1.47-2.77V85.75a1.45,1.45,0,0,1,.6-1.31,1.12,1.12,0,0,1,1.14.07l23.66,13.66a3.43,3.43,0,0,1,1.47,2.77v26.85a1.45,1.45,0,0,1-.6,1.31A1,1,0,0,1,152.66,129.23Zm-.39-.68a.62.62,0,0,0,.59.07,1,1,0,0,0,.32-.83V100.94A2.9,2.9,0,0,0,152,98.65L128.34,85a.62.62,0,0,0-.59-.07,1,1,0,0,0-.32.83V112.6a2.92,2.92,0,0,0,1.18,2.29Z" transform="translate(-8.16 -12.59)"/><path class="cls-18" d="M131.5,91c0,.74-.52,1-1.15.67a2.54,2.54,0,0,1-1.15-2c0-.73.51-1,1.15-.66A2.56,2.56,0,0,1,131.5,91Z" transform="translate(-8.16 -12.59)"/><path class="cls-18" d="M131.5,94.75c0,.73-.52,1-1.15.66a2.52,2.52,0,0,1-1.15-2c0-.74.51-1,1.15-.67A2.57,2.57,0,0,1,131.5,94.75Z" transform="translate(-8.16 -12.59)"/><path class="cls-18" d="M131.5,98.48c0,.74-.52,1-1.15.67a2.54,2.54,0,0,1-1.15-2c0-.73.51-1,1.15-.66A2.56,2.56,0,0,1,131.5,98.48Z" transform="translate(-8.16 -12.59)"/><path class="cls-15" d="M130.92,98.69a2.55,2.55,0,0,1-1.15-2,1.23,1.23,0,0,1,.06-.36c-.37,0-.63.3-.63.81a2.54,2.54,0,0,0,1.15,2c.51.3,1,.15,1.09-.31A1,1,0,0,1,130.92,98.69Z" transform="translate(-8.16 -12.59)"/><path class="cls-15" d="M130.92,95a2.57,2.57,0,0,1-1.15-2,1.29,1.29,0,0,1,.06-.36c-.37,0-.63.3-.63.82a2.54,2.54,0,0,0,1.15,2c.51.3,1,.15,1.09-.3A1.16,1.16,0,0,1,130.92,95Z" transform="translate(-8.16 -12.59)"/><path class="cls-15" d="M130.92,91.22a2.57,2.57,0,0,1-1.15-2,1.36,1.36,0,0,1,.06-.36c-.37,0-.63.3-.63.82a2.52,2.52,0,0,0,1.15,2c.51.3,1,.16,1.09-.3A1,1,0,0,1,130.92,91.22Z" transform="translate(-8.16 -12.59)"/><path class="cls-19" d="M150.53,115.82l-.76-.44a1,1,0,0,1-.43-.81V110.9c0-.31.19-.46.43-.32l.76.44a1,1,0,0,1,.43.82v3.66C151,115.82,150.77,116,150.53,115.82Z" transform="translate(-8.16 -12.59)"/><path class="cls-20" d="M268,175.34,235.2,156.43c-2.33-1.35-2-3.7.66-5.25L267.31,133c2.69-1.55,6.76-1.72,9.09-.38l32.76,18.92c2.33,1.34,2,3.69-.65,5.24L277.05,175C274.36,176.52,270.29,176.69,268,175.34Z" transform="translate(-8.16 -12.59)"/><path class="cls-27" d="M271.86,180.59a10,10,0,0,1-4.84-1.11l-38.59-22.29a3.56,3.56,0,0,1-2.05-3c0-1.4,1-2.79,2.82-3.83L266.25,129c3.27-1.89,8.25-2.08,11.09-.44l38.59,22.28a3.56,3.56,0,0,1,2.05,3c0,1.4-1,2.8-2.81,3.83L278.11,179A12.82,12.82,0,0,1,271.86,180.59Zm-4.45-1.78c2.63,1.52,7.26,1.32,10.32-.45l37-21.39c1.54-.89,2.43-2,2.43-3.16a2.84,2.84,0,0,0-1.66-2.35L277,129.18c-2.64-1.52-7.27-1.32-10.32.44L229.58,151c-1.54.9-2.42,2.05-2.42,3.16a2.82,2.82,0,0,0,1.66,2.35Z" transform="translate(-8.16 -12.59)"/><path class="cls-28" d="M310.73,69.77H294.48L276.4,59.32c-2.33-1.34-6.4-1.17-9.09.38L249.88,69.77H233.64v47h0a2.64,2.64,0,0,0,1.56,2.43L268,138.13c2.33,1.34,6.4,1.17,9.09-.38l31.46-18.16a3.87,3.87,0,0,0,2.21-2.81h0Z" transform="translate(-8.16 -12.59)"/><path class="cls-29" d="M308.51,118.84,277.05,137c-2.69,1.55-6.76,1.72-9.09.37L235.2,118.46a2.65,2.65,0,0,1-1.56-2.44h0v.76h0a2.64,2.64,0,0,0,1.56,2.43L268,138.13c2.33,1.34,6.4,1.17,9.09-.38l31.46-18.16a3.87,3.87,0,0,0,2.21-2.81h0V116h0A3.87,3.87,0,0,1,308.51,118.84Z" transform="translate(-8.16 -12.59)"/><path class="cls-9" d="M234.67,117.53h0v-47H250.9l17.44-10.07c2.69-1.55,6.75-1.72,9.08-.37l18.09,10.44h15.22v-.75H294.48L276.4,59.32c-2.33-1.34-6.4-1.17-9.09.38L249.88,69.77H233.64v47h0a2.64,2.64,0,0,0,1.56,2.43l.19.11A2.27,2.27,0,0,1,234.67,117.53Z" transform="translate(-8.16 -12.59)"/><path class="cls-10" d="M309.81,70.64v47h0a2.91,2.91,0,0,1-.78,1.66,3.51,3.51,0,0,0,1.7-2.48h0V69.88A4.77,4.77,0,0,0,309.81,70.64Z" transform="translate(-8.16 -12.59)"/><path class="cls-30" d="M268,91.12,235.2,72.2c-2.33-1.34-2-3.69.66-5.25l31.45-18.16c2.69-1.55,6.76-1.72,9.09-.37l32.76,18.91c2.33,1.35,2,3.7-.65,5.25L277.05,90.74C274.36,92.29,270.29,92.46,268,91.12Z" transform="translate(-8.16 -12.59)"/><path class="cls-10" d="M309.16,67.33,276.4,48.42a8.42,8.42,0,0,0-4.59-.89,7.71,7.71,0,0,1,3.31.89l32.76,18.91c2.33,1.35,2,3.7-.66,5.25L275.77,90.74a10.33,10.33,0,0,1-4.5,1.26,10.68,10.68,0,0,0,5.78-1.26l31.46-18.16C311.2,71,311.49,68.68,309.16,67.33Z" transform="translate(-8.16 -12.59)"/><path class="cls-31" d="M269,85.66,244.65,71.58c-1.73-1-1.51-2.75.49-3.91l23.42-13.52a7.53,7.53,0,0,1,6.76-.28L299.71,68c1.74,1,1.52,2.75-.48,3.91L275.81,85.38A7.52,7.52,0,0,1,269,85.66Z" transform="translate(-8.16 -12.59)"/><path class="cls-13" d="M269.91,81.28l-17.67-10.2c-1.26-.73-1.1-2,.35-2.83l17-9.8a5.51,5.51,0,0,1,4.91-.2l17.67,10.2c1.25.73,1.1,2-.35,2.83l-17,9.8A5.42,5.42,0,0,1,269.91,81.28Z" transform="translate(-8.16 -12.59)"/><path class="cls-9" d="M269.43,91.12,236.67,72.2c-2.33-1.34-2-3.69.66-5.25l31.45-18.16a10.48,10.48,0,0,1,4.43-1.25,10.65,10.65,0,0,0-5.9,1.25L235.86,67c-2.69,1.56-3,3.91-.66,5.25L268,91.12a8.58,8.58,0,0,0,4.66.88A7.72,7.72,0,0,1,269.43,91.12Z" transform="translate(-8.16 -12.59)"/><g class="cls-32"><path class="cls-15" d="M252.58,69.63l17-9.8a5.44,5.44,0,0,1,4.91-.2l17.67,10.2a1.79,1.79,0,0,1,.62.56,1.31,1.31,0,0,0-.62-1.94l-17.67-10.2a5.44,5.44,0,0,0-4.91.2l-17,9.8c-1.13.65-1.46,1.56-1,2.27A2.65,2.65,0,0,1,252.58,69.63Z" transform="translate(-8.16 -12.59)"/><path class="cls-16" d="M252.58,71.29l17-9.8a5.51,5.51,0,0,1,4.91-.2L292.13,71.5a1.76,1.76,0,0,1,.52.43,1.32,1.32,0,0,0-.52-2.1l-17.67-10.2a5.44,5.44,0,0,0-4.91.2l-17,9.8c-1.19.69-1.5,1.67-.87,2.4A3,3,0,0,1,252.58,71.29Z" transform="translate(-8.16 -12.59)"/><path class="cls-17" d="M251.88,73.87a3.08,3.08,0,0,1,.7-.54l17-9.8a5.48,5.48,0,0,1,4.91-.21l17.67,10.21a2,2,0,0,1,.35.25,1.33,1.33,0,0,0-.35-2.28L274.46,61.29a5.51,5.51,0,0,0-4.91.2l-17,9.8C251.28,72,251,73.13,251.88,73.87Z" transform="translate(-8.16 -12.59)"/></g><path class="cls-18" d="M283.48,125.75l-1.82,1c-.47.27-.85,0-.85-.64V100.79a2,2,0,0,1,.85-1.62l1.82-1c.47-.27.84,0,.84.64v25.37A2,2,0,0,1,283.48,125.75Z" transform="translate(-8.16 -12.59)"/><path class="cls-15" d="M283.48,98.12l-.44.25v24.92a2,2,0,0,1-.84,1.61l-1.39.8v.46c0,.62.38.91.85.64l1.82-1a2,2,0,0,0,.84-1.62V98.76C284.32,98.14,284,97.85,283.48,98.12Z" transform="translate(-8.16 -12.59)"/><path class="cls-18" d="M290.17,121.88l-1.81,1.05c-.47.27-.85,0-.85-.64V96.92a2,2,0,0,1,.85-1.61l1.81-1c.47-.27.85,0,.85.64v25.37A2,2,0,0,1,290.17,121.88Z" transform="translate(-8.16 -12.59)"/><path class="cls-18" d="M296.87,118l-1.82,1c-.47.27-.85,0-.85-.64V93.06a2,2,0,0,1,.85-1.62l1.82-1c.46-.27.84,0,.84.64V116.4A2,2,0,0,1,296.87,118Z" transform="translate(-8.16 -12.59)"/><path class="cls-18" d="M303.56,114.16l-1.82,1c-.46.27-.84,0-.84-.64V89.19a2,2,0,0,1,.84-1.61l1.82-1c.47-.27.85,0,.85.64v25.37A2,2,0,0,1,303.56,114.16Z" transform="translate(-8.16 -12.59)"/><path class="cls-15" d="M290.17,94.26l-.43.25v24.91a2,2,0,0,1-.85,1.62l-1.38.8v.45c0,.63.38.91.85.64l1.81-1.05a2,2,0,0,0,.85-1.61V94.9C291,94.27,290.64,94,290.17,94.26Z" transform="translate(-8.16 -12.59)"/><path class="cls-15" d="M296.87,90.39l-.44.25v24.92a2,2,0,0,1-.85,1.61l-1.38.8v.46c0,.62.38.91.85.64l1.82-1a2,2,0,0,0,.84-1.62V91C297.71,90.41,297.33,90.12,296.87,90.39Z" transform="translate(-8.16 -12.59)"/><path class="cls-15" d="M303.56,86.53l-.44.25v24.91a2,2,0,0,1-.84,1.62l-1.38.8v.45c0,.63.38.91.84.64l1.82-1a2,2,0,0,0,.85-1.62V87.17C304.41,86.54,304,86.26,303.56,86.53Z" transform="translate(-8.16 -12.59)"/><path class="cls-19" d="M265.26,128.86a1.31,1.31,0,0,1-.66-.19L240.94,115a3.44,3.44,0,0,1-1.47-2.77V85.39a1.43,1.43,0,0,1,.6-1.31,1.12,1.12,0,0,1,1.15.07l23.65,13.66a3.43,3.43,0,0,1,1.47,2.77v26.84a1.45,1.45,0,0,1-.6,1.32A1,1,0,0,1,265.26,128.86ZM240.55,84.51a.35.35,0,0,0-.2,0,.93.93,0,0,0-.32.83v26.85a2.9,2.9,0,0,0,1.18,2.28l23.66,13.66a.57.57,0,0,0,.59.07.93.93,0,0,0,.32-.83V100.58a2.92,2.92,0,0,0-1.18-2.29L240.94,84.63A.85.85,0,0,0,240.55,84.51Z" transform="translate(-8.16 -12.59)"/><path class="cls-18" d="M244.1,90.65c0,.73-.51,1-1.15.66a2.52,2.52,0,0,1-1.15-2c0-.73.51-1,1.15-.66A2.52,2.52,0,0,1,244.1,90.65Z" transform="translate(-8.16 -12.59)"/><path class="cls-18" d="M244.1,94.39c0,.73-.51,1-1.15.66a2.54,2.54,0,0,1-1.15-2c0-.74.51-1,1.15-.67A2.54,2.54,0,0,1,244.1,94.39Z" transform="translate(-8.16 -12.59)"/><path class="cls-18" d="M244.1,98.12c0,.74-.51,1-1.15.67a2.54,2.54,0,0,1-1.15-2c0-.73.51-1,1.15-.66A2.52,2.52,0,0,1,244.1,98.12Z" transform="translate(-8.16 -12.59)"/><path class="cls-15" d="M243.53,98.33a2.55,2.55,0,0,1-1.16-2,1.23,1.23,0,0,1,.06-.36c-.37,0-.63.29-.63.81a2.54,2.54,0,0,0,1.15,2c.52.29,1,.15,1.09-.31A1,1,0,0,1,243.53,98.33Z" transform="translate(-8.16 -12.59)"/><path class="cls-15" d="M243.53,94.59a2.53,2.53,0,0,1-1.16-2,1.23,1.23,0,0,1,.06-.36c-.37,0-.63.3-.63.81a2.54,2.54,0,0,0,1.15,2c.52.3,1,.15,1.09-.31A1,1,0,0,1,243.53,94.59Z" transform="translate(-8.16 -12.59)"/><path class="cls-15" d="M243.53,90.85a2.53,2.53,0,0,1-1.16-2,1.29,1.29,0,0,1,.06-.36c-.37,0-.63.3-.63.82a2.54,2.54,0,0,0,1.15,2c.52.3,1,.15,1.09-.3A1,1,0,0,1,243.53,90.85Z" transform="translate(-8.16 -12.59)"/><path class="cls-19" d="M263.13,115.46l-.76-.44a1,1,0,0,1-.43-.82v-3.66c0-.32.19-.46.43-.32l.76.44a1,1,0,0,1,.43.82v3.66C263.56,115.45,263.37,115.6,263.13,115.46Z" transform="translate(-8.16 -12.59)"/><path class="cls-20" d="M211.16,210.62,178.4,191.71c-2.33-1.35-2-3.69.66-5.25l31.45-18.16c2.69-1.55,6.76-1.72,9.09-.37l32.76,18.91c2.33,1.34,2,3.69-.65,5.25l-31.46,18.16C217.56,211.8,213.49,212,211.16,210.62Z" transform="translate(-8.16 -12.59)"/><path class="cls-33" d="M215.06,215.87a9.84,9.84,0,0,1-4.84-1.11l-38.59-22.28a3.57,3.57,0,0,1-2-3c0-1.4,1-2.8,2.82-3.83l37-21.4c3.27-1.88,8.24-2.08,11.09-.44l38.59,22.28a3.57,3.57,0,0,1,2.05,3c0,1.4-1,2.8-2.82,3.83l-37.05,21.4A12.92,12.92,0,0,1,215.06,215.87Zm-4.45-1.78c2.63,1.52,7.26,1.32,10.31-.44L258,192.25c1.54-.89,2.42-2,2.42-3.16a2.82,2.82,0,0,0-1.65-2.35l-38.6-22.28c-2.63-1.52-7.26-1.32-10.31.44l-37.06,21.4c-1.54.89-2.42,2-2.42,3.16a2.82,2.82,0,0,0,1.65,2.35Z" transform="translate(-8.16 -12.59)"/><path class="cls-34" d="M253.93,105.05H237.68L219.6,94.61c-2.33-1.35-6.4-1.18-9.09.37l-17.43,10.07H176.84v47h0a2.63,2.63,0,0,0,1.56,2.43l32.76,18.92c2.33,1.34,6.4,1.17,9.09-.38l31.46-18.16a3.87,3.87,0,0,0,2.21-2.81h0Z" transform="translate(-8.16 -12.59)"/><path class="cls-35" d="M251.71,154.12l-31.46,18.16c-2.69,1.55-6.76,1.72-9.09.38L178.4,153.74a2.63,2.63,0,0,1-1.56-2.43h0v.75h0a2.63,2.63,0,0,0,1.56,2.43l32.76,18.92c2.33,1.34,6.4,1.17,9.09-.38l31.46-18.16a3.87,3.87,0,0,0,2.21-2.81h0v-.75h0A3.87,3.87,0,0,1,251.71,154.12Z" transform="translate(-8.16 -12.59)"/><path class="cls-9" d="M177.87,152.81h0v-47H194.1l17.43-10.06c2.69-1.56,6.76-1.73,9.09-.38l18.09,10.44h15.22v-.75H237.68L219.6,94.61c-2.33-1.35-6.4-1.18-9.09.37l-17.43,10.07H176.84v47h0a2.63,2.63,0,0,0,1.56,2.43l.19.11A2.26,2.26,0,0,1,177.87,152.81Z" transform="translate(-8.16 -12.59)"/><path class="cls-10" d="M253,105.92v47h0a2.85,2.85,0,0,1-.78,1.66,3.49,3.49,0,0,0,1.7-2.48h0v-46.9A5.17,5.17,0,0,0,253,105.92Z" transform="translate(-8.16 -12.59)"/><path class="cls-36" d="M211.16,126.4,178.4,107.48c-2.33-1.34-2-3.69.66-5.24l31.45-18.16c2.69-1.56,6.76-1.72,9.09-.38l32.76,18.91c2.33,1.35,2,3.7-.65,5.25L220.25,126C217.56,127.57,213.49,127.74,211.16,126.4Z" transform="translate(-8.16 -12.59)"/><path class="cls-10" d="M252.36,102.61,219.6,83.7a8.51,8.51,0,0,0-4.59-.89,7.75,7.75,0,0,1,3.31.89l32.76,18.91c2.33,1.35,2,3.7-.66,5.25L219,126a10.33,10.33,0,0,1-4.5,1.26,10.7,10.7,0,0,0,5.78-1.26l31.46-18.16C254.4,106.31,254.69,104,252.36,102.61Z" transform="translate(-8.16 -12.59)"/><path class="cls-37" d="M212.24,120.94l-24.39-14.08c-1.73-1-1.52-2.75.49-3.9l23.41-13.52a7.52,7.52,0,0,1,6.77-.29l24.39,14.09c1.73,1,1.52,2.75-.49,3.9L219,120.66A7.52,7.52,0,0,1,212.24,120.94Z" transform="translate(-8.16 -12.59)"/><path class="cls-13" d="M213.11,116.56l-17.67-10.2c-1.26-.72-1.1-2,.35-2.83l17-9.79a5.46,5.46,0,0,1,4.9-.21l17.68,10.21c1.25.72,1.09,2-.36,2.83l-17,9.79A5.42,5.42,0,0,1,213.11,116.56Z" transform="translate(-8.16 -12.59)"/><path class="cls-9" d="M212.63,126.4l-32.76-18.92c-2.33-1.34-2-3.69.65-5.24L212,84.08a10.3,10.3,0,0,1,4.43-1.26,10.74,10.74,0,0,0-5.9,1.26l-31.45,18.16c-2.69,1.55-3,3.9-.66,5.24l32.76,18.92a8.58,8.58,0,0,0,4.66.88A7.67,7.67,0,0,1,212.63,126.4Z" transform="translate(-8.16 -12.59)"/><g class="cls-38"><path class="cls-15" d="M195.78,104.91l17-9.8a5.47,5.47,0,0,1,4.91-.2l17.67,10.21a1.88,1.88,0,0,1,.62.55,1.3,1.3,0,0,0-.62-1.93L217.66,93.53a5.44,5.44,0,0,0-4.91.2l-17,9.8c-1.13.65-1.46,1.56-1,2.28A2.75,2.75,0,0,1,195.78,104.91Z" transform="translate(-8.16 -12.59)"/><path class="cls-16" d="M195.78,106.58l17-9.8a5.48,5.48,0,0,1,4.91-.21l17.67,10.21a2.09,2.09,0,0,1,.52.43,1.31,1.31,0,0,0-.52-2.09L217.66,94.91a5.47,5.47,0,0,0-4.91.2l-17,9.8c-1.2.69-1.5,1.67-.87,2.4A3,3,0,0,1,195.78,106.58Z" transform="translate(-8.16 -12.59)"/><path class="cls-17" d="M195.08,109.16a3.1,3.1,0,0,1,.7-.55l17-9.8a5.44,5.44,0,0,1,4.91-.2l17.67,10.2a2.65,2.65,0,0,1,.35.25,1.34,1.34,0,0,0-.35-2.28L217.66,96.57a5.48,5.48,0,0,0-4.91.21l-17,9.8C194.48,107.33,194.23,108.41,195.08,109.16Z" transform="translate(-8.16 -12.59)"/></g><path class="cls-18" d="M226.68,161l-1.82,1.05c-.47.27-.85,0-.85-.64V136.07a2,2,0,0,1,.85-1.62l1.82-1c.46-.27.84,0,.84.64v25.37A2,2,0,0,1,226.68,161Z" transform="translate(-8.16 -12.59)"/><path class="cls-15" d="M226.68,133.4l-.44.26v24.91a2,2,0,0,1-.85,1.62L224,161v.46c0,.62.38.91.85.64l1.82-1.05a2,2,0,0,0,.84-1.62V134C227.52,133.42,227.14,133.13,226.68,133.4Z" transform="translate(-8.16 -12.59)"/><path class="cls-18" d="M233.37,157.17l-1.82,1.05c-.46.27-.84,0-.84-.64V132.21a2,2,0,0,1,.84-1.62l1.82-1.05c.47-.27.85,0,.85.64v25.37A2,2,0,0,1,233.37,157.17Z" transform="translate(-8.16 -12.59)"/><path class="cls-18" d="M240.06,153.3l-1.81,1c-.47.27-.85,0-.85-.64V128.34a2,2,0,0,1,.85-1.62l1.81-1c.47-.27.85,0,.85.64v25.37A2,2,0,0,1,240.06,153.3Z" transform="translate(-8.16 -12.59)"/><path class="cls-18" d="M246.76,149.44l-1.82,1.05c-.47.27-.84,0-.84-.64V124.48a2,2,0,0,1,.84-1.62l1.82-1c.47-.27.84,0,.84.64v25.37A2,2,0,0,1,246.76,149.44Z" transform="translate(-8.16 -12.59)"/><path class="cls-15" d="M233.37,129.54l-.44.25V154.7a2,2,0,0,1-.84,1.62l-1.38.8v.46c0,.62.38.91.84.64l1.82-1.05a2,2,0,0,0,.85-1.62V130.18C234.22,129.56,233.84,129.27,233.37,129.54Z" transform="translate(-8.16 -12.59)"/><path class="cls-15" d="M240.06,125.68l-.43.25v24.91a2,2,0,0,1-.85,1.62l-1.38.79v.46c0,.63.38.91.85.64l1.81-1a2,2,0,0,0,.85-1.61V126.32C240.91,125.69,240.53,125.41,240.06,125.68Z" transform="translate(-8.16 -12.59)"/><path class="cls-15" d="M246.76,121.81l-.44.25V147a2,2,0,0,1-.84,1.62l-1.38.8v.46c0,.62.37.91.84.64l1.82-1.05a2,2,0,0,0,.84-1.62V122.45C247.6,121.83,247.23,121.54,246.76,121.81Z" transform="translate(-8.16 -12.59)"/><path class="cls-19" d="M208.46,164.15a1.39,1.39,0,0,1-.67-.2l-23.65-13.66a3.4,3.4,0,0,1-1.47-2.77V120.67a1.45,1.45,0,0,1,.6-1.31,1.12,1.12,0,0,1,1.14.07l23.66,13.66a3.43,3.43,0,0,1,1.47,2.77v26.85a1.45,1.45,0,0,1-.6,1.31A1,1,0,0,1,208.46,164.15Zm-24.71-44.36a.46.46,0,0,0-.2,0,1,1,0,0,0-.32.83v26.85a2.92,2.92,0,0,0,1.18,2.29l23.66,13.66a.62.62,0,0,0,.59.07,1,1,0,0,0,.32-.83V135.86a2.9,2.9,0,0,0-1.19-2.29l-23.65-13.66A.85.85,0,0,0,183.75,119.79Z" transform="translate(-8.16 -12.59)"/><path class="cls-18" d="M187.3,125.93c0,.74-.52,1-1.15.67a2.54,2.54,0,0,1-1.15-2c0-.73.51-1,1.15-.66A2.56,2.56,0,0,1,187.3,125.93Z" transform="translate(-8.16 -12.59)"/><path class="cls-18" d="M187.3,129.67c0,.73-.52,1-1.15.66a2.52,2.52,0,0,1-1.15-2c0-.74.51-1,1.15-.67A2.57,2.57,0,0,1,187.3,129.67Z" transform="translate(-8.16 -12.59)"/><path class="cls-18" d="M187.3,133.4c0,.74-.52,1-1.15.67a2.54,2.54,0,0,1-1.15-2c0-.73.51-1,1.15-.66A2.56,2.56,0,0,1,187.3,133.4Z" transform="translate(-8.16 -12.59)"/><path class="cls-15" d="M186.72,133.61a2.55,2.55,0,0,1-1.15-2,1.23,1.23,0,0,1,.06-.36c-.37,0-.63.3-.63.81a2.54,2.54,0,0,0,1.15,2c.51.3.95.15,1.09-.31A1,1,0,0,1,186.72,133.61Z" transform="translate(-8.16 -12.59)"/><path class="cls-15" d="M186.72,129.88a2.57,2.57,0,0,1-1.15-2,1.29,1.29,0,0,1,.06-.36c-.37,0-.63.3-.63.82a2.54,2.54,0,0,0,1.15,2c.51.3.95.15,1.09-.3A1.16,1.16,0,0,1,186.72,129.88Z" transform="translate(-8.16 -12.59)"/><path class="cls-15" d="M186.72,126.14a2.57,2.57,0,0,1-1.15-2,1.36,1.36,0,0,1,.06-.36c-.37,0-.63.3-.63.82a2.52,2.52,0,0,0,1.15,2c.51.3.95.16,1.09-.3A1,1,0,0,1,186.72,126.14Z" transform="translate(-8.16 -12.59)"/><path class="cls-19" d="M206.33,150.74l-.76-.44a1,1,0,0,1-.43-.81v-3.67c0-.31.19-.46.43-.32l.76.44a1,1,0,0,1,.43.82v3.66C206.76,150.74,206.57,150.88,206.33,150.74Z" transform="translate(-8.16 -12.59)"/><path class="cls-20" d="M58.78,116,19.47,93.27C15,90.66,15.52,86.11,20.73,83.1h0c5.22-3,13.11-3.34,17.62-.73l39.32,22.69c4.51,2.61,4,7.17-1.27,10.18h0C71.19,118.25,63.3,118.57,58.78,116Z" transform="translate(-8.16 -12.59)"/><path class="cls-39" d="M68.62,120.38a17.86,17.86,0,0,1-8.78-2L15.7,92.88c-2.33-1.35-3.61-3.23-3.61-5.3,0-2.47,1.83-4.94,5-6.79,6-3.43,15-3.8,20.17-.82l44.14,25.48c2.33,1.35,3.62,3.23,3.62,5.3,0,2.47-1.84,4.94-5,6.79A23.35,23.35,0,0,1,68.62,120.38ZM28.51,78.71a22.56,22.56,0,0,0-11,2.75c-3,1.7-4.65,3.94-4.65,6.12,0,1.79,1.14,3.43,3.23,4.63L60.23,117.7c5,2.86,13.66,2.49,19.4-.83,3-1.7,4.65-3.93,4.65-6.12,0-1.78-1.15-3.43-3.23-4.63L36.91,80.64A17.07,17.07,0,0,0,28.51,78.71Z" transform="translate(-8.16 -12.59)"/><path class="cls-40" d="M75.75,105.43l-5.24-1L22,76.32,17,71.67,11.9,64.23,9.19,56.57l-.67-6.44L9.75,45.2l2.88-3.87,4.1-1,21-11.41S62.18,45.75,63.18,46.12,80,79,80,79l3.47,21.9-3.89,3.58Z" transform="translate(-8.16 -12.59)"/><path class="cls-41" d="M105,84c0-8.39-5.89-18.59-13.16-22.79a12.55,12.55,0,0,0-5-1.74c-.74-7.55-6-16.09-12.35-19.77A14.74,14.74,0,0,0,72,38.55c-1.93-6.17-6.3-12.23-11.4-15.17-3.59-2.07-6.82-2.18-9.09-.69h0l-9.25,5a9.09,9.09,0,0,0-6.36.52h0l-.19.1h0L12.82,40.71l5.83-.13,7.09,2.68.51-4.6,2.83-3.19,2.41-1,.88-.1L36,35.61c.09-.5.87-.26,1.16-.26,1.83,1.09,2.92,2.92,4.38,4,4.38,2.92,4.38,9.61,8,12.16C55.43,55.9,60.9,62,63.82,68.57c.19.37,0,.64-.29.87l.6,3.29,5.14,1.4,4.86,3.93,4.44,5.62,1.53,3.44,1.72,4.72.4,4.74-.4,3.62-3.23,5.23,22.27-12.74h0l-.2.1C103.34,91.55,105,88.5,105,84Z" transform="translate(-8.16 -12.59)"/><path class="cls-9" d="M38.57,27.47a7.94,7.94,0,0,0-2.72.79h0l-.2.1h0L12.82,40.71l1.28,0c.49-.38,1-.85,1.48-.82L38,27.74h0l.19-.11v0Z" transform="translate(-8.16 -12.59)"/><path class="cls-10" d="M105,84c0-8.39-5.89-18.59-13.16-22.79-.35-.2-.7-.38-1-.55,7.37,4.28,13.33,14.63,13.33,23.15,0,4.55-1.71,7.65-4.42,8.91l.2-.1h0L79.15,104.52l-.56.91,22.27-12.74h0l-.2.1C103.34,91.55,105,88.5,105,84Z" transform="translate(-8.16 -12.59)"/><path class="cls-42" d="M63.82,68.57C60.9,62,56.28,53.72,49,51.47c-1.1-3.28-3-9.19-7.43-12.11-1.46-1.09-2.55-2.92-4.38-4-.29,0-1.07-.24-1.16.26l.11,0c.05,9.9,7,21.89,15.55,26.84l11.84,6.83,0,.13C63.81,69.21,64,68.94,63.82,68.57Z" transform="translate(-8.16 -12.59)"/><path class="cls-43" d="M69.48,73.77a12.8,12.8,0,0,0-5-1.75c-.76-7.6-6-16.2-12.44-19.9a14.58,14.58,0,0,0-2.58-1.18C47.49,44.73,43.09,38.63,38,35.67c-6.92-4-12.52-.77-12.54,7.2-.53-.36-1.06-.71-1.6-1-8.65-5-15.66-.94-15.66,9S15.17,73,23.82,78l45.66,26.36c7.31,4.23,13.24.8,13.24-7.64S76.79,78,69.48,73.77Z" transform="translate(-8.16 -12.59)"/><path class="cls-10" d="M69.48,73.77c-.41-.23-.82-.44-1.22-.63,7.31,4.24,13.52,15.14,13.52,23.58,0,5.74-2.74,9.15-6.79,9.43,4.56.21,7.73-3.26,7.73-9.43C82.72,88.27,76.79,78,69.48,73.77Z" transform="translate(-8.16 -12.59)"/><path class="cls-9" d="M8.77,51.18c0-8,4.48-12.24,10.71-11.12C12.94,38.47,8.16,42.65,8.16,50.89c0,8.94,5.62,19.58,13,25.3C14.07,70.28,8.77,59.92,8.77,51.18Z" transform="translate(-8.16 -12.59)"/><path class="cls-18" d="M33.74,65.37c0,2.17-1.53,3-3.41,2a7.55,7.55,0,0,1-3.41-5.91c0-2.17,1.53-3,3.41-2A7.55,7.55,0,0,1,33.74,65.37Z" transform="translate(-8.16 -12.59)"/><path class="cls-15" d="M32,66.49a7.55,7.55,0,0,1-3.41-5.9A2.93,2.93,0,0,1,29,59c-1.23-.11-2.09.79-2.09,2.42a7.55,7.55,0,0,0,3.41,5.91c1.32.75,2.44.54,3-.39A3.32,3.32,0,0,1,32,66.49Z" transform="translate(-8.16 -12.59)"/><path class="cls-18" d="M44.21,71.41c0,2.18-1.53,3.06-3.41,2a7.55,7.55,0,0,1-3.41-5.9c0-2.18,1.53-3.06,3.41-2A7.55,7.55,0,0,1,44.21,71.41Z" transform="translate(-8.16 -12.59)"/><path class="cls-18" d="M54.68,77.46c0,2.17-1.53,3.05-3.41,2a7.53,7.53,0,0,1-3.41-5.9c0-2.17,1.53-3,3.41-2A7.55,7.55,0,0,1,54.68,77.46Z" transform="translate(-8.16 -12.59)"/><path class="cls-15" d="M42.49,72.54a7.55,7.55,0,0,1-3.41-5.91,2.92,2.92,0,0,1,.4-1.57c-1.23-.12-2.09.79-2.09,2.42a7.53,7.53,0,0,0,3.41,5.9c1.31.76,2.44.54,3-.39A3.14,3.14,0,0,1,42.49,72.54Z" transform="translate(-8.16 -12.59)"/><path class="cls-15" d="M53,78.59a7.55,7.55,0,0,1-3.41-5.91A3,3,0,0,1,50,71.1c-1.23-.11-2.09.79-2.09,2.43a7.55,7.55,0,0,0,3.41,5.9c1.31.76,2.44.54,3-.39A3.29,3.29,0,0,1,53,78.59Z" transform="translate(-8.16 -12.59)"/></svg>